<svg width="85" height="85" viewBox="0 0 85 85" fill="none" xmlns="http://www.w3.org/2000/svg">
<path style="mix-blend-mode:multiply" opacity="0.5" d="M76.168 50.1436C80.6083 31.3305 68.9568 12.4799 50.1438 8.03964C31.3307 3.59936 12.4801 15.2508 8.03985 34.0639C3.59956 52.8769 15.251 71.7275 34.0641 76.1678C52.8771 80.6081 71.7277 68.9566 76.168 50.1436Z" fill="url(#paint0_radial_2105_7156)"/>
<path d="M41.999 65.585C57.9339 65.585 70.8516 52.6673 70.8516 36.7324C70.8516 20.7976 57.9339 7.87988 41.999 7.87988C26.0642 7.87988 13.1465 20.7976 13.1465 36.7324C13.1465 52.6673 26.0642 65.585 41.999 65.585Z" fill="#21A371"/>
<path d="M42.0227 66.7324C36.0883 66.7369 30.2859 64.9812 25.3494 61.6875C20.413 58.3938 16.5643 53.71 14.2901 48.2287C12.016 42.7473 11.4187 36.7146 12.5737 30.8937C13.7287 25.0727 16.5841 19.7251 20.7788 15.5273C24.9734 11.3294 30.3189 8.46994 36.1389 7.31054C41.959 6.15114 47.9921 6.74391 53.4753 9.01387C58.9584 11.2838 63.6451 15.129 66.9425 20.0629C70.2399 24.9969 72 30.798 72 36.7324C71.994 44.6831 68.8345 52.3068 63.2146 57.931C57.5947 63.5551 49.9734 66.7204 42.0227 66.7324ZM42.0227 9.52576C36.6328 9.52576 31.3639 11.1241 26.8823 14.1186C22.4007 17.1131 18.9077 21.3693 16.8451 26.3489C14.7824 31.3286 14.2428 36.8081 15.2943 42.0945C16.3458 47.3808 18.9413 52.2367 22.7526 56.048C26.5639 59.8592 31.4197 62.4547 36.7061 63.5063C41.9925 64.5578 47.472 64.0181 52.4516 61.9555C57.4313 59.8928 61.6875 56.3999 64.682 51.9183C67.6765 47.4367 69.2748 42.1678 69.2748 36.7778C69.2748 33.199 68.5699 29.6553 67.2004 26.3489C65.8308 23.0425 63.8234 20.0383 61.2928 17.5077C58.7622 14.9771 55.758 12.9697 52.4516 11.6002C49.1453 10.2307 45.6015 9.52576 42.0227 9.52576Z" fill="white"/>
<path d="M31.3242 39.252V34.0723C31.3242 33.2168 31.4414 32.4082 31.6875 31.6465C31.9219 30.8848 32.2734 30.2051 32.7305 29.6074C33.1875 29.0098 33.7852 28.541 34.5352 28.1895C35.2734 27.8379 36.1055 27.6621 37.0312 27.6621C38.2031 27.6621 39.2344 27.9551 40.1133 28.5176C40.9805 29.0918 41.6367 29.8535 42.082 30.8145C42.5156 31.7754 42.7383 32.8652 42.7383 34.0723V39.252C42.7383 40.1777 42.6211 41.0332 42.4102 41.8184C42.1992 42.6152 41.8711 43.3301 41.4258 43.9746C40.9805 44.6191 40.3945 45.123 39.6445 45.498C38.8945 45.873 38.0156 46.0488 37.0312 46.0488C36.0703 46.0488 35.2148 45.873 34.4766 45.5215C33.7266 45.1699 33.1289 44.6895 32.6836 44.0566C32.2266 43.4355 31.8867 42.7207 31.6641 41.9121C31.4297 41.1035 31.3242 40.2129 31.3242 39.252ZM34.3711 39.1816C34.3711 39.7793 34.4062 40.3066 34.4883 40.752C34.5586 41.1973 34.6992 41.6191 34.8867 41.9941C35.0742 42.3691 35.3438 42.6621 35.707 42.8613C36.0586 43.0723 36.5039 43.166 37.0312 43.166C38.0039 43.166 38.6953 42.8262 39.0938 42.1465C39.4922 41.4668 39.6914 40.4824 39.6914 39.1816V34.3301C39.6914 33.2051 39.4688 32.291 39.0469 31.5879C38.625 30.8965 37.9453 30.5449 37.0312 30.5449C36.1289 30.5449 35.4609 30.8848 35.0273 31.5645C34.582 32.2441 34.3711 33.1699 34.3711 34.3301V39.1816ZM44.6602 31.002V27.9668H50.6602V45.7324H47.5195V31.002H44.6602Z" fill="white"/>
<defs>
<radialGradient id="paint0_radial_2105_7156" cx="0" cy="0" r="1" gradientUnits="userSpaceOnUse" gradientTransform="translate(42.0826 42.0893) scale(35)">
<stop offset="0.11"/>
<stop offset="0.12" stop-color="#040404"/>
<stop offset="0.26" stop-color="#454545"/>
<stop offset="0.41" stop-color="#7E7E7E"/>
<stop offset="0.55" stop-color="#ACACAC"/>
<stop offset="0.68" stop-color="#D0D0D0"/>
<stop offset="0.8" stop-color="#EAEAEA"/>
<stop offset="0.91" stop-color="#FAFAFA"/>
<stop offset="1" stop-color="white"/>
</radialGradient>
</defs>
</svg>
