<svg width="60" height="60" viewBox="0 0 60 60" fill="none" xmlns="http://www.w3.org/2000/svg">
<circle cx="30" cy="30" r="30" fill="#00756A"/>
<path d="M30 15.3333C33.1826 15.3333 36.2348 16.5976 38.4853 18.848C40.7357 21.0985 42 24.1507 42 27.3333C42 32.3013 38.2133 37.5066 30.8 43.0666C30.5692 43.2397 30.2885 43.3333 30 43.3333C29.7115 43.3333 29.4308 43.2397 29.2 43.0666C21.7867 37.5066 18 32.3013 18 27.3333C18 24.1507 19.2643 21.0985 21.5147 18.848C23.7652 16.5976 26.8174 15.3333 30 15.3333ZM30 23.3333C28.9391 23.3333 27.9217 23.7547 27.1716 24.5049C26.4214 25.255 26 26.2724 26 27.3333C26 28.3942 26.4214 29.4116 27.1716 30.1617C27.9217 30.9119 28.9391 31.3333 30 31.3333C31.0609 31.3333 32.0783 30.9119 32.8284 30.1617C33.5786 29.4116 34 28.3942 34 27.3333C34 26.2724 33.5786 25.255 32.8284 24.5049C32.0783 23.7547 31.0609 23.3333 30 23.3333Z" fill="white"/>
</svg>
