<svg width="210" height="70" viewBox="0 0 210 70" fill="none" xmlns="http://www.w3.org/2000/svg">
<rect width="210" height="70" rx="20" fill="#23262F"/>
<path d="M79.2578 23V12.6367H82.0469C82.8079 12.6367 83.5234 12.7575 84.1934 12.999C84.8633 13.2406 85.4466 13.5824 85.9434 14.0244C86.4447 14.4619 86.8389 15.0111 87.126 15.6719C87.4176 16.3327 87.5635 17.0573 87.5635 17.8457C87.5635 18.6296 87.4199 19.3473 87.1328 19.999C86.8457 20.6507 86.4515 21.1953 85.9502 21.6328C85.4535 22.0658 84.8678 22.403 84.1934 22.6445C83.5189 22.8815 82.7943 23 82.0195 23H79.2578ZM80.2969 22.0635H81.8896C82.5596 22.0635 83.1725 21.9769 83.7285 21.8037C84.2845 21.6305 84.7721 21.3753 85.1914 21.0381C85.6107 20.7008 85.9365 20.2611 86.1689 19.7188C86.4059 19.1764 86.5244 18.5566 86.5244 17.8594C86.5244 17.2578 86.4355 16.7155 86.2578 16.2324C86.0801 15.7448 85.8385 15.3392 85.5332 15.0156C85.2279 14.6875 84.8633 14.4141 84.4395 14.1953C84.0156 13.9766 83.5645 13.8193 83.0859 13.7236C82.6074 13.6279 82.097 13.5801 81.5547 13.5801H80.2969V22.0635ZM88.6777 19.7256C88.6777 19.1104 88.8281 18.5339 89.1289 17.9961C89.4342 17.4583 89.8535 17.0299 90.3867 16.7109C90.9199 16.3874 91.4987 16.2256 92.123 16.2256C92.5924 16.2256 93.0413 16.319 93.4697 16.5059C93.9027 16.6927 94.2741 16.9434 94.584 17.2578C94.8939 17.5723 95.1423 17.9437 95.3291 18.3721C95.516 18.8005 95.6094 19.2471 95.6094 19.7119C95.6094 20.1813 95.516 20.6302 95.3291 21.0586C95.1423 21.487 94.8916 21.8561 94.5771 22.166C94.2673 22.4759 93.8981 22.7243 93.4697 22.9111C93.0459 23.0934 92.6016 23.1846 92.1367 23.1846C91.5215 23.1846 90.9473 23.0319 90.4141 22.7266C89.8854 22.4167 89.4639 21.9951 89.1494 21.4619C88.835 20.9287 88.6777 20.3499 88.6777 19.7256ZM90.3594 17.8867C89.8809 18.4062 89.6416 19.0192 89.6416 19.7256C89.6416 20.432 89.8831 21.0381 90.3662 21.5439C90.8493 22.0498 91.444 22.3027 92.1504 22.3027C92.8613 22.3027 93.4538 22.0452 93.9277 21.5303C94.4062 21.0153 94.6455 20.4046 94.6455 19.6982C94.6455 18.9827 94.4017 18.3721 93.9141 17.8662C93.4264 17.3604 92.834 17.1074 92.1367 17.1074C91.4303 17.1074 90.8379 17.3672 90.3594 17.8867ZM96.3066 16.3486H97.3594L99.4443 21.7832L101.393 16.3486H102.37L104.318 21.7832L106.403 16.3486H107.456L104.838 23H103.758L101.885 17.668L100.005 23H98.9248L96.3066 16.3486ZM108.789 23V16.3486H109.767V17.2852C110.026 16.9115 110.323 16.6426 110.655 16.4785C110.993 16.3099 111.403 16.2256 111.886 16.2256C112.756 16.2256 113.433 16.4831 113.916 16.998C114.399 17.513 114.641 18.2809 114.641 19.3018V23H113.663V19.582C113.663 19.2083 113.636 18.8825 113.581 18.6045C113.526 18.3265 113.431 18.069 113.294 17.832C113.162 17.5951 112.968 17.415 112.713 17.292C112.462 17.1689 112.152 17.1074 111.783 17.1074C111.469 17.1074 111.191 17.1553 110.949 17.251C110.712 17.3421 110.519 17.4674 110.368 17.627C110.222 17.7865 110.102 17.9847 110.006 18.2217C109.915 18.4541 109.851 18.6956 109.814 18.9463C109.783 19.1969 109.767 19.4795 109.767 19.7939V23H108.789ZM116.883 21.3867V12.6367H117.86V20.9287C117.86 21.43 117.926 21.7832 118.059 21.9883C118.195 22.1888 118.439 22.2891 118.79 22.2891C118.918 22.2891 119.048 22.2777 119.18 22.2549V23.082C118.924 23.1504 118.688 23.1846 118.469 23.1846C117.986 23.1846 117.601 23.0296 117.313 22.7197C117.026 22.4098 116.883 21.9655 116.883 21.3867ZM119.932 19.7256C119.932 19.1104 120.082 18.5339 120.383 17.9961C120.688 17.4583 121.107 17.0299 121.641 16.7109C122.174 16.3874 122.753 16.2256 123.377 16.2256C123.846 16.2256 124.295 16.319 124.724 16.5059C125.157 16.6927 125.528 16.9434 125.838 17.2578C126.148 17.5723 126.396 17.9437 126.583 18.3721C126.77 18.8005 126.863 19.2471 126.863 19.7119C126.863 20.1813 126.77 20.6302 126.583 21.0586C126.396 21.487 126.146 21.8561 125.831 22.166C125.521 22.4759 125.152 22.7243 124.724 22.9111C124.3 23.0934 123.855 23.1846 123.391 23.1846C122.775 23.1846 122.201 23.0319 121.668 22.7266C121.139 22.4167 120.718 21.9951 120.403 21.4619C120.089 20.9287 119.932 20.3499 119.932 19.7256ZM121.613 17.8867C121.135 18.4062 120.896 19.0192 120.896 19.7256C120.896 20.432 121.137 21.0381 121.62 21.5439C122.103 22.0498 122.698 22.3027 123.404 22.3027C124.115 22.3027 124.708 22.0452 125.182 21.5303C125.66 21.0153 125.899 20.4046 125.899 19.6982C125.899 18.9827 125.656 18.3721 125.168 17.8662C124.68 17.3604 124.088 17.1074 123.391 17.1074C122.684 17.1074 122.092 17.3672 121.613 17.8867ZM128.121 19.7119C128.121 18.7184 128.461 17.889 129.14 17.2236C129.819 16.5583 130.655 16.2256 131.648 16.2256C132.195 16.2256 132.688 16.3372 133.125 16.5605C133.567 16.7839 133.934 17.1143 134.226 17.5518V16.3486H135.203V23H134.226V21.8652C133.629 22.7448 132.765 23.1846 131.635 23.1846C130.979 23.1846 130.382 23.0342 129.844 22.7334C129.311 22.4326 128.889 22.0179 128.579 21.4893C128.274 20.9561 128.121 20.3636 128.121 19.7119ZM129.085 19.7256C129.085 20.4684 129.322 21.0837 129.796 21.5713C130.274 22.0589 130.883 22.3027 131.621 22.3027C132.368 22.3027 132.979 22.0544 133.453 21.5576C133.932 21.0609 134.171 20.4502 134.171 19.7256C134.171 18.9964 133.932 18.3789 133.453 17.873C132.975 17.3626 132.364 17.1074 131.621 17.1074C130.892 17.1074 130.286 17.3581 129.803 17.8594C129.324 18.3561 129.085 18.9782 129.085 19.7256ZM137.021 19.7119C137.021 18.7184 137.361 17.889 138.04 17.2236C138.719 16.5583 139.555 16.2256 140.549 16.2256C141.096 16.2256 141.588 16.3372 142.025 16.5605C142.467 16.7839 142.834 17.1143 143.126 17.5518V12.6367H144.104V23H143.126V21.8652C142.529 22.7448 141.665 23.1846 140.535 23.1846C139.879 23.1846 139.282 23.0342 138.744 22.7334C138.211 22.4326 137.789 22.0179 137.479 21.4893C137.174 20.9561 137.021 20.3636 137.021 19.7119ZM137.985 19.7256C137.985 20.4684 138.222 21.0837 138.696 21.5713C139.175 22.0589 139.783 22.3027 140.521 22.3027C141.269 22.3027 141.88 22.0544 142.354 21.5576C142.832 21.0609 143.071 20.4502 143.071 19.7256C143.071 18.9964 142.832 18.3789 142.354 17.873C141.875 17.3626 141.264 17.1074 140.521 17.1074C139.792 17.1074 139.186 17.3581 138.703 17.8594C138.225 18.3561 137.985 18.9782 137.985 19.7256ZM149.695 19.7256C149.695 19.1104 149.846 18.5339 150.146 17.9961C150.452 17.4583 150.871 17.0299 151.404 16.7109C151.938 16.3874 152.516 16.2256 153.141 16.2256C153.61 16.2256 154.059 16.319 154.487 16.5059C154.92 16.6927 155.292 16.9434 155.602 17.2578C155.911 17.5723 156.16 17.9437 156.347 18.3721C156.534 18.8005 156.627 19.2471 156.627 19.7119C156.627 20.1813 156.534 20.6302 156.347 21.0586C156.16 21.487 155.909 21.8561 155.595 22.166C155.285 22.4759 154.916 22.7243 154.487 22.9111C154.063 23.0934 153.619 23.1846 153.154 23.1846C152.539 23.1846 151.965 23.0319 151.432 22.7266C150.903 22.4167 150.481 21.9951 150.167 21.4619C149.853 20.9287 149.695 20.3499 149.695 19.7256ZM151.377 17.8867C150.898 18.4062 150.659 19.0192 150.659 19.7256C150.659 20.432 150.901 21.0381 151.384 21.5439C151.867 22.0498 152.462 22.3027 153.168 22.3027C153.879 22.3027 154.471 22.0452 154.945 21.5303C155.424 21.0153 155.663 20.4046 155.663 19.6982C155.663 18.9827 155.419 18.3721 154.932 17.8662C154.444 17.3604 153.852 17.1074 153.154 17.1074C152.448 17.1074 151.855 17.3672 151.377 17.8867ZM158.445 23V16.3486H159.423V17.2852C159.683 16.9115 159.979 16.6426 160.312 16.4785C160.649 16.3099 161.059 16.2256 161.542 16.2256C162.412 16.2256 163.089 16.4831 163.572 16.998C164.055 17.513 164.297 18.2809 164.297 19.3018V23H163.319V19.582C163.319 19.2083 163.292 18.8825 163.237 18.6045C163.183 18.3265 163.087 18.069 162.95 17.832C162.818 17.5951 162.624 17.415 162.369 17.292C162.118 17.1689 161.809 17.1074 161.439 17.1074C161.125 17.1074 160.847 17.1553 160.605 17.251C160.368 17.3421 160.175 17.4674 160.024 17.627C159.879 17.7865 159.758 17.9847 159.662 18.2217C159.571 18.4541 159.507 18.6956 159.471 18.9463C159.439 19.1969 159.423 19.4795 159.423 19.7939V23H158.445ZM169.198 17.2305V16.3486H170.244V14.0928H171.229V16.3486H173.074V17.2305H171.229V20.9287C171.229 21.43 171.295 21.7832 171.427 21.9883C171.559 22.1888 171.8 22.2891 172.151 22.2891C172.397 22.2891 172.648 22.2458 172.903 22.1592V23.041C172.607 23.1367 172.309 23.1846 172.008 23.1846C170.832 23.1846 170.244 22.5853 170.244 21.3867V17.2305H169.198ZM174.469 23V12.6367H175.446V17.2852C175.706 16.9115 176.002 16.6426 176.335 16.4785C176.672 16.3099 177.082 16.2256 177.565 16.2256C178.436 16.2256 179.113 16.4831 179.596 16.998C180.079 17.513 180.32 18.2809 180.32 19.3018V23H179.343V19.582C179.343 19.2083 179.315 18.8825 179.261 18.6045C179.206 18.3265 179.11 18.069 178.974 17.832C178.841 17.5951 178.648 17.415 178.393 17.292C178.142 17.1689 177.832 17.1074 177.463 17.1074C177.148 17.1074 176.87 17.1553 176.629 17.251C176.392 17.3421 176.198 17.4674 176.048 17.627C175.902 17.7865 175.781 17.9847 175.686 18.2217C175.594 18.4541 175.531 18.6956 175.494 18.9463C175.462 19.1969 175.446 19.4795 175.446 19.7939V23H174.469ZM182.002 19.7119C182.002 19.0967 182.15 18.5225 182.446 17.9893C182.743 17.4561 183.153 17.0299 183.677 16.7109C184.205 16.3874 184.786 16.2256 185.42 16.2256C185.894 16.2256 186.343 16.3213 186.767 16.5127C187.19 16.6995 187.55 16.9502 187.847 17.2646C188.147 17.5791 188.384 17.9505 188.558 18.3789C188.735 18.8073 188.824 19.2516 188.824 19.7119V20.0742H183C183.082 20.6986 183.353 21.2272 183.813 21.6602C184.278 22.0885 184.827 22.3027 185.461 22.3027C185.876 22.3027 186.268 22.2048 186.637 22.0088C187.006 21.8128 187.304 21.5508 187.532 21.2227L188.264 21.7422C187.945 22.1888 187.539 22.542 187.047 22.8018C186.559 23.057 186.035 23.1846 185.475 23.1846C184.855 23.1846 184.278 23.0319 183.745 22.7266C183.212 22.4167 182.788 21.9951 182.474 21.4619C182.159 20.9287 182.002 20.3454 182.002 19.7119ZM183.014 19.1924H187.812C187.712 18.5954 187.443 18.0986 187.006 17.7021C186.568 17.3057 186.04 17.1074 185.42 17.1074C184.8 17.1074 184.274 17.3057 183.841 17.7021C183.408 18.0941 183.132 18.5908 183.014 19.1924Z" fill="white"/>
<path d="M78 51L85.1016 33.2344H88.3008L95.3789 51H91.9688L90.5039 47.2031H82.8516L81.4102 51H78ZM83.9766 44.2031H89.3789L86.6836 37.1484L83.9766 44.2031ZM97.1719 57.0703V39.5977H100.125V40.4414C100.992 39.7383 102.047 39.3867 103.289 39.3867C104.965 39.3867 106.395 39.9727 107.566 41.1211C108.738 42.2812 109.336 43.6875 109.336 45.3398C109.336 46.418 109.066 47.4258 108.527 48.3398C107.988 49.2539 107.262 49.9805 106.336 50.5195C105.398 51.0586 104.391 51.3164 103.289 51.3164C102.047 51.3164 100.992 50.9648 100.125 50.2617V57.0703H97.1719ZM100.125 45.4805C100.16 46.3008 100.488 47.0156 101.098 47.6016C101.707 48.1875 102.445 48.4805 103.289 48.4805C104.145 48.4805 104.883 48.1758 105.504 47.5547C106.113 46.9336 106.43 46.1953 106.43 45.3398C106.43 44.4961 106.113 43.7695 105.504 43.1484C104.883 42.5273 104.145 42.2109 103.289 42.2109C102.445 42.2109 101.707 42.5156 101.098 43.1016C100.488 43.6992 100.16 44.4023 100.125 45.2109V45.4805ZM111.984 57.0703V39.5977H114.938V40.4414C115.805 39.7383 116.859 39.3867 118.102 39.3867C119.777 39.3867 121.207 39.9727 122.379 41.1211C123.551 42.2812 124.148 43.6875 124.148 45.3398C124.148 46.418 123.879 47.4258 123.34 48.3398C122.801 49.2539 122.074 49.9805 121.148 50.5195C120.211 51.0586 119.203 51.3164 118.102 51.3164C116.859 51.3164 115.805 50.9648 114.938 50.2617V57.0703H111.984ZM114.938 45.4805C114.973 46.3008 115.301 47.0156 115.91 47.6016C116.52 48.1875 117.258 48.4805 118.102 48.4805C118.957 48.4805 119.695 48.1758 120.316 47.5547C120.926 46.9336 121.242 46.1953 121.242 45.3398C121.242 44.4961 120.926 43.7695 120.316 43.1484C119.695 42.5273 118.957 42.2109 118.102 42.2109C117.258 42.2109 116.52 42.5156 115.91 43.1016C115.301 43.6992 114.973 44.4023 114.938 45.2109V45.4805ZM131.203 48.1641L133.172 46.125C133.465 46.4766 133.734 46.7578 133.969 46.9805C134.203 47.2148 134.496 47.4492 134.848 47.6953C135.199 47.9414 135.574 48.1289 135.984 48.2461C136.395 48.375 136.84 48.4336 137.309 48.4336C138.234 48.4336 138.938 48.1992 139.406 47.7305C139.875 47.2617 140.109 46.7109 140.109 46.0781C140.109 45.7148 140.016 45.3867 139.828 45.082C139.641 44.7891 139.395 44.543 139.09 44.332C138.785 44.1211 138.422 43.9336 138.023 43.7461C137.625 43.5703 137.203 43.3945 136.758 43.2188C136.312 43.043 135.879 42.8555 135.434 42.6562C134.988 42.457 134.566 42.2227 134.168 41.9414C133.77 41.6602 133.406 41.3555 133.102 41.0156C132.797 40.6758 132.551 40.2539 132.363 39.7383C132.176 39.2344 132.094 38.6719 132.094 38.0391C132.094 36.4688 132.621 35.2148 133.688 34.3008C134.754 33.3867 136.137 32.9297 137.836 32.9297C139.477 32.9297 141.07 33.4922 142.605 34.6055L140.977 37.0547C140.039 36.2344 138.938 35.8125 137.684 35.8125C136.898 35.8125 136.289 35.9883 135.855 36.3164C135.422 36.6562 135.211 37.125 135.211 37.7227C135.211 38.2031 135.352 38.6133 135.656 38.9648C135.949 39.3164 136.336 39.6094 136.805 39.832C137.273 40.0547 137.801 40.2656 138.375 40.4766C138.949 40.6875 139.523 40.9336 140.098 41.2148C140.66 41.4961 141.188 41.8125 141.656 42.1875C142.125 42.5625 142.512 43.0781 142.816 43.7109C143.109 44.3438 143.262 45.0938 143.262 45.9375C143.262 47.5781 142.746 48.8789 141.715 49.8516C140.684 50.8359 139.207 51.3164 137.285 51.3164C136.523 51.3164 135.82 51.2344 135.176 51.0703C134.531 50.9062 133.852 50.5898 133.148 50.0977C132.434 49.6172 131.789 48.9727 131.203 48.1641ZM144.082 42.4336V39.5977H145.887V35.7305H148.828V39.5977H151.863V42.4336H148.828V46.9922C148.828 48.0234 149.25 48.5273 150.105 48.5273C150.316 48.5273 150.551 48.5273 150.785 48.5039C151.02 48.4805 151.207 48.4688 151.348 48.4453L151.547 48.4102V51.0234C150.961 51.2227 150.199 51.3164 149.262 51.3164C148.172 51.3164 147.34 50.9883 146.754 50.3203C146.168 49.6641 145.887 48.7617 145.887 47.6133V42.4336H144.082ZM153.516 45.3398C153.516 43.6875 154.102 42.2812 155.273 41.1211C156.445 39.9727 157.875 39.3867 159.562 39.3867C160.664 39.3867 161.684 39.6562 162.621 40.1836C163.559 40.7109 164.285 41.4258 164.824 42.3398C165.363 43.2539 165.633 44.2617 165.633 45.3398C165.633 46.418 165.363 47.4258 164.824 48.3398C164.285 49.2539 163.559 49.9805 162.621 50.5195C161.684 51.0586 160.664 51.3164 159.562 51.3164C158.461 51.3164 157.441 51.0586 156.516 50.5195C155.578 49.9805 154.852 49.2539 154.312 48.3398C153.773 47.4258 153.516 46.418 153.516 45.3398ZM156.41 45.3398C156.41 46.1953 156.715 46.9336 157.336 47.5547C157.957 48.1758 158.695 48.4805 159.562 48.4805C160.43 48.4805 161.18 48.1758 161.801 47.5547C162.41 46.9336 162.727 46.1953 162.727 45.3398C162.727 44.4961 162.41 43.7695 161.801 43.1484C161.18 42.5273 160.43 42.2109 159.562 42.2109C158.695 42.2109 157.957 42.5273 157.336 43.1484C156.715 43.7695 156.41 44.4961 156.41 45.3398ZM168.281 51V39.5977H171.234V40.4414C171.773 40.043 172.359 39.7617 172.992 39.6094C173.625 39.4688 174.492 39.3867 175.617 39.3867V42.2109C174.867 42.2109 174.234 42.2578 173.707 42.3398C173.18 42.4336 172.758 42.5508 172.441 42.7031C172.113 42.8555 171.867 43.0664 171.691 43.3242C171.504 43.5938 171.387 43.875 171.328 44.168C171.258 44.4609 171.234 44.8125 171.234 45.2344V51H168.281ZM176.695 45.4102C176.695 44.6133 176.824 43.8398 177.105 43.1133C177.387 42.3867 177.773 41.7422 178.277 41.1914C178.77 40.6406 179.391 40.207 180.141 39.8789C180.891 39.5508 181.699 39.3867 182.59 39.3867C183.68 39.3867 184.664 39.668 185.555 40.207C186.434 40.7578 187.113 41.4844 187.605 42.3867C188.086 43.2891 188.332 44.2734 188.332 45.3398C188.332 45.6797 188.309 45.9961 188.262 46.2773H179.566C179.73 47.0039 180.094 47.5781 180.656 48C181.219 48.4336 181.91 48.6445 182.742 48.6445C183.281 48.6445 183.809 48.5391 184.312 48.3281C184.805 48.1172 185.215 47.8008 185.543 47.3789L187.559 48.9844C187.043 49.7109 186.352 50.2852 185.508 50.6953C184.652 51.1172 183.738 51.3164 182.766 51.3164C181.641 51.3164 180.609 51.0586 179.684 50.543C178.746 50.0273 178.02 49.3242 177.492 48.4102C176.953 47.5078 176.695 46.5117 176.695 45.4102ZM179.672 44.1094H185.355C185.262 43.5352 184.957 43.0547 184.43 42.6562C183.891 42.2695 183.27 42.0703 182.566 42.0703C181.887 42.0703 181.289 42.2578 180.773 42.6328C180.258 43.0078 179.883 43.5 179.672 44.1094Z" fill="white"/>
<path d="M53.2047 15.02C53.1197 14.925 50.0572 15.0575 47.3922 17.95C44.7272 20.84 45.1372 24.155 45.1972 24.24C45.2572 24.325 48.9972 24.4575 51.3847 21.095C53.7722 17.7325 53.2897 15.1175 53.2047 15.02ZM61.4897 44.3524C61.3697 44.1124 55.6772 41.2674 56.2072 35.7974C56.7372 30.3249 60.3947 28.8249 60.4522 28.6624C60.5097 28.4999 58.9597 26.6875 57.3172 25.77C56.1112 25.1231 54.7765 24.7525 53.4097 24.685C53.1397 24.6775 52.2022 24.4475 50.2747 24.975C49.0047 25.3225 46.1422 26.4475 45.3547 26.4925C44.5647 26.5375 42.2147 25.1875 39.6873 24.83C38.0698 24.5175 36.3548 25.1575 35.1273 25.65C33.9023 26.14 31.5723 27.535 29.9423 31.2424C28.3123 34.9474 29.1648 40.8174 29.7748 42.6424C30.3848 44.4649 31.3373 47.4524 32.9573 49.6323C34.3973 52.0923 36.3073 53.7998 37.1048 54.3798C37.9023 54.9598 40.1523 55.3448 41.7122 54.5473C42.9672 53.7773 45.2322 53.3348 46.1272 53.3673C47.0197 53.3998 48.7797 53.7523 50.5822 54.7148C52.0097 55.2073 53.3597 55.0023 54.7122 54.4523C56.0647 53.8998 58.0222 51.8048 60.3072 47.5574C61.1747 45.5824 61.5696 44.5149 61.4897 44.3524Z" fill="white"/>
<path d="M53.2047 15.02C53.1197 14.925 50.0572 15.0575 47.3922 17.95C44.7272 20.84 45.1372 24.155 45.1972 24.24C45.2572 24.325 48.9972 24.4575 51.3847 21.095C53.7722 17.7325 53.2897 15.1175 53.2047 15.02ZM61.4897 44.3524C61.3697 44.1124 55.6772 41.2674 56.2072 35.7974C56.7372 30.3249 60.3947 28.8249 60.4522 28.6624C60.5097 28.4999 58.9597 26.6875 57.3172 25.77C56.1112 25.1231 54.7765 24.7525 53.4097 24.685C53.1397 24.6775 52.2022 24.4475 50.2747 24.975C49.0047 25.3225 46.1422 26.4475 45.3547 26.4925C44.5647 26.5375 42.2147 25.1875 39.6873 24.83C38.0698 24.5175 36.3548 25.1575 35.1273 25.65C33.9023 26.14 31.5723 27.535 29.9423 31.2424C28.3123 34.9474 29.1648 40.8174 29.7748 42.6424C30.3848 44.4649 31.3373 47.4524 32.9573 49.6323C34.3973 52.0923 36.3073 53.7998 37.1048 54.3798C37.9023 54.9598 40.1523 55.3448 41.7122 54.5473C42.9672 53.7773 45.2322 53.3348 46.1272 53.3673C47.0197 53.3998 48.7797 53.7523 50.5822 54.7148C52.0097 55.2073 53.3597 55.0023 54.7122 54.4523C56.0647 53.8998 58.0222 51.8048 60.3072 47.5574C61.1747 45.5824 61.5696 44.5149 61.4897 44.3524Z" fill="white"/>
</svg>
