<svg width="256" height="107" viewBox="0 0 256 107" fill="none" xmlns="http://www.w3.org/2000/svg">
<path d="M172.251 31.5681H162.105V75.4318H172.251V31.5681Z" fill="black"/>
<path d="M65.8045 75.4891H76.3518V48.782C76.3518 39.2315 68.556 31.511 59.0405 31.511H33.3603V42.0337H59.0405C62.7665 42.0337 65.8045 45.0647 65.8045 48.782V57.6462L61.3334 52.0417C60.8175 51.2411 60.187 50.4404 59.4991 49.7542L59.3845 49.6398C56.461 46.5516 52.3339 44.6072 47.7481 44.6072C38.8632 44.6072 31.6406 51.813 31.6406 60.6772C31.6406 69.5415 38.8632 76.7472 47.7481 76.7472C56.633 76.7472 55.4866 75.2603 58.3527 72.744L52.1046 64.0513C51.0728 65.3667 49.5251 66.2245 47.7481 66.2245C44.6527 66.2245 42.1879 63.7082 42.1879 60.6772C42.1879 57.6462 44.71 55.1299 47.7481 55.1299C50.7862 55.1299 50.4422 55.7018 51.474 56.5596L52.6205 57.9893L54.7414 60.6772L65.8045 75.4891Z" fill="black"/>
<path d="M106.275 40.6612H108.97V30.9963C108.626 30.9963 108.224 30.9391 107.651 30.9391H105.932C104.269 30.9391 102.607 31.1107 100.945 31.511C99.2822 31.9113 97.7918 32.5404 96.3588 33.4554C94.9257 34.3704 93.6646 35.6857 92.5755 37.3442L92.0023 31.6254H82.7734V75.4891H92.9194V54.6724C92.9194 51.6986 93.4353 49.1823 94.4098 47.1235C95.3843 45.0647 96.932 43.5206 98.9382 42.3768C100.945 41.2902 103.409 40.7183 106.275 40.7183" fill="black"/>
<path d="M146.743 31.5681L145.825 37.1154C141.928 33.6269 136.769 31.4537 131.094 31.4537C118.941 31.4537 109.082 41.2902 109.082 53.4142C109.082 65.5382 118.941 75.3746 131.094 75.3746C143.246 75.3746 141.469 73.4302 145.31 70.1705V91.559H155.456V31.5681H146.628H146.743ZM131.151 65.7669C124.33 65.7669 118.769 60.2196 118.769 53.4142C118.769 46.6087 124.33 41.0614 131.151 41.0614C137.972 41.0614 143.533 46.6087 143.533 53.4142C143.533 60.2196 137.972 65.7669 131.151 65.7669Z" fill="black"/>
<path d="M171.852 24.7626C173.056 23.6189 173.687 22.0748 173.687 20.1875C173.687 18.3003 173.056 16.7562 171.795 15.6124C170.534 14.4687 168.986 13.8396 167.209 13.8396C165.432 13.8396 163.827 14.4115 162.623 15.6124C161.42 16.8134 160.789 18.3003 160.789 20.1304C160.789 21.9604 161.362 23.5617 162.566 24.7054C163.712 25.8492 165.26 26.4783 167.209 26.4783C169.158 26.4783 170.648 25.9064 171.852 24.7054" fill="black"/>
<path d="M224.357 31.5681H213.18L201.658 66.7391L190.079 31.5681H178.844L194.722 75.4318H208.422L224.357 31.5681Z" fill="black"/>
</svg>
