<svg width="100" height="100" viewBox="0 0 100 100" fill="none" xmlns="http://www.w3.org/2000/svg">
<circle cx="50" cy="50" r="50" fill="#E3D2C0"/>
<g clip-path="url(#clip0_1941_6708)">
<path d="M58.2842 39.0458C56.5743 39.1138 56.5748 41.5562 58.2842 41.6239C58.3348 41.6239 58.3759 41.665 58.3759 41.7156C58.3759 42.4275 58.953 43.0047 59.6649 43.0047C60.3768 43.0047 60.954 42.4275 60.954 41.7156C60.9541 40.2435 59.7564 39.0458 58.2842 39.0458ZM58.2842 33.5229C56.5754 33.5907 56.5737 36.0328 58.2842 36.1011C61.3801 36.1011 63.8988 38.6198 63.8988 41.7156C63.8988 42.4275 64.476 43.0047 65.1879 43.0047C65.8998 43.0047 66.4769 42.4275 66.4769 41.7156C66.4769 37.1982 62.8017 33.5229 58.2842 33.5229Z" fill="white"/>
<path d="M58.2842 28C56.5765 28.0675 56.5725 30.5091 58.2842 30.5781C64.4255 30.5781 69.4217 35.5744 69.4217 41.7156C69.4217 42.4275 69.9989 43.0047 70.7108 43.0047C71.4227 43.0047 71.9999 42.4275 71.9999 41.7156C71.9999 34.1528 65.8471 28 58.2842 28Z" fill="white"/>
<path d="M53.8853 43.9739L45.868 35.7048C44.988 34.794 43.5459 34.7701 42.6415 35.609L34.6974 42.9912C33.6219 43.9739 32.6687 45.0765 31.8131 46.2509C29.491 49.4387 28.22 52.0033 28.0244 55.4068C28.0244 55.4547 28.0244 55.5266 28.0244 55.5746C28.0244 55.7424 28.0244 55.9101 28 56.0779C28 56.1498 28 56.2457 28 56.3176C28 56.3416 28 56.3895 28 56.4135C28 56.5333 28 56.6532 28 56.749C28 56.9168 28 57.0846 28.0244 57.2284C28.0244 57.2763 28.0244 57.3482 28.0489 57.3962C28.5133 64.0114 33.1575 69.5002 39.415 71.3457C40.9549 71.8491 42.4459 72.0408 43.8392 71.9929C43.8881 71.9929 43.9614 71.9929 44.0103 71.9929C50.6344 71.9929 56.3297 68.0381 58.7495 62.4056C59.6295 60.536 60.045 58.5227 59.9961 56.4854C59.9961 56.4135 59.9961 56.3416 59.9961 56.2697C60.0206 51.3082 57.5029 47.8807 53.8853 43.9739ZM47.2124 64.9222C43.3014 68.877 34.0619 64.347 36.5307 55.7184C38.9994 47.1138 46.3324 42.7036 46.3324 42.7036C44.6214 44.8368 44.1814 49.1271 47.0412 52.0752C49.6811 54.7597 51.0988 60.9675 47.2124 64.9222Z" fill="white"/>
</g>
<defs>
<clipPath id="clip0_1941_6708">
<rect width="44" height="44" fill="white" transform="translate(28 28)"/>
</clipPath>
</defs>
</svg>
