<svg width="60" height="60" viewBox="0 0 60 60" fill="none" xmlns="http://www.w3.org/2000/svg">
<circle cx="30" cy="30" r="30" fill="#00756A"/>
<path d="M30 17C27.4288 17 24.9154 17.7624 22.7776 19.1909C20.6398 20.6194 18.9735 22.6497 17.9896 25.0251C17.0056 27.4006 16.7482 30.0144 17.2498 32.5362C17.7514 35.0579 18.9895 37.3743 20.8076 39.1924C22.6257 41.0105 24.9421 42.2486 27.4638 42.7502C29.9856 43.2518 32.5995 42.9944 34.9749 42.0104C37.3503 41.0265 39.3807 39.3603 40.8091 37.2224C42.2376 35.0846 43 32.5712 43 30C42.9964 26.5533 41.6256 23.2488 39.1884 20.8116C36.7512 18.3744 33.4467 17.0036 30 17ZM37 31H30C29.7348 31 29.4804 30.8946 29.2929 30.7071C29.1054 30.5196 29 30.2652 29 30V23C29 22.7348 29.1054 22.4804 29.2929 22.2929C29.4804 22.1054 29.7348 22 30 22C30.2652 22 30.5196 22.1054 30.7071 22.2929C30.8946 22.4804 31 22.7348 31 23V29H37C37.2652 29 37.5196 29.1054 37.7071 29.2929C37.8946 29.4804 38 29.7348 38 30C38 30.2652 37.8946 30.5196 37.7071 30.7071C37.5196 30.8946 37.2652 31 37 31Z" fill="white"/>
</svg>
