<svg width="60" height="60" viewBox="0 0 60 60" fill="none" xmlns="http://www.w3.org/2000/svg">
<circle cx="30" cy="30" r="30" fill="#00756A"/>
<path d="M24.3619 17.252L25.7979 16.7933C27.1419 16.364 28.5793 17.0587 29.1553 18.416L30.3019 21.12C30.8019 22.2973 30.5246 23.6827 29.6166 24.544L27.0926 26.9413C27.2486 28.376 27.7299 29.788 28.5379 31.1773C29.3057 32.5216 30.3354 33.6981 31.5659 34.6373L34.6006 33.624C35.7499 33.2413 37.0019 33.6827 37.7073 34.7187L39.3499 37.132C40.1713 38.3373 40.0233 39.9987 39.0059 41.02L37.9153 42.1147C36.8299 43.204 35.2806 43.6 33.8459 43.152C30.4606 42.096 27.3486 38.9613 24.5086 33.748C21.6646 28.5267 20.6619 24.0947 21.4979 20.4573C21.8499 18.9267 22.9406 17.7067 24.3646 17.252H24.3619Z" fill="white"/>
</svg>
