<svg width="40" height="40" viewBox="0 0 40 40" fill="none" xmlns="http://www.w3.org/2000/svg">
<path fill-rule="evenodd" clip-rule="evenodd" d="M19.9355 0.606035C23.5412 0.647181 26.7986 1.53338 29.7078 3.26463C32.5822 4.96128 34.9733 7.36697 36.6523 10.2517C38.373 13.1783 39.2539 16.4554 39.2949 20.0831C39.1927 25.0467 37.6272 29.286 34.5983 32.8011C31.5694 36.3163 27.6901 38.491 23.6743 39.3246V25.4085H27.4709L28.3295 19.9398H22.5805V16.3579C22.5486 15.6154 22.7835 14.8859 23.2426 14.3014C23.7023 13.7153 24.512 13.4073 25.6715 13.3773H29.143V8.58682C29.0932 8.57077 28.6205 8.50739 27.7251 8.39666C26.7095 8.27782 25.6882 8.21434 24.6657 8.2065C22.3515 8.21718 20.5212 8.86999 19.175 10.1649C17.8286 11.4595 17.1409 13.3324 17.1118 15.7837V19.9398H12.7368V25.4085H17.1118V39.3247C12.1809 38.4911 8.30164 36.3164 5.27273 32.8013C2.24383 29.2861 0.678359 25.0467 0.576172 20.0831C0.617057 16.4553 1.49789 13.1781 3.21867 10.2517C4.89778 7.36694 7.28886 4.96122 10.1633 3.26455C13.0723 1.53367 16.3297 0.647546 19.9355 0.606035Z" fill="white"/>
</svg>
