<svg width="100" height="100" viewBox="0 0 100 100" fill="none" xmlns="http://www.w3.org/2000/svg">
<circle cx="50" cy="50" r="50" fill="#F37767"/>
<g clip-path="url(#clip0_1941_6808)">
<path d="M58.2842 39.0458C56.5743 39.1138 56.5748 41.5562 58.2842 41.6239C58.3348 41.6239 58.3759 41.665 58.3759 41.7156C58.3759 42.4275 58.953 43.0047 59.6649 43.0047C60.3768 43.0047 60.954 42.4275 60.954 41.7156C60.9541 40.2435 59.7564 39.0458 58.2842 39.0458ZM58.2842 33.5229C56.5754 33.5907 56.5737 36.0328 58.2842 36.1011C61.3801 36.1011 63.8988 38.6198 63.8988 41.7156C63.8988 42.4275 64.476 43.0047 65.1879 43.0047C65.8998 43.0047 66.4769 42.4275 66.4769 41.7156C66.4769 37.1982 62.8017 33.5229 58.2842 33.5229Z" fill="white"/>
<path d="M58.2842 28C56.5765 28.0675 56.5725 30.5091 58.2842 30.5781C64.4255 30.5781 69.4217 35.5744 69.4217 41.7156C69.4217 42.4275 69.9989 43.0047 70.7108 43.0047C71.4227 43.0047 71.9999 42.4275 71.9999 41.7156C71.9999 34.1528 65.8471 28 58.2842 28Z" fill="white"/>
<path d="M28.3861 57.7253C28.3861 57.8711 28.3861 58.0169 28.3652 58.1627C28.3652 58.2252 28.3652 58.3085 28.3652 58.371C28.3652 58.3918 28.3652 58.4335 28.3652 58.4543C28.3652 58.5585 28.3652 58.6626 28.3652 58.746C28.3652 58.8918 28.3652 59.0376 28.3861 59.1625C28.3861 59.2042 28.3861 59.2667 28.4069 59.3084C28.8027 65.0574 32.7604 69.8275 38.0928 71.4314C39.4051 71.8688 40.6757 72.0354 41.863 71.9938C41.9047 71.9938 41.9672 71.9938 42.0088 71.9938C47.6537 71.9938 52.5071 68.5568 54.5693 63.6618C55.3192 62.0371 55.6733 60.2874 55.6316 58.5168C55.6316 58.4543 55.6316 58.3918 55.6316 58.3294C55.6316 53.9759 53.4861 50.9764 50.4033 47.5811L43.6127 40.4573C42.8629 39.6657 41.6339 39.6449 40.8632 40.374L34.0935 46.7896C33.1769 47.6436 32.3438 48.6018 31.6355 49.6224C29.6775 52.3928 28.5944 54.6216 28.4277 57.5795C28.3861 57.642 28.3861 57.6836 28.3861 57.7253Z" fill="white"/>
<path d="M42.0099 39.8324C43.6205 39.8324 44.9261 38.5268 44.9261 36.9162C44.9261 35.3056 43.6205 34 42.0099 34C40.3994 34 39.0938 35.3056 39.0938 36.9162C39.0938 38.5268 40.3994 39.8324 42.0099 39.8324Z" fill="white"/>
</g>
<defs>
<clipPath id="clip0_1941_6808">
<rect width="44" height="44" fill="white" transform="translate(28 28)"/>
</clipPath>
</defs>
</svg>
