<svg width="130" height="130" viewBox="0 0 130 130" fill="none" xmlns="http://www.w3.org/2000/svg">
<g filter="url(#filter0_d_1953_6410)">
<rect x="25" y="20" width="80" height="80" rx="40" fill="#00756A" shape-rendering="crispEdges"/>
<rect x="25" y="20" width="80" height="80" rx="40" stroke="#85A4A9" stroke-opacity="0.25" stroke-width="1.5" shape-rendering="crispEdges"/>
</g>
<path d="M62.4015 40C62.5199 42.5979 63.3914 44.935 65.1022 46.9487C65.9415 47.9399 66.8561 48.8685 67.7922 49.8909C68.6853 48.4407 69.0618 46.98 69.0618 45.3419C69.6321 45.728 70.1486 46.0618 70.6435 46.427C74.0329 48.9206 76.8304 51.9255 78.7672 55.6294C80.3704 58.6968 81.016 61.9729 80.7685 65.4055C80.4673 69.5998 78.7995 73.168 75.5608 75.9955C73.1291 78.1239 70.267 79.376 67.0175 79.8455C58.9153 81.0036 50.6626 75.5156 48.6074 67.9722C47.9834 65.6872 47.8758 63.3606 48.1232 61.013C48.7365 55.1598 51.405 50.2457 55.3861 45.9158C57.3336 43.7978 59.4856 41.9093 61.9066 40.313C62.0464 40.2191 62.1756 40.1043 62.3154 40.0104C62.3477 40 62.38 40 62.4015 40ZM64.3921 52.6767C63.4345 53.5009 62.4876 54.273 61.5945 55.0868C59.335 57.1735 57.3444 59.4584 55.9887 62.2129C54.9665 64.2683 54.4608 66.4071 54.8158 68.7129C55.483 72.9385 59.2381 76.3711 63.6712 76.6215C67.7492 76.8511 70.9018 75.1921 72.9246 71.7595C74.6139 68.8903 74.4848 65.875 73.1613 62.9119C71.2784 58.6864 68.0397 55.5668 64.3921 52.6767Z" fill="white"/>
<path d="M58.615 71.5401C57.4422 70.0273 56.9365 68.3371 57.1302 66.459C57.3884 63.9967 58.5612 61.9205 60.0676 59.9798C61.2512 58.4566 62.6284 57.1106 64.124 55.869C64.2747 55.7438 64.393 55.5978 64.6298 55.796C66.9108 57.7158 68.966 59.8338 70.397 62.4421C71.247 63.9967 71.7958 65.6452 71.742 67.4398C71.699 68.9631 71.1825 70.3299 70.2464 71.5088C70.1173 70.7994 70.0527 70.069 69.8483 69.37C69.4932 68.1388 68.783 67.085 67.9653 66.0834C66.9431 64.821 65.7488 63.715 64.4253 62.7134C63.0911 63.7046 61.9075 64.821 60.8746 66.0939C60.0138 67.1476 59.2714 68.2745 58.927 69.5995C58.7656 70.2255 58.7118 70.8828 58.615 71.5401Z" fill="white"/>
<path d="M64.4249 65.6562C65.8237 66.9187 67.0611 68.2333 67.5883 70.0279C68.1263 71.885 67.1471 73.6796 65.3503 74.1804C63.1875 74.7855 61.0356 73.1997 61.1216 71.0191C61.1432 70.393 61.3261 69.7357 61.5843 69.1515C62.1976 67.7742 63.2413 66.6892 64.4249 65.6562Z" fill="white"/>
<defs>
<filter id="filter0_d_1953_6410" x="0.25" y="0.25" width="129.5" height="129.5" filterUnits="userSpaceOnUse" color-interpolation-filters="sRGB">
<feFlood flood-opacity="0" result="BackgroundImageFix"/>
<feColorMatrix in="SourceAlpha" type="matrix" values="0 0 0 0 0 0 0 0 0 0 0 0 0 0 0 0 0 0 127 0" result="hardAlpha"/>
<feOffset dy="5"/>
<feGaussianBlur stdDeviation="12"/>
<feComposite in2="hardAlpha" operator="out"/>
<feColorMatrix type="matrix" values="0 0 0 0 0 0 0 0 0 0.478431 0 0 0 0 1 0 0 0 0.15 0"/>
<feBlend mode="normal" in2="BackgroundImageFix" result="effect1_dropShadow_1953_6410"/>
<feBlend mode="normal" in="SourceGraphic" in2="effect1_dropShadow_1953_6410" result="shape"/>
</filter>
</defs>
</svg>
