<svg width="40" height="40" viewBox="0 0 40 40" fill="none" xmlns="http://www.w3.org/2000/svg">
<g clip-path="url(#clip0_1958_6487)">
<path d="M23.8281 20C23.8281 22.1143 22.1142 23.8281 20 23.8281C17.8858 23.8281 16.1719 22.1142 16.1719 20C16.1719 17.8858 17.8858 16.1719 20 16.1719C22.1142 16.1719 23.8281 17.8858 23.8281 20Z" fill="white"/>
<path d="M28.952 13.2269C28.7679 12.7281 28.4743 12.2768 28.0929 11.9064C27.7225 11.5249 27.2712 11.2313 26.7723 11.0473C26.3677 10.8902 25.7598 10.7031 24.6401 10.6521C23.4288 10.5969 23.0657 10.585 19.9993 10.585C16.9326 10.585 16.5695 10.5966 15.3585 10.6518C14.2388 10.7031 13.6305 10.8901 13.2262 11.0473C12.7273 11.2312 12.2761 11.5248 11.9057 11.9064C11.5242 12.2768 11.2306 12.7281 11.0463 13.2269C10.8892 13.6316 10.7021 14.2398 10.6512 15.3595C10.5959 16.5704 10.584 16.9336 10.584 20.0003C10.584 23.0667 10.5959 23.4298 10.6512 24.6411C10.7021 25.7607 10.8892 26.3687 11.0463 26.7733C11.2305 27.2721 11.524 27.7234 11.9054 28.0939C12.2758 28.4754 12.7271 28.7689 13.2259 28.9529C13.6306 29.1103 14.2388 29.2975 15.3585 29.3484C16.5695 29.4036 16.9323 29.4153 19.999 29.4153C23.066 29.4153 23.4291 29.4036 24.6398 29.3484C25.7595 29.2975 26.3677 29.1103 26.7723 28.9529C27.2677 28.7619 27.7175 28.4692 28.0929 28.0938C28.4683 27.7185 28.7609 27.2686 28.952 26.7733C29.1091 26.3686 29.2962 25.7608 29.3474 24.6411C29.4027 23.4298 29.4143 23.0667 29.4143 20.0003C29.4143 16.9336 29.4027 16.5704 29.3474 15.3595C29.2965 14.2398 29.1094 13.6315 28.952 13.2269ZM19.9993 25.8972C16.7422 25.8972 14.1018 23.2571 14.1018 20C14.1018 16.7429 16.7422 14.1028 19.9993 14.1028C23.2562 14.1028 25.8965 16.7429 25.8965 20C25.8965 23.2571 23.2562 25.8972 19.9993 25.8972ZM26.1297 15.2478C25.3686 15.2478 24.7516 14.6307 24.7516 13.8696C24.7516 13.1086 25.3686 12.4914 26.1297 12.4914C26.8908 12.4914 27.5078 13.1085 27.5078 13.8696C27.5075 14.6307 26.8908 15.2478 26.1297 15.2478Z" fill="white"/>
<path d="M20 0C8.95601 0 0 8.95601 0 20C0 31.044 8.95601 40 20 40C31.044 40 40 31.044 40 20C40 8.95601 31.044 0 20 0ZM31.4151 24.7348C31.3596 25.9573 31.1652 26.792 30.8813 27.5226C30.5863 28.2855 30.1351 28.9783 29.5567 29.5567C28.9783 30.1351 28.2855 30.5863 27.5226 30.8813C26.7923 31.1652 25.9573 31.3592 24.7351 31.4151C23.5105 31.4709 23.1192 31.4844 20.0003 31.4844C16.8811 31.4844 16.4902 31.4709 15.2652 31.4151C14.043 31.3592 13.208 31.1652 12.4777 30.8813C11.7113 30.593 11.017 30.1409 10.4434 29.5566C9.85928 28.983 9.40729 28.2888 9.11898 27.5226C8.83516 26.7923 8.64078 25.9573 8.58523 24.7351C8.52875 23.5101 8.51562 23.1189 8.51562 20C8.51562 16.8811 8.52875 16.4898 8.58492 15.2652C8.64039 14.0427 8.83453 13.208 9.11836 12.4774C9.40675 11.7111 9.85894 11.0169 10.4434 10.4434C11.0169 9.85908 11.7111 9.40696 12.4774 9.11867C13.208 8.83484 14.0427 8.64078 15.2652 8.58492C16.4898 8.52906 16.8811 8.51562 20 8.51562C23.1189 8.51562 23.5102 8.52906 24.7348 8.58516C25.9573 8.64078 26.792 8.83484 27.5226 9.11836C28.289 9.40681 28.9833 9.85899 29.557 10.4434C30.1411 11.017 30.5931 11.7111 30.8813 12.4774C31.1655 13.208 31.3595 14.0427 31.4154 15.2652C31.4713 16.4898 31.4844 16.8811 31.4844 20C31.4844 23.1189 31.4713 23.5102 31.4151 24.7348Z" fill="white"/>
</g>
<defs>
<clipPath id="clip0_1958_6487">
<rect width="40" height="40" fill="white"/>
</clipPath>
</defs>
</svg>
