<svg width="224" height="70" viewBox="0 0 224 70" fill="none" xmlns="http://www.w3.org/2000/svg">
<rect width="224" height="70" rx="20" fill="#23262F"/>
<path d="M71.2578 23V12.6367H74.0469C74.8079 12.6367 75.5234 12.7575 76.1934 12.999C76.8633 13.2406 77.4466 13.5824 77.9434 14.0244C78.4447 14.4619 78.8389 15.0111 79.126 15.6719C79.4176 16.3327 79.5635 17.0573 79.5635 17.8457C79.5635 18.6296 79.4199 19.3473 79.1328 19.999C78.8457 20.6507 78.4515 21.1953 77.9502 21.6328C77.4535 22.0658 76.8678 22.403 76.1934 22.6445C75.5189 22.8815 74.7943 23 74.0195 23H71.2578ZM72.2969 22.0635H73.8896C74.5596 22.0635 75.1725 21.9769 75.7285 21.8037C76.2845 21.6305 76.7721 21.3753 77.1914 21.0381C77.6107 20.7008 77.9365 20.2611 78.1689 19.7188C78.4059 19.1764 78.5244 18.5566 78.5244 17.8594C78.5244 17.2578 78.4355 16.7155 78.2578 16.2324C78.0801 15.7448 77.8385 15.3392 77.5332 15.0156C77.2279 14.6875 76.8633 14.4141 76.4395 14.1953C76.0156 13.9766 75.5645 13.8193 75.0859 13.7236C74.6074 13.6279 74.097 13.5801 73.5547 13.5801H72.2969V22.0635ZM80.6777 19.7256C80.6777 19.1104 80.8281 18.5339 81.1289 17.9961C81.4342 17.4583 81.8535 17.0299 82.3867 16.7109C82.9199 16.3874 83.4987 16.2256 84.123 16.2256C84.5924 16.2256 85.0413 16.319 85.4697 16.5059C85.9027 16.6927 86.2741 16.9434 86.584 17.2578C86.8939 17.5723 87.1423 17.9437 87.3291 18.3721C87.516 18.8005 87.6094 19.2471 87.6094 19.7119C87.6094 20.1813 87.516 20.6302 87.3291 21.0586C87.1423 21.487 86.8916 21.8561 86.5771 22.166C86.2673 22.4759 85.8981 22.7243 85.4697 22.9111C85.0459 23.0934 84.6016 23.1846 84.1367 23.1846C83.5215 23.1846 82.9473 23.0319 82.4141 22.7266C81.8854 22.4167 81.4639 21.9951 81.1494 21.4619C80.835 20.9287 80.6777 20.3499 80.6777 19.7256ZM82.3594 17.8867C81.8809 18.4062 81.6416 19.0192 81.6416 19.7256C81.6416 20.432 81.8831 21.0381 82.3662 21.5439C82.8493 22.0498 83.444 22.3027 84.1504 22.3027C84.8613 22.3027 85.4538 22.0452 85.9277 21.5303C86.4062 21.0153 86.6455 20.4046 86.6455 19.6982C86.6455 18.9827 86.4017 18.3721 85.9141 17.8662C85.4264 17.3604 84.834 17.1074 84.1367 17.1074C83.4303 17.1074 82.8379 17.3672 82.3594 17.8867ZM88.3066 16.3486H89.3594L91.4443 21.7832L93.3926 16.3486H94.3701L96.3184 21.7832L98.4033 16.3486H99.4561L96.8379 23H95.7578L93.8848 17.668L92.0049 23H90.9248L88.3066 16.3486ZM100.789 23V16.3486H101.767V17.2852C102.026 16.9115 102.323 16.6426 102.655 16.4785C102.993 16.3099 103.403 16.2256 103.886 16.2256C104.756 16.2256 105.433 16.4831 105.916 16.998C106.399 17.513 106.641 18.2809 106.641 19.3018V23H105.663V19.582C105.663 19.2083 105.636 18.8825 105.581 18.6045C105.526 18.3265 105.431 18.069 105.294 17.832C105.162 17.5951 104.968 17.415 104.713 17.292C104.462 17.1689 104.152 17.1074 103.783 17.1074C103.469 17.1074 103.191 17.1553 102.949 17.251C102.712 17.3421 102.519 17.4674 102.368 17.627C102.222 17.7865 102.102 17.9847 102.006 18.2217C101.915 18.4541 101.851 18.6956 101.814 18.9463C101.783 19.1969 101.767 19.4795 101.767 19.7939V23H100.789ZM108.883 21.3867V12.6367H109.86V20.9287C109.86 21.43 109.926 21.7832 110.059 21.9883C110.195 22.1888 110.439 22.2891 110.79 22.2891C110.918 22.2891 111.048 22.2777 111.18 22.2549V23.082C110.924 23.1504 110.688 23.1846 110.469 23.1846C109.986 23.1846 109.601 23.0296 109.313 22.7197C109.026 22.4098 108.883 21.9655 108.883 21.3867ZM111.932 19.7256C111.932 19.1104 112.082 18.5339 112.383 17.9961C112.688 17.4583 113.107 17.0299 113.641 16.7109C114.174 16.3874 114.753 16.2256 115.377 16.2256C115.846 16.2256 116.295 16.319 116.724 16.5059C117.157 16.6927 117.528 16.9434 117.838 17.2578C118.148 17.5723 118.396 17.9437 118.583 18.3721C118.77 18.8005 118.863 19.2471 118.863 19.7119C118.863 20.1813 118.77 20.6302 118.583 21.0586C118.396 21.487 118.146 21.8561 117.831 22.166C117.521 22.4759 117.152 22.7243 116.724 22.9111C116.3 23.0934 115.855 23.1846 115.391 23.1846C114.775 23.1846 114.201 23.0319 113.668 22.7266C113.139 22.4167 112.718 21.9951 112.403 21.4619C112.089 20.9287 111.932 20.3499 111.932 19.7256ZM113.613 17.8867C113.135 18.4062 112.896 19.0192 112.896 19.7256C112.896 20.432 113.137 21.0381 113.62 21.5439C114.103 22.0498 114.698 22.3027 115.404 22.3027C116.115 22.3027 116.708 22.0452 117.182 21.5303C117.66 21.0153 117.899 20.4046 117.899 19.6982C117.899 18.9827 117.656 18.3721 117.168 17.8662C116.68 17.3604 116.088 17.1074 115.391 17.1074C114.684 17.1074 114.092 17.3672 113.613 17.8867ZM120.121 19.7119C120.121 18.7184 120.461 17.889 121.14 17.2236C121.819 16.5583 122.655 16.2256 123.648 16.2256C124.195 16.2256 124.688 16.3372 125.125 16.5605C125.567 16.7839 125.934 17.1143 126.226 17.5518V16.3486H127.203V23H126.226V21.8652C125.629 22.7448 124.765 23.1846 123.635 23.1846C122.979 23.1846 122.382 23.0342 121.844 22.7334C121.311 22.4326 120.889 22.0179 120.579 21.4893C120.274 20.9561 120.121 20.3636 120.121 19.7119ZM121.085 19.7256C121.085 20.4684 121.322 21.0837 121.796 21.5713C122.274 22.0589 122.883 22.3027 123.621 22.3027C124.368 22.3027 124.979 22.0544 125.453 21.5576C125.932 21.0609 126.171 20.4502 126.171 19.7256C126.171 18.9964 125.932 18.3789 125.453 17.873C124.975 17.3626 124.364 17.1074 123.621 17.1074C122.892 17.1074 122.286 17.3581 121.803 17.8594C121.324 18.3561 121.085 18.9782 121.085 19.7256ZM129.021 19.7119C129.021 18.7184 129.361 17.889 130.04 17.2236C130.719 16.5583 131.555 16.2256 132.549 16.2256C133.096 16.2256 133.588 16.3372 134.025 16.5605C134.467 16.7839 134.834 17.1143 135.126 17.5518V12.6367H136.104V23H135.126V21.8652C134.529 22.7448 133.665 23.1846 132.535 23.1846C131.879 23.1846 131.282 23.0342 130.744 22.7334C130.211 22.4326 129.789 22.0179 129.479 21.4893C129.174 20.9561 129.021 20.3636 129.021 19.7119ZM129.985 19.7256C129.985 20.4684 130.222 21.0837 130.696 21.5713C131.175 22.0589 131.783 22.3027 132.521 22.3027C133.269 22.3027 133.88 22.0544 134.354 21.5576C134.832 21.0609 135.071 20.4502 135.071 19.7256C135.071 18.9964 134.832 18.3789 134.354 17.873C133.875 17.3626 133.264 17.1074 132.521 17.1074C131.792 17.1074 131.186 17.3581 130.703 17.8594C130.225 18.3561 129.985 18.9782 129.985 19.7256ZM141.695 19.7256C141.695 19.1104 141.846 18.5339 142.146 17.9961C142.452 17.4583 142.871 17.0299 143.404 16.7109C143.938 16.3874 144.516 16.2256 145.141 16.2256C145.61 16.2256 146.059 16.319 146.487 16.5059C146.92 16.6927 147.292 16.9434 147.602 17.2578C147.911 17.5723 148.16 17.9437 148.347 18.3721C148.534 18.8005 148.627 19.2471 148.627 19.7119C148.627 20.1813 148.534 20.6302 148.347 21.0586C148.16 21.487 147.909 21.8561 147.595 22.166C147.285 22.4759 146.916 22.7243 146.487 22.9111C146.063 23.0934 145.619 23.1846 145.154 23.1846C144.539 23.1846 143.965 23.0319 143.432 22.7266C142.903 22.4167 142.481 21.9951 142.167 21.4619C141.853 20.9287 141.695 20.3499 141.695 19.7256ZM143.377 17.8867C142.898 18.4062 142.659 19.0192 142.659 19.7256C142.659 20.432 142.901 21.0381 143.384 21.5439C143.867 22.0498 144.462 22.3027 145.168 22.3027C145.879 22.3027 146.471 22.0452 146.945 21.5303C147.424 21.0153 147.663 20.4046 147.663 19.6982C147.663 18.9827 147.419 18.3721 146.932 17.8662C146.444 17.3604 145.852 17.1074 145.154 17.1074C144.448 17.1074 143.855 17.3672 143.377 17.8867ZM150.445 23V16.3486H151.423V17.2852C151.683 16.9115 151.979 16.6426 152.312 16.4785C152.649 16.3099 153.059 16.2256 153.542 16.2256C154.412 16.2256 155.089 16.4831 155.572 16.998C156.055 17.513 156.297 18.2809 156.297 19.3018V23H155.319V19.582C155.319 19.2083 155.292 18.8825 155.237 18.6045C155.183 18.3265 155.087 18.069 154.95 17.832C154.818 17.5951 154.624 17.415 154.369 17.292C154.118 17.1689 153.809 17.1074 153.439 17.1074C153.125 17.1074 152.847 17.1553 152.605 17.251C152.368 17.3421 152.175 17.4674 152.024 17.627C151.879 17.7865 151.758 17.9847 151.662 18.2217C151.571 18.4541 151.507 18.6956 151.471 18.9463C151.439 19.1969 151.423 19.4795 151.423 19.7939V23H150.445ZM161.198 17.2305V16.3486H162.244V14.0928H163.229V16.3486H165.074V17.2305H163.229V20.9287C163.229 21.43 163.295 21.7832 163.427 21.9883C163.559 22.1888 163.8 22.2891 164.151 22.2891C164.397 22.2891 164.648 22.2458 164.903 22.1592V23.041C164.607 23.1367 164.309 23.1846 164.008 23.1846C162.832 23.1846 162.244 22.5853 162.244 21.3867V17.2305H161.198ZM166.469 23V12.6367H167.446V17.2852C167.706 16.9115 168.002 16.6426 168.335 16.4785C168.672 16.3099 169.082 16.2256 169.565 16.2256C170.436 16.2256 171.113 16.4831 171.596 16.998C172.079 17.513 172.32 18.2809 172.32 19.3018V23H171.343V19.582C171.343 19.2083 171.315 18.8825 171.261 18.6045C171.206 18.3265 171.11 18.069 170.974 17.832C170.841 17.5951 170.648 17.415 170.393 17.292C170.142 17.1689 169.832 17.1074 169.463 17.1074C169.148 17.1074 168.87 17.1553 168.629 17.251C168.392 17.3421 168.198 17.4674 168.048 17.627C167.902 17.7865 167.781 17.9847 167.686 18.2217C167.594 18.4541 167.531 18.6956 167.494 18.9463C167.462 19.1969 167.446 19.4795 167.446 19.7939V23H166.469ZM174.002 19.7119C174.002 19.0967 174.15 18.5225 174.446 17.9893C174.743 17.4561 175.153 17.0299 175.677 16.7109C176.205 16.3874 176.786 16.2256 177.42 16.2256C177.894 16.2256 178.343 16.3213 178.767 16.5127C179.19 16.6995 179.55 16.9502 179.847 17.2646C180.147 17.5791 180.384 17.9505 180.558 18.3789C180.735 18.8073 180.824 19.2516 180.824 19.7119V20.0742H175C175.082 20.6986 175.353 21.2272 175.813 21.6602C176.278 22.0885 176.827 22.3027 177.461 22.3027C177.876 22.3027 178.268 22.2048 178.637 22.0088C179.006 21.8128 179.304 21.5508 179.532 21.2227L180.264 21.7422C179.945 22.1888 179.539 22.542 179.047 22.8018C178.559 23.057 178.035 23.1846 177.475 23.1846C176.855 23.1846 176.278 23.0319 175.745 22.7266C175.212 22.4167 174.788 21.9951 174.474 21.4619C174.159 20.9287 174.002 20.3454 174.002 19.7119ZM175.014 19.1924H179.812C179.712 18.5954 179.443 18.0986 179.006 17.7021C178.568 17.3057 178.04 17.1074 177.42 17.1074C176.8 17.1074 176.274 17.3057 175.841 17.7021C175.408 18.0941 175.132 18.5908 175.014 19.1924Z" fill="white"/>
<path d="M70.7148 42.1641C70.7148 40.9102 70.9492 39.7148 71.418 38.5781C71.8867 37.4531 72.5312 36.4688 73.3516 35.6367C74.1719 34.8164 75.1562 34.1602 76.3047 33.668C77.4531 33.1758 78.6836 32.9297 79.9844 32.9297C81.2852 32.9297 82.5156 33.1758 83.6641 33.6562C84.8125 34.1484 85.8086 34.8164 86.6758 35.6836L84.7891 37.8516C84.1797 37.1484 83.4531 36.6328 82.6328 36.3047C81.8008 35.9766 80.957 35.8125 80.1016 35.8125C78.9062 35.8125 77.8398 36.1055 76.8789 36.6914C75.918 37.2773 75.168 38.0508 74.6406 39.0117C74.1016 39.9727 73.8438 41.0273 73.8438 42.1641C73.8438 43.9219 74.4414 45.4102 75.6484 46.6172C76.8438 47.8359 78.3555 48.4336 80.1719 48.4336C81.5312 48.4336 82.6562 48.0586 83.5234 47.2852C84.3906 46.5234 84.9062 45.3516 85.0469 43.7812H79.457V40.7578H88.1641V42.7969C88.1641 43.957 87.9883 45.0469 87.6484 46.0547C87.3086 47.0742 86.8164 47.9766 86.1602 48.7617C85.5039 49.5586 84.6719 50.1797 83.6406 50.6367C82.6094 51.0938 81.4375 51.3164 80.1484 51.3164C78.8359 51.3164 77.5938 51.082 76.4219 50.6133C75.25 50.1445 74.2539 49.5 73.4219 48.6797C72.5898 47.8711 71.9336 46.8984 71.4414 45.7617C70.9492 44.6367 70.7148 43.4297 70.7148 42.1641ZM90.5781 45.3398C90.5781 43.6875 91.1641 42.2812 92.3359 41.1211C93.5078 39.9727 94.9375 39.3867 96.625 39.3867C97.7266 39.3867 98.7461 39.6562 99.6836 40.1836C100.621 40.7109 101.348 41.4258 101.887 42.3398C102.426 43.2539 102.695 44.2617 102.695 45.3398C102.695 46.418 102.426 47.4258 101.887 48.3398C101.348 49.2539 100.621 49.9805 99.6836 50.5195C98.7461 51.0586 97.7266 51.3164 96.625 51.3164C95.5234 51.3164 94.5039 51.0586 93.5781 50.5195C92.6406 49.9805 91.9141 49.2539 91.375 48.3398C90.8359 47.4258 90.5781 46.418 90.5781 45.3398ZM93.4727 45.3398C93.4727 46.1953 93.7773 46.9336 94.3984 47.5547C95.0195 48.1758 95.7578 48.4805 96.625 48.4805C97.4922 48.4805 98.2422 48.1758 98.8633 47.5547C99.4727 46.9336 99.7891 46.1953 99.7891 45.3398C99.7891 44.4961 99.4727 43.7695 98.8633 43.1484C98.2422 42.5273 97.4922 42.2109 96.625 42.2109C95.7578 42.2109 95.0195 42.5273 94.3984 43.1484C93.7773 43.7695 93.4727 44.4961 93.4727 45.3398ZM104.617 45.3398C104.617 43.6875 105.203 42.2812 106.375 41.1211C107.547 39.9727 108.977 39.3867 110.664 39.3867C111.766 39.3867 112.785 39.6562 113.723 40.1836C114.66 40.7109 115.387 41.4258 115.926 42.3398C116.465 43.2539 116.734 44.2617 116.734 45.3398C116.734 46.418 116.465 47.4258 115.926 48.3398C115.387 49.2539 114.66 49.9805 113.723 50.5195C112.785 51.0586 111.766 51.3164 110.664 51.3164C109.562 51.3164 108.543 51.0586 107.617 50.5195C106.68 49.9805 105.953 49.2539 105.414 48.3398C104.875 47.4258 104.617 46.418 104.617 45.3398ZM107.512 45.3398C107.512 46.1953 107.816 46.9336 108.438 47.5547C109.059 48.1758 109.797 48.4805 110.664 48.4805C111.531 48.4805 112.281 48.1758 112.902 47.5547C113.512 46.9336 113.828 46.1953 113.828 45.3398C113.828 44.4961 113.512 43.7695 112.902 43.1484C112.281 42.5273 111.531 42.2109 110.664 42.2109C109.797 42.2109 109.059 42.5273 108.438 43.1484C107.816 43.7695 107.512 44.4961 107.512 45.3398ZM118.656 45.3398C118.656 43.6875 119.242 42.2812 120.414 41.1211C121.586 39.9727 123.016 39.3867 124.703 39.3867C125.922 39.3867 126.977 39.7383 127.867 40.4414V39.5977H130.82V50.1797C130.82 51.0234 130.738 51.7969 130.586 52.4766C130.434 53.168 130.234 53.7422 130 54.2109C129.754 54.6797 129.461 55.1016 129.109 55.4531C128.758 55.8047 128.395 56.0859 128.043 56.2852C127.691 56.4844 127.305 56.6484 126.883 56.7656C126.461 56.8945 126.074 56.9766 125.746 57.0117C125.406 57.0586 125.055 57.0703 124.703 57.0703C123.625 57.0703 122.641 56.8242 121.738 56.3086C120.824 55.8047 120.109 55.125 119.57 54.2695L122.277 53.0859C122.57 53.4375 122.934 53.7188 123.355 53.9297C123.777 54.1406 124.234 54.2344 124.703 54.2344C125.664 54.2344 126.426 53.9648 127 53.4258C127.574 52.8867 127.867 51.9961 127.867 50.7656V50.2617C127 50.9648 125.945 51.3164 124.703 51.3164C123.602 51.3164 122.582 51.0586 121.656 50.5195C120.719 49.9805 119.992 49.2539 119.453 48.3398C118.914 47.4258 118.656 46.418 118.656 45.3398ZM121.551 45.3398C121.551 46.1953 121.855 46.9336 122.477 47.5547C123.098 48.1758 123.836 48.4805 124.703 48.4805C125.57 48.4805 126.32 48.1758 126.941 47.5547C127.551 46.9336 127.867 46.1953 127.867 45.3398C127.867 44.4961 127.551 43.7695 126.941 43.1484C126.32 42.5273 125.57 42.2109 124.703 42.2109C123.836 42.2109 123.098 42.5273 122.477 43.1484C121.855 43.7695 121.551 44.4961 121.551 45.3398ZM134.43 47.9531V33.2344H137.383V47.2852C137.383 47.707 137.465 48.0234 137.641 48.2227C137.805 48.4336 138.133 48.5273 138.625 48.5273C138.812 48.5273 138.965 48.5273 139.082 48.5039V51.1172C138.59 51.2578 138.168 51.3164 137.805 51.3164C136.715 51.3164 135.883 51.0352 135.297 50.4492C134.711 49.8633 134.43 49.0312 134.43 47.9531ZM140.266 45.4102C140.266 44.6133 140.395 43.8398 140.676 43.1133C140.957 42.3867 141.344 41.7422 141.848 41.1914C142.34 40.6406 142.961 40.207 143.711 39.8789C144.461 39.5508 145.27 39.3867 146.16 39.3867C147.25 39.3867 148.234 39.668 149.125 40.207C150.004 40.7578 150.684 41.4844 151.176 42.3867C151.656 43.2891 151.902 44.2734 151.902 45.3398C151.902 45.6797 151.879 45.9961 151.832 46.2773H143.137C143.301 47.0039 143.664 47.5781 144.227 48C144.789 48.4336 145.48 48.6445 146.312 48.6445C146.852 48.6445 147.379 48.5391 147.883 48.3281C148.375 48.1172 148.785 47.8008 149.113 47.3789L151.129 48.9844C150.613 49.7109 149.922 50.2852 149.078 50.6953C148.223 51.1172 147.309 51.3164 146.336 51.3164C145.211 51.3164 144.18 51.0586 143.254 50.543C142.316 50.0273 141.59 49.3242 141.062 48.4102C140.523 47.5078 140.266 46.5117 140.266 45.4102ZM143.242 44.1094H148.926C148.832 43.5352 148.527 43.0547 148 42.6562C147.461 42.2695 146.84 42.0703 146.137 42.0703C145.457 42.0703 144.859 42.2578 144.344 42.6328C143.828 43.0078 143.453 43.5 143.242 44.1094ZM161.125 51V33.2344H167.406C168.426 33.2344 169.328 33.3984 170.125 33.7031C170.922 34.0195 171.555 34.4531 172.047 34.9922C172.527 35.543 172.891 36.1641 173.137 36.8672C173.383 37.5703 173.512 38.3203 173.512 39.1406C173.512 39.9609 173.383 40.7227 173.137 41.4258C172.891 42.1289 172.527 42.7617 172.047 43.3125C171.555 43.8633 170.922 44.2969 170.125 44.6016C169.328 44.918 168.426 45.0703 167.406 45.0703H164.266V51H161.125ZM164.266 42.0469H167.406C168.391 42.0469 169.141 41.7773 169.633 41.2383C170.125 40.6992 170.383 40.0078 170.383 39.1641C170.383 38.3203 170.125 37.6172 169.633 37.0781C169.141 36.5391 168.391 36.2695 167.406 36.2695H164.266V42.0469ZM175.797 47.9531V33.2344H178.75V47.2852C178.75 47.707 178.832 48.0234 179.008 48.2227C179.172 48.4336 179.5 48.5273 179.992 48.5273C180.18 48.5273 180.332 48.5273 180.449 48.5039V51.1172C179.957 51.2578 179.535 51.3164 179.172 51.3164C178.082 51.3164 177.25 51.0352 176.664 50.4492C176.078 49.8633 175.797 49.0312 175.797 47.9531ZM181.633 45.3398C181.633 43.6875 182.219 42.2812 183.391 41.1211C184.562 39.9727 185.992 39.3867 187.68 39.3867C188.898 39.3867 189.953 39.7383 190.844 40.4414V39.5977H193.797V51H190.844V50.2617C189.977 50.9648 188.922 51.3164 187.68 51.3164C186.578 51.3164 185.559 51.0586 184.633 50.5195C183.695 49.9805 182.969 49.2539 182.43 48.3398C181.891 47.4258 181.633 46.418 181.633 45.3398ZM184.527 45.3398C184.527 46.1953 184.832 46.9336 185.453 47.5547C186.074 48.1758 186.812 48.4805 187.68 48.4805C188.547 48.4805 189.297 48.1758 189.918 47.5547C190.527 46.9336 190.844 46.1953 190.844 45.3398C190.844 44.4961 190.527 43.7695 189.918 43.1484C189.297 42.5273 188.547 42.2109 187.68 42.2109C186.812 42.2109 186.074 42.5273 185.453 43.1484C184.832 43.7695 184.527 44.4961 184.527 45.3398ZM195.836 39.5977H199.105L201.965 47.4727L204.789 39.5977H207.695L201.391 57.0703H198.508L200.57 51.3164L195.836 39.5977Z" fill="white"/>
<path d="M52.9688 32.001L46.1948 28.0885L39.2598 35.0235L46.1943 41.958L52.9918 38.0325C54.0518 37.3885 54.6843 36.2635 54.6843 35.0235C54.6843 33.7835 54.0513 32.6585 52.9688 32.001Z" fill="#FFCE00"/>
<path d="M39.26 35.0235L20.3705 15.998C20.0357 16.3296 19.77 16.7243 19.5888 17.1593C19.4075 17.5942 19.3143 18.0608 19.3145 18.532V51.457C19.3145 52.4425 19.7135 53.334 20.3705 53.9915L39.26 35.0235Z" fill="url(#paint0_linear_2807_4748)"/>
<path d="M39.2606 35.0235L46.1956 28.0885L46.2066 28.0775L36.9146 22.7275L24.6656 15.5285C23.5626 14.848 22.2251 14.8245 21.0986 15.458C20.8406 15.622 20.6056 15.7865 20.3711 15.9975L39.2606 35.0235Z" fill="#00F076"/>
<path d="M20.3711 53.991C20.6056 54.202 20.8406 54.3665 21.0986 54.5305C21.6616 54.8355 22.2486 55 22.8351 55C23.4686 55 24.0786 54.8125 24.6421 54.484L36.9141 47.3195L46.2061 41.9695L46.1951 41.9585L39.2606 35.0235L20.3711 53.991Z" fill="#F63448"/>
<defs>
<linearGradient id="paint0_linear_2807_4748" x1="10.8725" y1="44.493" x2="29.869" y2="25.496" gradientUnits="userSpaceOnUse">
<stop stop-color="#00E2FF"/>
<stop offset="1" stop-color="#00C5FF"/>
</linearGradient>
</defs>
</svg>
