<svg width="128" height="128" viewBox="0 0 128 128" fill="none" xmlns="http://www.w3.org/2000/svg">
<g filter="url(#filter0_d_1961_7332)">
<rect x="24" y="19" width="80" height="80" rx="40" fill="white"/>
</g>
<path d="M78.142 42.1006C77.6843 41.6428 76.9424 41.643 76.4847 42.1006C76.0271 42.5582 76.0271 43.3002 76.4848 43.7578C79.8197 47.0926 81.6562 51.5265 81.6562 56.2428C81.6562 56.8899 82.181 57.4146 82.8281 57.4146C83.4754 57.4146 84 56.8899 84 56.2428C84 50.9004 81.9196 45.878 78.142 42.1006ZM51.5151 42.1006C51.0573 41.6429 50.3155 41.6431 49.8577 42.1006C46.0804 45.8783 44 50.9006 44 56.2428C44 56.8899 44.5247 57.4146 45.1719 57.4146C45.8191 57.4146 46.3438 56.8899 46.3438 56.2428C46.3438 51.5267 48.1803 47.0928 51.5151 43.7579C51.9727 43.3003 51.9727 42.5583 51.5151 42.1006ZM72.9341 45.6505C72.4766 46.1081 72.4766 46.8501 72.9342 47.3078C75.3209 49.6943 76.6353 52.8674 76.6353 56.2428C76.6353 56.8899 77.1601 57.4146 77.8072 57.4146C78.4545 57.4146 78.9791 56.8899 78.9791 56.2428C78.9791 52.2413 77.4209 48.4796 74.5915 45.6504C74.1338 45.1928 73.3918 45.1929 72.9341 45.6505ZM55.0652 45.651C54.6075 45.1935 53.8655 45.1935 53.4079 45.6511C50.5788 48.4805 49.0208 52.242 49.0208 56.2428C49.0208 56.8899 49.5455 57.4146 50.1927 57.4146C50.8399 57.4146 51.3645 56.8899 51.3645 56.2428C51.3645 52.868 52.6788 49.6949 55.0652 47.3084C55.5228 46.8506 55.5228 46.1086 55.0652 45.651ZM73.9584 64.7526V58.7531C73.9584 56.5649 73.2616 54.4884 71.9436 52.7481C70.8419 51.2938 69.3395 50.1575 67.6515 49.4889C67.4164 47.6833 65.8686 46.2844 64 46.2844C62.1314 46.2844 60.5834 47.6833 60.3485 49.4889C58.6605 50.1575 57.1581 51.2938 56.0565 52.7481C54.7384 54.4884 54.0416 56.5649 54.0416 58.7531V64.7526L51.655 69.526C51.5657 69.7046 51.5235 69.9032 51.5325 70.1027C51.5415 70.3022 51.6013 70.4962 51.7063 70.6661C51.8113 70.836 51.958 70.9763 52.1325 71.0735C52.3069 71.1708 52.5034 71.2219 52.7031 71.2219H75.2969C75.4966 71.2219 75.6931 71.1709 75.8676 71.0737C76.0421 70.9764 76.1888 70.8361 76.2939 70.6662C76.3989 70.4963 76.4587 70.3023 76.4677 70.1027C76.4767 69.9032 76.4345 69.7046 76.3451 69.526L73.9584 64.7526ZM64 76.2428C66.1098 76.2428 67.9755 75.1815 69.0941 73.5656H58.9059C60.0245 75.1815 61.8902 76.2428 64 76.2428Z" fill="#428DC6"/>
<defs>
<filter id="filter0_d_1961_7332" x="0" y="0" width="128" height="128" filterUnits="userSpaceOnUse" color-interpolation-filters="sRGB">
<feFlood flood-opacity="0" result="BackgroundImageFix"/>
<feColorMatrix in="SourceAlpha" type="matrix" values="0 0 0 0 0 0 0 0 0 0 0 0 0 0 0 0 0 0 127 0" result="hardAlpha"/>
<feOffset dy="5"/>
<feGaussianBlur stdDeviation="12"/>
<feComposite in2="hardAlpha" operator="out"/>
<feColorMatrix type="matrix" values="0 0 0 0 0 0 0 0 0 0.478431 0 0 0 0 1 0 0 0 0.15 0"/>
<feBlend mode="normal" in2="BackgroundImageFix" result="effect1_dropShadow_1961_7332"/>
<feBlend mode="normal" in="SourceGraphic" in2="effect1_dropShadow_1961_7332" result="shape"/>
</filter>
</defs>
</svg>
