<svg width="128" height="128" viewBox="0 0 128 128" fill="none" xmlns="http://www.w3.org/2000/svg">
<g filter="url(#filter0_d_1961_7340)">
<rect x="24" y="19" width="80" height="80" rx="40" fill="white"/>
</g>
<path d="M77.6942 70.4323C76.8886 68.0347 73.6778 66.5339 71.3886 65.5279C70.4918 65.1351 68.009 64.4687 67.7106 63.3395C67.6038 62.9327 67.6182 62.5491 67.7058 62.1815C67.5665 62.2089 67.4249 62.223 67.283 62.2235H65.7914C65.2191 62.2229 64.6704 61.9952 64.2657 61.5905C63.8611 61.1858 63.6335 60.6371 63.633 60.0647C63.633 58.8755 64.601 57.9087 65.7914 57.9087H67.283C67.7758 57.9087 68.243 58.0755 68.6198 58.3731C69.1559 58.3024 69.6851 58.1866 70.2018 58.0267C70.8542 56.6599 71.363 55.0255 71.477 53.6187C71.9638 47.5995 68.2738 44.0779 62.983 44.6867C59.1362 45.1295 56.8382 47.9979 56.5898 51.6907C56.3386 55.4547 57.7342 58.2347 59.2166 60.2739C59.8658 61.1655 60.5478 61.7387 60.443 62.8131C60.3214 64.0835 58.963 64.4375 57.9914 64.8279C56.8402 65.2903 55.6002 65.9919 55.0146 66.3163C52.9974 67.4303 50.7834 68.7719 50.2858 70.6071C49.1838 74.6743 52.9054 75.9063 55.9778 76.4751C58.6146 76.9615 61.5878 76.9999 64.0334 76.9999C68.457 76.9999 76.4114 76.8227 77.6942 73.4975C78.059 72.5539 77.9026 71.0503 77.6942 70.4323Z" fill="#E3D2C0"/>
<path d="M68.2266 59.4572C68.1245 59.3 67.9848 59.1707 67.8201 59.0811C67.6554 58.9915 67.4709 58.9443 67.2834 58.944H65.7918C65.6418 58.94 65.4924 58.9661 65.3526 59.0208C65.2128 59.0754 65.0853 59.1575 64.9777 59.2623C64.8702 59.367 64.7847 59.4922 64.7263 59.6305C64.6679 59.7689 64.6379 59.9175 64.6379 60.0676C64.6379 60.2177 64.6679 60.3663 64.7263 60.5047C64.7847 60.643 64.8702 60.7682 64.9777 60.8729C65.0853 60.9777 65.2128 61.0598 65.3526 61.1144C65.4924 61.1691 65.6418 61.1952 65.7918 61.1912H67.2834C67.4886 61.191 67.6898 61.1342 67.8648 61.027C68.0398 60.9198 68.1817 60.7664 68.275 60.5836C70.3546 60.42 72.1634 59.7848 73.433 58.8468C73.7246 59.0348 74.0694 59.1448 74.4414 59.1448H74.535C74.7815 59.1449 75.0255 59.0963 75.2532 59.002C75.4808 58.9076 75.6877 58.7693 75.8618 58.595C76.036 58.4206 76.1741 58.2136 76.2682 57.9859C76.3623 57.7581 76.4106 57.514 76.4102 57.2676V53.5204C76.4103 53.1665 76.3099 52.8198 76.1207 52.5207C75.9315 52.2216 75.6613 51.9824 75.3414 51.8308C75.0662 45.8136 70.085 41 64.0002 41C57.9154 41 52.9334 45.8136 52.6594 51.8308C52.3394 51.9821 52.0689 52.2213 51.8795 52.5204C51.6902 52.8196 51.5897 53.1664 51.5898 53.5204V57.2676C51.5895 57.5139 51.6377 57.7579 51.7318 57.9855C51.8258 58.2132 51.9637 58.4201 52.1377 58.5944C52.3117 58.7687 52.5183 58.9071 52.7458 59.0015C52.9733 59.096 53.2171 59.1446 53.4634 59.1448H53.5582C53.8046 59.1447 54.0486 59.0961 54.2762 59.0018C54.5038 58.9074 54.7105 58.7691 54.8847 58.5947C55.0588 58.4204 55.1968 58.2134 55.2909 57.9857C55.385 57.758 55.4333 57.514 55.433 57.2676V53.5204C55.4329 53.1714 55.3351 52.8295 55.1507 52.5331C54.9664 52.2368 54.7028 51.998 54.3898 51.8436C54.6574 46.7736 58.8646 42.7324 64.0002 42.7324C69.1338 42.7324 73.343 46.7736 73.6094 51.8436C73.2968 51.9983 73.0336 52.2372 72.8494 52.5335C72.6653 52.8298 72.5677 53.1716 72.5674 53.5204V57.2676C72.5674 57.5164 72.6158 57.748 72.701 57.9644C71.6082 58.7464 70.0174 59.3036 68.2266 59.4572Z" fill="#E3D2C0"/>
<defs>
<filter id="filter0_d_1961_7340" x="0" y="0" width="128" height="128" filterUnits="userSpaceOnUse" color-interpolation-filters="sRGB">
<feFlood flood-opacity="0" result="BackgroundImageFix"/>
<feColorMatrix in="SourceAlpha" type="matrix" values="0 0 0 0 0 0 0 0 0 0 0 0 0 0 0 0 0 0 127 0" result="hardAlpha"/>
<feOffset dy="5"/>
<feGaussianBlur stdDeviation="12"/>
<feComposite in2="hardAlpha" operator="out"/>
<feColorMatrix type="matrix" values="0 0 0 0 0 0 0 0 0 0.478431 0 0 0 0 1 0 0 0 0.15 0"/>
<feBlend mode="normal" in2="BackgroundImageFix" result="effect1_dropShadow_1961_7340"/>
<feBlend mode="normal" in="SourceGraphic" in2="effect1_dropShadow_1961_7340" result="shape"/>
</filter>
</defs>
</svg>
