<svg width="128" height="128" viewBox="0 0 128 128" fill="none" xmlns="http://www.w3.org/2000/svg">
<g filter="url(#filter0_d_1961_7321)">
<rect x="24" y="19" width="80" height="80" rx="40" fill="white"/>
</g>
<path d="M82.125 76.6562H80.8331V53.2019C80.8331 53.0776 80.7837 52.9583 80.6958 52.8704C80.6079 52.7825 80.4887 52.7331 80.3644 52.7331H75.1544C75.0301 52.7331 74.9108 52.7825 74.8229 52.8704C74.735 52.9583 74.6856 53.0776 74.6856 53.2019V76.6562H72.0831V63.2019C72.0831 63.0776 72.0337 62.9583 71.9458 62.8704C71.8579 62.7825 71.7387 62.7331 71.6144 62.7331H66.4044C66.2801 62.7331 66.1608 62.7825 66.0729 62.8704C65.985 62.9583 65.9356 63.0776 65.9356 63.2019V76.6562H63.3331V58.2019C63.3331 58.0776 63.2837 57.9583 63.1958 57.8704C63.1079 57.7825 62.9887 57.7331 62.8644 57.7331H57.6544C57.5301 57.7331 57.4108 57.7825 57.3229 57.8704C57.235 57.9583 57.1856 58.0776 57.1856 58.2019V76.6562H54.5831V66.9519C54.5831 66.8276 54.5337 66.7083 54.4458 66.6204C54.3579 66.5325 54.2387 66.4831 54.1144 66.4831H48.9044C48.7801 66.4831 48.6608 66.5325 48.5729 66.6204C48.485 66.7083 48.4356 66.8276 48.4356 66.9519V76.6562H46.3438V40.875C46.3438 40.7507 46.2944 40.6315 46.2065 40.5435C46.1185 40.4556 45.9993 40.4062 45.875 40.4062C45.7507 40.4062 45.6315 40.4556 45.5435 40.5435C45.4556 40.6315 45.4062 40.7507 45.4062 40.875V77.125C45.4062 77.3838 45.6162 77.5938 45.875 77.5938H82.125C82.2493 77.5938 82.3685 77.5444 82.4565 77.4565C82.5444 77.3685 82.5938 77.2493 82.5938 77.125C82.5938 77.0007 82.5444 76.8815 82.4565 76.7935C82.3685 76.7056 82.2493 76.6562 82.125 76.6562Z" fill="#FE7865"/>
<path d="M51.5098 61.9687C52.1311 61.9679 52.7268 61.7207 53.1661 61.2813C53.6055 60.842 53.8527 60.2463 53.8535 59.625C53.8535 59.1512 53.7098 58.7112 53.4673 58.3425L58.6898 52.5294C59.1229 52.9453 59.6999 53.1779 60.3004 53.1787C60.6709 53.1779 61.0358 53.089 61.3652 52.9193C61.6946 52.7497 61.9789 52.5042 62.1948 52.2031L66.8854 55.5256C66.7427 55.8307 66.668 56.1632 66.6666 56.5C66.6666 57.7919 67.7179 58.8437 69.0104 58.8437C70.3029 58.8437 71.3541 57.7919 71.3541 56.5C71.3541 56.1081 71.2485 55.7437 71.0773 55.4187L77.0748 47.4544C77.2929 47.5219 77.5204 47.5687 77.7604 47.5687C79.0529 47.5687 80.1041 46.5169 80.1041 45.225C80.1041 43.9331 79.0529 42.8812 77.7604 42.8812C76.4679 42.8812 75.4166 43.9331 75.4166 45.225C75.4166 45.9369 75.7423 46.5681 76.2454 46.9981L70.4635 54.6756C70.0526 54.3417 69.5398 54.1585 69.0104 54.1562C68.4054 54.1562 67.8585 54.3931 67.4423 54.7706L62.5885 51.3325C62.6235 51.1719 62.6441 51.0056 62.6441 50.835C62.6441 49.5431 61.5929 48.4912 60.3004 48.4912C59.0079 48.4912 57.9566 49.5431 57.9566 50.835C57.9566 51.1556 58.0223 51.4612 58.1391 51.74L52.8066 57.6756C52.423 57.4186 51.9715 57.2815 51.5098 57.2819C50.2173 57.2819 49.166 58.3337 49.166 59.6256C49.166 60.9175 50.2173 61.9687 51.5098 61.9687Z" fill="#FE7865"/>
<defs>
<filter id="filter0_d_1961_7321" x="0" y="0" width="128" height="128" filterUnits="userSpaceOnUse" color-interpolation-filters="sRGB">
<feFlood flood-opacity="0" result="BackgroundImageFix"/>
<feColorMatrix in="SourceAlpha" type="matrix" values="0 0 0 0 0 0 0 0 0 0 0 0 0 0 0 0 0 0 127 0" result="hardAlpha"/>
<feOffset dy="5"/>
<feGaussianBlur stdDeviation="12"/>
<feComposite in2="hardAlpha" operator="out"/>
<feColorMatrix type="matrix" values="0 0 0 0 0 0 0 0 0 0.478431 0 0 0 0 1 0 0 0 0.15 0"/>
<feBlend mode="normal" in2="BackgroundImageFix" result="effect1_dropShadow_1961_7321"/>
<feBlend mode="normal" in="SourceGraphic" in2="effect1_dropShadow_1961_7321" result="shape"/>
</filter>
</defs>
</svg>
