<svg width="266" height="262" viewBox="0 0 266 262" fill="none" xmlns="http://www.w3.org/2000/svg">
<path d="M-221.255 164.536C-184.994 207.001 -136.726 237.49 -82.802 251.992C-28.8784 266.493 28.1725 264.327 80.8411 245.778C133.51 227.229 179.328 193.167 212.263 148.075C245.199 102.984 263.71 48.9755 265.358 -6.83966C267.006 -62.6548 251.715 -117.661 221.497 -164.618C191.279 -211.574 147.551 -248.281 96.0687 -269.905C44.5863 -291.53 -12.2374 -297.058 -66.9227 -285.764C-121.608 -274.469 -171.592 -246.881 -210.295 -206.63L-95.3013 -96.0592C-78.9301 -113.085 -57.787 -124.755 -34.6553 -129.533C-11.5235 -134.31 12.5128 -131.971 34.2897 -122.824C56.0667 -113.677 74.5635 -98.1507 87.3456 -78.2881C100.128 -58.4255 106.596 -35.158 105.899 -11.5483C105.201 12.0614 97.3716 34.9067 83.4398 53.9804C69.508 73.0542 50.1272 87.4624 27.8485 95.3086C5.56976 103.155 -18.5626 104.071 -41.3722 97.9369C-64.1818 91.8027 -84.5993 78.9057 -99.9374 60.9433L-221.255 164.536Z" fill="#F0FAF9"/>
</svg>
