<svg width="256" height="263" viewBox="0 0 256 263" fill="none" xmlns="http://www.w3.org/2000/svg">
<path d="M553.478 277C553.478 221.16 536.57 166.629 504.979 120.585C473.389 74.5407 428.596 39.1411 376.498 19.0457C324.4 -1.04972 267.438 -4.8989 213.11 8.00478C158.782 20.9085 109.634 49.9602 72.136 91.3359C34.638 132.712 10.5473 184.472 3.03498 239.804C-4.47737 295.136 4.94072 351.446 30.0496 401.321C55.1584 451.197 94.7811 492.301 143.702 519.223C192.623 546.145 248.55 557.622 304.12 552.145L288.472 393.386C264.965 395.702 241.309 390.847 220.615 379.46C199.922 368.072 183.161 350.685 172.54 329.588C161.919 308.49 157.936 284.671 161.113 261.266C164.291 237.861 174.481 215.966 190.343 198.464C206.204 180.963 226.994 168.674 249.974 163.215C272.955 157.757 297.05 159.385 319.087 167.886C341.125 176.386 360.072 191.36 373.435 210.837C386.797 230.313 393.95 253.38 393.95 277H553.478Z" fill="#F0FAF9"/>
</svg>
