<svg width="144" height="230" viewBox="0 0 144 230" fill="none" xmlns="http://www.w3.org/2000/svg">
<path d="M0.265625 161.84H38.6445C41.7207 183.227 52.8535 193.92 71.8965 193.92C82.7363 193.92 91.2324 190.697 97.0918 184.105C102.951 177.514 106.027 169.604 106.027 160.229C106.027 150.854 102.951 142.504 96.9453 135.326C90.793 128.295 82.7363 124.633 72.4824 124.633H59.8848V88.0117H71.8965C80.9785 88.0117 88.0098 85.375 93.1367 79.9551C98.1172 74.5352 100.754 68.0898 100.754 60.7656C100.754 54.0273 98.4102 48.0215 93.7227 42.748C89.0352 37.4746 82.7363 34.8379 74.5332 34.8379C65.7441 34.8379 59.0059 37.9141 54.4648 43.7734C49.9238 49.7793 47.4336 56.8105 46.9941 64.8672H8.9082C9.20117 52.5625 11.8379 41.5762 16.8184 31.9082C21.6523 22.3867 29.123 14.7695 39.084 8.91016C49.0449 3.05078 61.2031 0.121094 75.2656 0.121094C85.5195 0.121094 94.8945 1.73242 103.098 4.95508C111.301 8.17773 118.039 12.5723 123.02 18.1387C128 23.7051 131.955 29.8574 134.592 36.8887C137.229 43.9199 138.547 51.5371 138.547 59.4473C138.547 81.4199 128.732 97.0938 109.104 106.615C121.115 111.742 129.904 118.627 135.471 127.27C141.037 135.912 143.967 146.605 143.967 159.35C143.967 180.443 137.229 197.582 123.752 210.473C110.275 223.51 92.9902 229.955 71.6035 229.955C60.7637 229.955 50.8027 228.197 42.0137 224.682C33.2246 221.166 25.9004 216.186 20.041 209.887C14.1816 203.588 9.64062 196.41 6.27148 188.207C2.90234 180.15 0.851562 171.361 0.265625 161.84Z" fill="url(#paint0_linear_1941_6821)"/>
<defs>
<linearGradient id="paint0_linear_1941_6821" x1="72.5" y1="-37" x2="72.5" y2="263" gradientUnits="userSpaceOnUse">
<stop stop-color="#00756A" stop-opacity="0.11"/>
<stop offset="0.704465" stop-color="#00756A" stop-opacity="0"/>
</linearGradient>
</defs>
</svg>
