<svg width="141" height="227" viewBox="0 0 141 227" fill="none" xmlns="http://www.w3.org/2000/svg">
<path d="M0.546875 65.8672C6.99219 22.5078 30.4297 0.828125 71.0059 0.828125C80.8203 0.828125 89.9023 2.14648 98.1055 4.63672C106.309 7.27344 113.633 10.9355 120.078 15.916C126.377 20.8965 131.357 27.4883 134.873 35.5449C138.389 43.6016 140.293 52.8301 140.293 63.2305C140.293 91.7949 127.402 118.162 101.914 142.332L52.1094 189.207H139.121V227H1.42578V188.621L58.7012 134.861C73.6426 120.799 84.3359 108.494 90.9277 97.6543C97.373 86.9609 100.742 76.4141 100.742 66.1602C100.742 56.4922 98.1055 48.4355 92.9785 42.2832C87.7051 36.1309 80.3809 32.9082 71.0059 32.9082C62.5098 32.9082 55.332 35.6914 49.7656 41.1113C44.1992 46.6777 40.2441 54.8809 38.0469 65.8672H0.546875Z" fill="url(#paint0_linear_1941_6587)"/>
<defs>
<linearGradient id="paint0_linear_1941_6587" x1="75" y1="-36" x2="75" y2="264" gradientUnits="userSpaceOnUse">
<stop stop-color="#00756A" stop-opacity="0.11"/>
<stop offset="0.704465" stop-color="#00756A" stop-opacity="0"/>
</linearGradient>
</defs>
</svg>
