<svg width="146" height="145" viewBox="0 0 146 145" fill="none" xmlns="http://www.w3.org/2000/svg">
<circle cx="41.5" cy="103.5" r="41.5" fill="#00756A"/>
<ellipse cx="104.5" cy="42" rx="41.5" ry="42" fill="#00756A"/>
<g clip-path="url(#clip0_2562_5110)">
<path d="M79 123C106.614 123 129 100.614 129 73C129 45.3858 106.614 23 79 23C51.3858 23 29 45.3858 29 73C29 100.614 51.3858 123 79 123Z" fill="#F2E6DC"/>
<path d="M79.6754 57.6831H39.2109V74.0929H79.6754V57.6831Z" fill="white"/>
<path d="M34.1324 74.0973H36.5586V57.6875H34.1324V74.0973Z" fill="white"/>
<path d="M85.4025 58.5957H31.1348L58.2714 49.5684L85.4025 58.5957Z" fill="#D3BBA3"/>
<path d="M80.6156 72.7323H31.1348V88.5957H80.6156V72.7323Z" fill="white"/>
<path d="M84.1203 88.5957H77.1094V55.5574L80.6176 50.2405L84.1203 88.5957Z" fill="#E6D0BE"/>
<path d="M105.757 58.9618H80.6152V72.9563H105.757V58.9618Z" fill="white"/>
<path d="M105.753 60.6503H85.168V71.5082H105.753V60.6503Z" fill="#EFBC73"/>
<path d="M104.714 74.0984H80.6152V88.5957H104.714V74.0984Z" fill="white"/>
<path d="M103.37 77.9837H81.9542C81.8886 77.9837 81.834 77.9291 81.834 77.8635C81.834 77.7979 81.8886 77.7433 81.9542 77.7433H103.37C103.435 77.7433 103.49 77.7979 103.49 77.8635C103.49 77.9291 103.435 77.9837 103.37 77.9837Z" fill="#E6D0BE"/>
<path d="M103.37 80.6832H81.9542C81.8886 80.6832 81.834 80.6285 81.834 80.563C81.834 80.4974 81.8886 80.4427 81.9542 80.4427H103.37C103.435 80.4427 103.49 80.4974 103.49 80.563C103.49 80.6285 103.435 80.6832 103.37 80.6832Z" fill="#E6D0BE"/>
<path d="M103.37 83.3827H81.9542C81.8886 83.3827 81.834 83.328 81.834 83.2624C81.834 83.1969 81.8886 83.1422 81.9542 83.1422H103.37C103.435 83.1422 103.49 83.1969 103.49 83.2624C103.49 83.328 103.435 83.3827 103.37 83.3827Z" fill="#E6D0BE"/>
<path d="M103.37 86.0821H81.9542C81.8886 86.0821 81.834 86.0275 81.834 85.9619C81.834 85.8963 81.8886 85.8417 81.9542 85.8417H103.37C103.435 85.8417 103.49 85.8963 103.49 85.9619C103.49 86.0275 103.435 86.0821 103.37 86.0821Z" fill="#E6D0BE"/>
<path d="M73.7222 60.6503H45.1758V70.929H73.7222V60.6503Z" fill="#EFBC73"/>
<path d="M53.8741 71.0602C53.8086 71.0602 53.7539 71.0056 53.7539 70.94V60.6504C53.7539 60.5848 53.8086 60.5302 53.8741 60.5302C53.9397 60.5302 53.9943 60.5848 53.9943 60.6504V70.94C53.9998 71.0056 53.9452 71.0602 53.8741 71.0602Z" fill="#363E44"/>
<path d="M65.0147 71.0602C64.9492 71.0602 64.8945 71.0056 64.8945 70.94V60.6504C64.8945 60.5848 64.9492 60.5302 65.0147 60.5302C65.0803 60.5302 65.135 60.5848 65.135 60.6504V70.94C65.135 71.0056 65.0803 71.0602 65.0147 71.0602Z" fill="#363E44"/>
<path d="M73.7159 63.0219H45.1749C45.1093 63.0219 45.0547 62.9673 45.0547 62.9017C45.0547 62.8361 45.1093 62.7815 45.1749 62.7815H73.7214C73.7869 62.7815 73.8416 62.8361 73.8416 62.9017C73.8416 62.9673 73.7869 63.0219 73.7159 63.0219Z" fill="#363E44"/>
<path d="M111.016 70.9399H29.4805V74.9727H111.016V70.9399Z" fill="#F7F1EB"/>
<path d="M39.8902 76.8744C37.382 76.8744 35.3438 79.0055 35.3438 81.6394V88.5957H44.4312V81.6394C44.4312 79.011 42.3984 76.8744 39.8902 76.8744Z" fill="#EFBC73"/>
<path d="M54.0425 76.8744C51.5343 76.8744 49.4961 79.0055 49.4961 81.6394V88.5957H58.5835V81.6394C58.5835 79.011 56.5507 76.8744 54.0425 76.8744Z" fill="#EFBC73"/>
<path d="M68.191 76.8744C65.6828 76.8744 63.6445 79.0055 63.6445 81.6394V88.5957H72.732V81.6394C72.7374 79.011 70.7046 76.8744 68.191 76.8744Z" fill="#E6D0BE"/>
<path d="M111.14 59.2678H80.6152V50.2405L111.14 59.2678Z" fill="#D3BBA3"/>
<path d="M95.4659 71.0602C95.4004 71.0602 95.3457 71.0056 95.3457 70.94V60.6504C95.3457 60.5848 95.4004 60.5302 95.4659 60.5302C95.5315 60.5302 95.5861 60.5848 95.5861 60.6504V70.94C95.5861 71.0056 95.5315 71.0602 95.4659 71.0602Z" fill="#F7F1EB"/>
<path d="M105.754 63.0219H85.1691C85.1035 63.0219 85.0488 62.9673 85.0488 62.9017C85.0488 62.8361 85.1035 62.7815 85.1691 62.7815H105.754C105.819 62.7815 105.874 62.8361 105.874 62.9017C105.874 62.9673 105.825 63.0219 105.754 63.0219Z" fill="#F7F1EB"/>
<path d="M88.6331 46.7378C94.497 46.7378 99.2506 41.9842 99.2506 36.1203C99.2506 30.2564 94.497 25.5028 88.6331 25.5028C82.7692 25.5028 78.0156 30.2564 78.0156 36.1203C78.0156 41.9842 82.7692 46.7378 88.6331 46.7378Z" fill="white"/>
<path d="M91.3051 33.5034L89.6459 31.7581C89.4638 31.5659 89.1653 31.5608 88.9782 31.7379L87.3341 33.296C87.1115 33.5034 86.9092 33.736 86.7372 33.9839C86.2617 34.6567 85.9987 35.198 85.9582 35.9163C85.9582 35.9264 85.9582 35.9416 85.9582 35.9517C85.9582 35.9871 85.9582 36.0225 85.9531 36.058C85.9531 36.0731 85.9531 36.0934 85.9531 36.1085C85.9531 36.1136 85.9531 36.1237 85.9531 36.1288C85.9531 36.1541 85.9531 36.1794 85.9531 36.1996C85.9531 36.235 85.9531 36.2704 85.9582 36.3008C85.9582 36.3109 85.9582 36.3261 85.9632 36.3362C86.0594 37.7324 87.0205 38.8908 88.3155 39.2803C88.6342 39.3865 88.9428 39.427 89.2311 39.4169C89.2412 39.4169 89.2564 39.4169 89.2665 39.4169C90.6374 39.4169 91.8161 38.5822 92.3169 37.3934C92.499 36.9989 92.585 36.5739 92.5748 36.1439C92.5748 36.1288 92.5748 36.1136 92.5748 36.0984C92.5748 35.0513 92.0538 34.3279 91.3051 33.5034ZM87.1975 37.2923C86.9244 37.2923 86.7018 36.9634 86.7018 36.5638C86.7018 36.1591 87.1975 34.8489 87.1975 34.8489C87.1975 34.8489 87.147 36.1591 87.147 36.5638C87.147 36.9634 87.4707 37.2923 87.1975 37.2923Z" fill="#363E44"/>
<path d="M89.8842 45.4974C83.9662 45.4974 79.1465 40.6832 79.1465 34.7597C79.1465 28.8416 83.9607 24.022 89.8842 24.022C95.8077 24.022 100.622 28.8362 100.622 34.7597C100.622 40.6832 95.8022 45.4974 89.8842 45.4974ZM89.8842 24.2624C84.0973 24.2624 79.3869 28.9728 79.3869 34.7597C79.3869 40.5466 84.0973 45.2569 89.8842 45.2569C95.6711 45.2569 100.381 40.5466 100.381 34.7597C100.381 28.9728 95.6711 24.2624 89.8842 24.2624Z" fill="#363E44"/>
<path d="M113.461 64.1026C119.325 64.1026 124.079 59.349 124.079 53.4852C124.079 47.6213 119.325 42.8677 113.461 42.8677C107.597 42.8677 102.844 47.6213 102.844 53.4852C102.844 59.349 107.597 64.1026 113.461 64.1026Z" fill="white"/>
<path d="M113.053 57.3677C112.892 57.3399 112.727 57.3249 112.568 57.2842C111.327 56.9631 110.532 56.203 110.19 55.002C110.071 54.5866 110.137 54.1777 110.256 53.7731C110.437 53.1607 110.733 52.5998 111.064 52.0539C111.667 51.0562 112.378 50.1335 113.144 49.2492C113.248 49.1294 113.36 49.1294 113.462 49.2471C114.345 50.2683 115.158 51.3345 115.805 52.5142C116.034 52.9317 116.222 53.3641 116.363 53.818C116.564 54.4582 116.48 55.064 116.169 55.6464C115.67 56.582 114.877 57.1408 113.809 57.3313C113.722 57.3463 113.634 57.357 113.548 57.3677C113.385 57.3677 113.219 57.3677 113.053 57.3677ZM113.126 54.2912C113.126 54.3383 113.126 54.3725 113.126 54.4068C113.126 54.9698 113.126 55.5329 113.126 56.096C113.126 56.1324 113.126 56.1709 113.133 56.2073C113.153 56.3079 113.265 56.3722 113.358 56.3229C113.409 56.2972 113.455 56.2437 113.477 56.1923C113.718 55.6678 113.954 55.139 114.193 54.6123C114.356 54.2505 114.52 53.8908 114.681 53.529C114.747 53.3791 114.67 53.2657 114.504 53.2635C114.473 53.2635 114.444 53.2635 114.414 53.2635C114.131 53.2635 113.846 53.2635 113.555 53.2635C113.568 53.2271 113.579 53.1971 113.59 53.1672C113.72 52.8289 113.853 52.4906 113.983 52.1502C114.038 52.0046 113.963 51.8997 113.802 51.8997C113.526 51.8997 113.252 51.9019 112.976 51.8976C112.872 51.8954 112.813 51.9383 112.773 52.0282C112.488 52.694 112.201 53.3599 111.914 54.0278C111.85 54.1777 111.927 54.289 112.097 54.289C112.407 54.289 112.713 54.289 113.023 54.289C113.056 54.2912 113.084 54.2912 113.126 54.2912Z" fill="#363E44"/>
<path d="M114.595 62.7597C108.677 62.7597 103.857 57.9455 103.857 52.022C103.857 46.0985 108.672 41.2843 114.595 41.2843C120.513 41.2843 125.333 46.0985 125.333 52.022C125.333 57.9455 120.519 62.7597 114.595 62.7597ZM114.595 41.5302C108.808 41.5302 104.098 46.2406 104.098 52.0275C104.098 57.8144 108.808 62.5247 114.595 62.5247C120.382 62.5247 125.092 57.8144 125.092 52.0275C125.092 46.2406 120.382 41.5302 114.595 41.5302Z" fill="#363E44"/>
<path d="M110.949 117.05C115.095 112.904 115.095 106.181 110.949 102.035C106.802 97.8884 100.08 97.8884 95.9334 102.035C91.7871 106.181 91.7871 112.904 95.9334 117.05C100.08 121.196 106.802 121.196 110.949 117.05Z" fill="white"/>
<path d="M103.743 105.407C103.855 105.661 103.953 105.905 104.068 106.142C104.364 106.754 104.755 107.312 105.147 107.869C105.357 108.17 105.565 108.471 105.78 108.787C105.628 108.855 105.489 108.917 105.349 108.979C105.188 109.052 105.112 109.192 105.181 109.33C105.21 109.391 105.274 109.446 105.332 109.484C105.411 109.534 105.499 109.572 105.589 109.6C105.738 109.645 105.829 109.735 105.875 109.88C105.902 109.963 105.949 110.041 105.988 110.122C106.073 110.295 106.232 110.342 106.404 110.25C106.416 110.243 106.43 110.238 106.448 110.229C106.533 110.542 106.577 110.855 106.56 111.172C106.519 111.917 106.223 112.553 105.658 113.06C105.186 113.485 104.626 113.722 103.982 113.769C102.848 113.855 101.789 113.283 101.27 112.308C101.202 112.178 101.248 112.045 101.383 111.986C101.529 111.919 101.676 111.855 101.823 111.791C101.948 111.737 102.026 111.651 102.026 111.514C102.026 111.376 101.945 111.291 101.82 111.236C101.664 111.168 101.51 111.101 101.356 111.028C101.326 111.013 101.295 110.987 101.28 110.959C101.189 110.779 101.099 110.598 101.013 110.416C101.004 110.395 101.008 110.366 101.016 110.34C101.126 109.844 101.341 109.387 101.617 108.962C101.948 108.455 102.295 107.959 102.637 107.459C103.082 106.811 103.483 106.15 103.743 105.407ZM106.225 111.395C106.227 111.284 106.176 111.217 106.088 111.208C106.012 111.198 105.946 111.248 105.924 111.331C105.919 111.348 105.917 111.367 105.912 111.383C105.866 111.545 105.836 111.713 105.77 111.865C105.445 112.588 104.873 113.013 104.073 113.153C103.953 113.174 103.902 113.233 103.916 113.328C103.929 113.416 104.004 113.461 104.117 113.444C104.895 113.326 105.486 112.934 105.9 112.287C106.073 112.01 106.179 111.704 106.225 111.395Z" fill="#363E44"/>
<path d="M100.783 112.401C100.697 112.221 100.619 112.066 100.548 111.905C100.511 111.82 100.453 111.768 100.367 111.732C100.203 111.663 100.042 111.587 99.8633 111.507C100.049 111.424 100.215 111.348 100.382 111.277C100.46 111.243 100.509 111.194 100.543 111.118C100.614 110.952 100.692 110.788 100.776 110.608C100.805 110.665 100.829 110.71 100.851 110.757C100.912 110.885 100.969 111.018 101.037 111.141C101.064 111.189 101.111 111.236 101.162 111.26C101.333 111.345 101.509 111.419 101.7 111.504C101.661 111.523 101.636 111.538 101.612 111.547C101.468 111.611 101.326 111.677 101.179 111.737C101.106 111.768 101.054 111.815 101.023 111.889C100.949 112.055 100.871 112.216 100.783 112.401Z" fill="#363E44"/>
<path d="M105.516 109.235C105.662 109.168 105.794 109.119 105.917 109.052C105.973 109.021 106.027 108.969 106.059 108.915C106.127 108.794 106.181 108.666 106.249 108.521C106.31 108.649 106.369 108.761 106.418 108.879C106.455 108.969 106.513 109.031 106.609 109.066C106.731 109.112 106.846 109.171 106.985 109.235C106.866 109.287 106.765 109.342 106.66 109.377C106.528 109.425 106.443 109.505 106.396 109.636C106.359 109.738 106.303 109.835 106.249 109.949C106.183 109.809 106.127 109.678 106.059 109.557C106.027 109.503 105.973 109.451 105.917 109.42C105.794 109.351 105.662 109.301 105.516 109.235Z" fill="#363E44"/>
<path d="M104.693 118.918C98.7747 118.918 93.9551 114.104 93.9551 108.18C93.9551 102.262 98.7693 97.4427 104.693 97.4427C110.611 97.4427 115.43 102.257 115.43 108.18C115.43 114.104 110.611 118.918 104.693 118.918ZM104.693 97.6832C98.9059 97.6832 94.1955 102.394 94.1955 108.18C94.1955 113.967 98.9059 118.678 104.693 118.678C110.48 118.678 115.19 113.967 115.19 108.18C115.19 102.394 110.48 97.6832 104.693 97.6832Z" fill="#363E44"/>
<path d="M66.019 42.9651C70.1653 38.8188 70.1653 32.0962 66.019 27.9499C61.8726 23.8035 55.1501 23.8035 51.0037 27.9499C46.8574 32.0962 46.8574 38.8188 51.0037 42.9651C55.1501 47.1115 61.8726 47.1115 66.019 42.9651Z" fill="white"/>
<path d="M59.7592 44.8361C53.8412 44.8361 49.0215 40.0219 49.0215 34.0984C49.0215 28.1749 53.8357 23.3607 59.7592 23.3607C65.6772 23.3607 70.4969 28.1749 70.4969 34.0984C70.4969 40.0219 65.6772 44.8361 59.7592 44.8361ZM59.7592 23.6066C53.9723 23.6066 49.2619 28.317 49.2619 34.1039C49.2619 39.8908 53.9723 44.6012 59.7592 44.6012C65.5461 44.6012 70.2565 39.8853 70.2565 34.0984C70.2565 28.3115 65.5461 23.6066 59.7592 23.6066Z" fill="#363E44"/>
<path d="M59.3465 39.9235C60.1613 39.9235 60.8219 39.2605 60.8219 38.4427C60.8219 37.6248 60.1613 36.9618 59.3465 36.9618C58.5317 36.9618 57.8711 37.6248 57.8711 38.4427C57.8711 39.2605 58.5317 39.9235 59.3465 39.9235Z" fill="#D87355"/>
<path d="M61.5517 36.3553C61.5189 36.3553 61.4916 36.3443 61.4643 36.3225C60.896 35.7542 60.1474 35.4427 59.3441 35.4427C58.5463 35.4427 57.7922 35.7542 57.2239 36.3225C57.1747 36.3717 57.0982 36.3717 57.0545 36.3225C57.0053 36.2733 57.0053 36.1968 57.0545 36.1531C57.6665 35.5411 58.4807 35.2023 59.3441 35.2023C60.2075 35.2023 61.0217 35.5411 61.6337 36.1531C61.6829 36.2023 61.6829 36.2788 61.6337 36.3225C61.6118 36.3443 61.5791 36.3553 61.5517 36.3553Z" fill="#363E44"/>
<path d="M63.313 34.5902C63.2803 34.5902 63.2529 34.5793 63.2256 34.5574C62.1874 33.5192 60.8103 32.9454 59.3458 32.9454C57.8813 32.9454 56.4988 33.5192 55.466 34.5574C55.4169 34.6066 55.3404 34.6066 55.2967 34.5574C55.2475 34.5082 55.2475 34.4317 55.2967 34.388C56.3786 33.306 57.8212 32.705 59.3513 32.705C60.8814 32.705 62.324 33.3006 63.4059 34.388C63.4551 34.4372 63.4551 34.5137 63.4059 34.5574C63.3786 34.5738 63.3458 34.5902 63.313 34.5902Z" fill="#363E44"/>
<path d="M65.0775 32.8198C65.0447 32.8198 65.0174 32.8088 64.99 32.787C63.4818 31.2788 61.4764 30.4427 59.3452 30.4427C57.2141 30.4427 55.2086 31.2733 53.7004 32.787C53.6512 32.8362 53.5747 32.8362 53.531 32.787C53.4818 32.7378 53.4818 32.6613 53.531 32.6176C55.0829 31.0602 57.1485 30.2023 59.3452 30.2023C61.542 30.2023 63.6075 31.0602 65.1594 32.6176C65.2086 32.6668 65.2086 32.7433 65.1594 32.787C65.1376 32.8088 65.1103 32.8198 65.0775 32.8198Z" fill="#363E44"/>
<path d="M116.617 94.0602C122.481 94.0602 127.235 89.3066 127.235 83.4427C127.235 77.5788 122.481 72.8252 116.617 72.8252C110.754 72.8252 106 77.5788 106 83.4427C106 89.3066 110.754 94.0602 116.617 94.0602Z" fill="white"/>
<path d="M117.033 78.255C117.058 78.8134 117.246 79.3158 117.614 79.7486C117.794 79.9616 117.99 80.1612 118.192 80.381C118.384 80.0693 118.465 79.7553 118.465 79.4032C118.587 79.4862 118.698 79.558 118.805 79.6364C119.533 80.1724 120.134 80.8183 120.551 81.6144C120.895 82.2738 121.034 82.9779 120.981 83.7158C120.916 84.6173 120.558 85.3842 119.862 85.992C119.339 86.4495 118.724 86.7186 118.025 86.8195C116.284 87.0684 114.51 85.8888 114.068 84.2674C113.934 83.7763 113.911 83.2762 113.964 82.7716C114.096 81.5135 114.669 80.4572 115.525 79.5266C115.944 79.0713 116.406 78.6654 116.927 78.3223C116.957 78.3021 116.984 78.2774 117.015 78.2572C117.021 78.255 117.028 78.255 117.033 78.255ZM117.461 80.9798C117.255 81.1569 117.052 81.3229 116.86 81.4978C116.374 81.9463 115.946 82.4375 115.655 83.0295C115.435 83.4713 115.326 83.931 115.403 84.4267C115.546 85.3349 116.353 86.0727 117.306 86.1266C118.182 86.1759 118.86 85.8193 119.295 85.0815C119.658 84.4648 119.63 83.8167 119.346 83.1798C118.941 82.2715 118.245 81.601 117.461 80.9798Z" fill="#363E44"/>
<path d="M116.218 85.0344C115.966 84.7092 115.858 84.3459 115.899 83.9422C115.955 83.413 116.207 82.9667 116.531 82.5496C116.785 82.2222 117.081 81.9329 117.403 81.666C117.435 81.6391 117.46 81.6077 117.511 81.6503C118.002 82.0629 118.443 82.5182 118.751 83.0788C118.934 83.413 119.052 83.7673 119.04 84.1531C119.031 84.4805 118.92 84.7743 118.719 85.0277C118.691 84.8752 118.677 84.7182 118.633 84.5679C118.557 84.3033 118.404 84.0768 118.228 83.8615C118.009 83.5902 117.752 83.3524 117.467 83.1372C117.181 83.3502 116.926 83.5902 116.704 83.8638C116.519 84.0903 116.36 84.3325 116.286 84.6173C116.251 84.7518 116.239 84.8931 116.218 85.0344Z" fill="#363E44"/>
<path d="M117.468 83.7695C117.769 84.0409 118.035 84.3235 118.148 84.7092C118.264 85.1084 118.053 85.4941 117.667 85.6017C117.202 85.7318 116.74 85.3909 116.758 84.9222C116.763 84.7877 116.802 84.6464 116.858 84.5208C116.99 84.2248 117.214 83.9915 117.468 83.7695Z" fill="#363E44"/>
<path d="M117.863 92.8198C111.945 92.8198 107.125 88.0056 107.125 82.0821C107.125 76.1586 111.939 71.3444 117.863 71.3444C123.781 71.3444 128.6 76.1586 128.6 82.0821C128.6 88.0056 123.781 92.8198 117.863 92.8198ZM117.863 71.5903C112.076 71.5903 107.365 76.3006 107.365 82.0875C107.365 87.8744 112.076 92.5848 117.863 92.5848C123.65 92.5848 128.36 87.8744 128.36 82.0875C128.36 76.3006 123.65 71.5903 117.863 71.5903Z" fill="#363E44"/>
<path d="M80.1973 97.175C85.5306 88.8198 89.1481 82.7925 90.3393 80.9783C90.465 80.787 90.6836 80.4537 91.077 80.1094C92.5306 78.8362 94.0388 79.4974 96.1754 78.8526C98.6016 78.1203 99.5579 76.3335 100.099 76.6886C100.476 76.9345 100.307 77.7105 99.4104 79.0384C100.208 78.1094 101.339 76.8963 101.853 77.3389C102.416 77.8799 101.252 79.4646 100.503 80.3826C101.41 79.2679 102.23 78.9455 102.454 79.2624C102.809 79.7597 102.301 80.7925 101.044 82.2242C102.186 81.481 102.58 81.4701 102.705 81.7979C102.94 82.399 101.886 83.552 100.793 84.4318C99.5634 85.4209 98.2683 85.7597 97.4486 85.9564C94.3229 92.1914 92.0333 96.0821 89.8967 101.295C88.5306 104.618 80.6399 102.596 80.1973 97.175Z" fill="#BC8271"/>
<path d="M94.3506 79.9017C95.5637 77.705 95.5364 76.6558 95.1812 76.4755C94.5856 76.1695 92.7823 77.623 90.6074 80.6121C91.6675 80.5083 93.2905 80.0055 94.3506 79.9017Z" fill="#BC8271"/>
<path d="M93.8804 84.1749C93.8585 84.1749 93.8421 84.1694 93.8203 84.1585C93.7602 84.1257 93.7383 84.0547 93.7711 83.9946C93.9951 83.5902 94.4104 83.0274 95.1372 82.6448C96.1645 82.1039 97.17 82.2733 97.5525 82.3771C97.6181 82.3935 97.6563 82.459 97.6399 82.5246C97.6236 82.5902 97.558 82.6284 97.4924 82.6121C97.1372 82.5192 96.2028 82.3607 95.2465 82.8634C94.5744 83.2186 94.1864 83.7432 93.9787 84.1148C93.9623 84.153 93.9186 84.1749 93.8804 84.1749Z" fill="#363E44"/>
<path d="M92.2245 79.6613C92.1753 79.6613 92.1261 79.6285 92.1097 79.5793C92.0879 79.5137 92.1261 79.4481 92.1862 79.4263C92.7217 79.2569 93.2846 79.2186 93.8802 79.1804C94.1534 79.164 94.4376 79.1421 94.7381 79.1093C94.8037 79.1039 94.8638 79.1476 94.8693 79.2132C94.8748 79.2787 94.831 79.3389 94.7655 79.3443C94.4649 79.3771 94.1753 79.399 93.8966 79.4154C93.3174 79.4536 92.7709 79.4919 92.2627 79.6503C92.2463 79.6558 92.2354 79.6613 92.2245 79.6613Z" fill="#363E44"/>
<path d="M97.4535 80.3333C97.4043 80.3333 97.3552 80.3005 97.3388 80.2514C97.3169 80.1858 97.3497 80.1202 97.4153 80.0984C97.6994 80 97.9727 79.8798 98.2295 79.7322C98.6065 79.5191 98.9508 79.2568 99.2568 78.9508C99.306 78.9016 99.3825 78.9016 99.4262 78.9508C99.4754 79 99.4754 79.0765 99.4262 79.1202C99.1038 79.4426 98.7431 79.7159 98.3497 79.9399C98.0765 80.0929 97.7923 80.224 97.4972 80.3279C97.4809 80.3279 97.4645 80.3333 97.4535 80.3333Z" fill="#363E44"/>
<path d="M98.6547 81.5246C98.6055 81.5246 98.5563 81.4918 98.5399 81.4427C98.5181 81.3771 98.5509 81.3115 98.6165 81.2897C98.9006 81.1913 99.1738 81.0711 99.4307 80.9235C99.8077 80.7104 100.152 80.4481 100.458 80.1421C100.507 80.0929 100.584 80.0929 100.627 80.1421C100.677 80.1913 100.677 80.2678 100.627 80.3115C100.305 80.6339 99.9443 80.9071 99.5509 81.1312C99.2777 81.2842 98.9935 81.4153 98.6984 81.5192C98.682 81.5246 98.6656 81.5246 98.6547 81.5246Z" fill="#363E44"/>
<path d="M99.1215 83.5355C99.0723 83.5355 99.0231 83.5027 99.0067 83.4535C98.9849 83.3879 99.0177 83.3224 99.0832 83.3005C99.3674 83.2022 99.6406 83.0819 99.8975 82.9344C100.275 82.7213 100.619 82.459 100.925 82.153C100.974 82.1038 101.05 82.1038 101.094 82.153C101.143 82.2022 101.143 82.2787 101.094 82.3224C100.772 82.6448 100.411 82.918 100.018 83.142C99.7444 83.295 99.4603 83.4262 99.1652 83.53C99.1488 83.5355 99.1379 83.5355 99.1215 83.5355Z" fill="#363E44"/>
<path d="M64.5848 92.5301H50.2351L50.1641 86.5192C56.4537 85.4045 59.6121 85.47 64.5848 86.1531V92.5301Z" fill="#8B865C"/>
<path d="M75.8688 90.0493C75.8688 90.0493 67.1912 85.6285 57.1365 86.2023C48.1475 86.7159 39.4043 90.5301 39.4043 90.5301L43.6884 101.426L42.0436 122.76H73.6557L71.6994 102.109L75.8688 90.0493Z" fill="white"/>
<path d="M64.584 86.1531V122.754H74.8681V103.738L80.7261 105.475C84.961 106.732 89.4747 104.716 91.3709 100.721L94.7479 93.6121L85.0048 88.5738L82.3162 93.1585C82.3162 93.1585 75.6987 87.94 64.584 86.1531Z" fill="#00756A"/>
<path d="M40.7062 89.8197C39.5259 90.3716 29.6352 95.5738 29.6406 109.284C29.6406 113.033 33.5423 115.563 37.1215 114.465L40.0505 113.568L40.3073 122.76H50.2308V86.5192C46.6242 87.1421 42.7007 88.8853 40.7062 89.8197Z" fill="#00756A"/>
<path d="M37.6684 104.388C37.6192 104.388 37.57 104.355 37.5536 104.306C37.5318 104.24 37.5645 104.175 37.6301 104.153L39.9033 103.393C39.9689 103.372 40.0345 103.404 40.0564 103.47C40.0782 103.536 40.0454 103.601 39.9798 103.623L37.7066 104.383C37.6957 104.388 37.6848 104.388 37.6684 104.388Z" fill="#363E44"/>
<path d="M53.0399 108.607C53.029 108.607 53.0126 108.607 53.0017 108.601C52.9416 108.579 52.9088 108.508 52.9306 108.448L58.6301 92.4318L71.1492 92.5411C71.2148 92.5411 71.2694 92.5957 71.2694 92.6613C71.2694 92.7268 71.2148 92.7815 71.1492 92.7815L58.7995 92.6722L53.1547 108.53C53.1383 108.579 53.0891 108.607 53.0399 108.607Z" fill="#363E44"/>
<path d="M66.4083 109.574H53.9766L59.6487 93.6449H72.0804L66.4083 109.574Z" fill="#363E44"/>
<path d="M40.5641 103.23C44.0832 101.842 49.7225 100.547 50.6515 100.317C52.3892 99.8853 61.7608 97.8034 62.2089 99.1258C62.422 99.7596 60.6351 100.241 60.0231 100.383C60.575 100.508 62.7389 100.76 62.7826 101.503C62.8373 102.377 60.2143 102.475 60.1761 102.503C60.7498 102.574 63.034 102.76 63.0941 103.317C63.1706 104.044 60.9903 104.508 60.3291 104.612C60.411 104.689 62.6078 104.552 62.7335 105.415C62.8263 106.049 60.8263 106.47 59.9575 106.656C58.4165 107.044 45.0121 111.47 41.5968 112.066C40.2635 112.295 39.2143 105.011 40.5641 103.23Z" fill="#BC8271"/>
<path d="M56.9158 100.705C56.8612 100.705 56.8174 100.672 56.8011 100.618C56.7847 100.552 56.8174 100.486 56.883 100.47C57.5442 100.279 58.2218 100.175 58.9049 100.153C59.2819 100.142 59.6644 100.153 60.047 100.197C60.1125 100.202 60.1617 100.262 60.1562 100.328C60.1508 100.394 60.0907 100.443 60.0251 100.437C59.659 100.399 59.2874 100.383 58.9158 100.399C58.2546 100.421 57.5934 100.525 56.9541 100.71C56.9377 100.705 56.9267 100.705 56.9158 100.705Z" fill="#363E44"/>
<path d="M57.9705 102.885C57.9158 102.885 57.8721 102.853 57.8557 102.798C57.8393 102.732 57.8721 102.667 57.9377 102.65C58.5989 102.459 59.2765 102.355 59.9596 102.333C60.0415 102.328 60.1235 102.328 60.2055 102.328C60.271 102.328 60.3257 102.383 60.3257 102.448C60.3257 102.514 60.271 102.568 60.2055 102.568C60.129 102.568 60.047 102.568 59.9705 102.574C59.3093 102.596 58.6481 102.7 58.0087 102.885C57.9924 102.885 57.9814 102.885 57.9705 102.885Z" fill="#363E44"/>
<path d="M58.9861 104.989C58.9315 104.989 58.8878 104.956 58.8714 104.902C58.855 104.836 58.8878 104.771 58.9533 104.754C59.385 104.628 59.8277 104.541 60.2703 104.486C60.3358 104.481 60.396 104.525 60.4069 104.59C60.4124 104.656 60.3686 104.716 60.3031 104.727C59.8714 104.776 59.4451 104.863 59.0244 104.984C59.008 104.989 58.9971 104.989 58.9861 104.989Z" fill="#363E44"/>
<path d="M63.9822 73.6285C64.4168 73.6285 64.7691 73.2762 64.7691 72.8416C64.7691 72.407 64.4168 72.0547 63.9822 72.0547C63.5476 72.0547 63.1953 72.407 63.1953 72.8416C63.1953 73.2762 63.5476 73.6285 63.9822 73.6285Z" fill="#363E44"/>
<path d="M59.1815 70.4974C59.4493 70.4701 62.0121 70.2624 63.5585 72.0165C64.7061 73.3225 64.8482 75.0001 64.6514 77.8471C64.4219 81.1968 63.8208 83.1695 62.8536 83.8307C61.329 84.8744 56.7662 82.5356 55.0503 79.6121C53.8099 77.4974 53.952 74.7815 55.2635 72.6886C56.5695 70.6067 59.0066 70.5138 59.1815 70.4974Z" fill="#BC8271"/>
<path d="M57.9381 89.4918C59.43 89.4918 60.6431 88.2842 60.6431 86.7924V78.1257C60.6431 76.6339 59.4354 75.4263 57.9436 75.4263C56.4518 75.4263 55.2442 76.6339 55.2442 78.1257V86.7924C55.2387 88.2842 56.4463 89.4918 57.9381 89.4918Z" fill="#BC8271"/>
<path d="M60.5815 84.0492C60.5706 84.0492 60.5542 84.0492 60.5433 84.0437C59.4722 83.6994 58.3302 83.1147 57.4777 82.4863C57.4231 82.4481 57.4121 82.3716 57.4504 82.3169C57.4886 82.2623 57.5651 82.2514 57.6198 82.2896C58.4504 82.9071 59.5651 83.4754 60.6143 83.8142C60.6799 83.8361 60.7127 83.9016 60.6908 83.9672C60.6799 84.0164 60.6307 84.0492 60.5815 84.0492Z" fill="#363E44"/>
<path d="M55.5106 77.5903C55.5106 78.1258 55.0789 78.5575 54.5434 78.5575C54.0079 78.5575 53.5762 78.1258 53.5762 77.5903C53.5762 77.0547 54.0079 76.623 54.5434 76.623C55.0789 76.623 55.5106 77.0547 55.5106 77.5903Z" fill="#363E44"/>
<path d="M55.9921 78.071C56.6349 78.071 57.156 77.5499 57.156 76.9071C57.156 76.2643 56.6349 75.7432 55.9921 75.7432C55.3492 75.7432 54.8281 76.2643 54.8281 76.9071C54.8281 77.5499 55.3492 78.071 55.9921 78.071Z" fill="#363E44"/>
<path d="M62.9641 71.4699C62.9641 72.0219 62.516 72.4754 61.9586 72.4754C61.4067 72.4754 60.9531 72.0273 60.9531 71.4699C60.9531 70.918 61.4012 70.4645 61.9586 70.4645C62.5105 70.4699 62.9641 70.918 62.9641 71.4699Z" fill="#363E44"/>
<path d="M60.4731 72.5355C60.9922 72.5355 61.413 72.1147 61.413 71.5957C61.413 71.0766 60.9922 70.6558 60.4731 70.6558C59.954 70.6558 59.5332 71.0766 59.5332 71.5957C59.5332 72.1147 59.954 72.5355 60.4731 72.5355Z" fill="#363E44"/>
<path d="M59.8979 72.2078C59.8979 72.6887 59.5099 73.0766 59.029 73.0766C58.5481 73.0766 58.1602 72.6887 58.1602 72.2078C58.1602 71.7269 58.5481 71.3389 59.029 71.3389C59.5044 71.3335 59.8979 71.7214 59.8979 72.2078Z" fill="#363E44"/>
<path d="M63.3259 72.5793C63.7907 72.5793 64.1674 72.2025 64.1674 71.7378C64.1674 71.273 63.7907 70.8962 63.3259 70.8962C62.8611 70.8962 62.4844 71.273 62.4844 71.7378C62.4844 72.2025 62.8611 72.5793 63.3259 72.5793Z" fill="#363E44"/>
<path d="M63.0187 70.8962C63.0187 71.4481 62.5707 71.9017 62.0133 71.9017C61.4614 71.9017 61.0078 71.4536 61.0078 70.8962C61.0078 70.3443 61.4559 69.8907 62.0133 69.8907C62.5707 69.8907 63.0187 70.3388 63.0187 70.8962Z" fill="#363E44"/>
<path d="M61.6846 70.4427C61.6846 71.0438 61.1983 71.5301 60.5972 71.5301C59.9961 71.5301 59.5098 71.0438 59.5098 70.4427C59.5098 69.8416 59.9961 69.3552 60.5972 69.3552C61.1983 69.3552 61.6846 69.8416 61.6846 70.4427Z" fill="#363E44"/>
<path d="M58.9049 71.6394C59.5568 71.6394 60.0853 71.1085 60.0853 70.4536C60.0853 69.7987 59.5568 69.2678 58.9049 69.2678C58.2531 69.2678 57.7246 69.7987 57.7246 70.4536C57.7246 71.1085 58.2531 71.6394 58.9049 71.6394Z" fill="#363E44"/>
<path d="M58.3904 70.8361C58.3904 71.4809 57.8658 72 57.2264 72C56.5816 72 56.0625 71.4754 56.0625 70.8361C56.0625 70.1913 56.5871 69.6722 57.2264 69.6722C57.8658 69.6667 58.3904 70.1913 58.3904 70.8361Z" fill="#363E44"/>
<path d="M56.1284 72.8088C56.7893 72.8088 57.3251 72.2731 57.3251 71.6121C57.3251 70.9512 56.7893 70.4154 56.1284 70.4154C55.4674 70.4154 54.9316 70.9512 54.9316 71.6121C54.9316 72.2731 55.4674 72.8088 56.1284 72.8088Z" fill="#363E44"/>
<path d="M56.1906 72.787C56.1906 73.3389 55.7425 73.7924 55.1852 73.7924C54.6332 73.7924 54.1797 73.3443 54.1797 72.787C54.1797 72.235 54.6278 71.7815 55.1852 71.7815C55.7425 71.787 56.1906 72.235 56.1906 72.787Z" fill="#363E44"/>
<path d="M55.5773 74.2514C55.5773 74.8033 55.1292 75.2569 54.5719 75.2569C54.02 75.2569 53.5664 74.8088 53.5664 74.2514C53.5664 73.6995 54.0145 73.246 54.5719 73.246C55.1292 73.2514 55.5773 73.6995 55.5773 74.2514Z" fill="#363E44"/>
<path d="M58.5735 72.8775C58.5746 72.3222 58.1253 71.8712 57.57 71.8701C57.0147 71.869 56.5636 72.3183 56.5625 72.8736C56.5614 73.4289 57.0107 73.8799 57.566 73.881C58.1213 73.8821 58.5724 73.4328 58.5735 72.8775Z" fill="#363E44"/>
<path d="M59.0668 71.6638C59.0674 71.1839 58.6788 70.7945 58.199 70.7939C57.7191 70.7934 57.3297 71.1819 57.3291 71.6618C57.3286 72.1416 57.7171 72.5311 58.197 72.5316C58.6768 72.5322 59.0663 72.1436 59.0668 71.6638Z" fill="#363E44"/>
<path d="M56.7133 75.0001C57.2475 75.0001 57.6805 74.5671 57.6805 74.0329C57.6805 73.4987 57.2475 73.0657 56.7133 73.0657C56.1791 73.0657 55.7461 73.4987 55.7461 74.0329C55.7461 74.5671 56.1791 75.0001 56.7133 75.0001Z" fill="#363E44"/>
<path d="M56.9383 73.388C56.9383 73.9235 56.5066 74.3552 55.9711 74.3552C55.4356 74.3552 55.0039 73.9235 55.0039 73.388C55.0039 72.8525 55.4356 72.4208 55.9711 72.4208C56.5066 72.4208 56.9383 72.8525 56.9383 73.388Z" fill="#363E44"/>
<path d="M55.7152 76.4864C56.3399 76.4853 56.8455 75.9756 56.8444 75.3478C56.8433 74.7201 56.3359 74.2121 55.7112 74.2132C55.0865 74.2143 54.581 74.7241 54.5821 75.3518C54.5832 75.9796 55.0905 76.4875 55.7152 76.4864Z" fill="#363E44"/>
<path d="M54.2446 76.8743C54.7788 76.8738 55.2114 76.4403 55.2108 75.9061C55.2103 75.3719 54.7768 74.9394 54.2426 74.9399C53.7084 74.9405 53.2758 75.374 53.2764 75.9081C53.277 76.4423 53.7104 76.8749 54.2446 76.8743Z" fill="#363E44"/>
<path d="M63.2101 80.388C63.1718 80.388 63.139 80.3716 63.1117 80.3388C63.0735 80.2841 63.0789 80.2076 63.1336 80.1694C63.3904 79.9781 63.5106 79.8033 63.4942 79.6776C63.4833 79.6011 63.4287 79.5519 63.3194 79.4699C63.2265 79.3934 63.1063 79.3005 63.0134 79.1475C62.8494 78.8907 62.8057 78.5628 62.8822 78.1748C62.8931 78.1093 62.9587 78.0656 63.0243 78.0819C63.0899 78.0929 63.1336 78.1584 63.1172 78.224C63.0516 78.5519 63.0844 78.8197 63.2101 79.0218C63.2811 79.1366 63.374 79.2131 63.4669 79.2841C63.5817 79.377 63.7074 79.4754 63.7292 79.6503C63.762 79.8798 63.6145 80.1147 63.2757 80.3661C63.2593 80.3825 63.2319 80.388 63.2101 80.388Z" fill="#363E44"/>
<path d="M62.1013 81.5411C61.921 81.5411 61.7406 81.4864 61.5986 81.3717C61.3253 81.164 61.2871 80.8416 61.2816 80.7432C61.2762 80.6777 61.3308 80.6176 61.3964 80.6176C61.462 80.6121 61.5221 80.6667 61.5221 80.7323C61.5275 80.7979 61.5549 81.0329 61.7461 81.1804C61.9538 81.3389 62.2543 81.3389 62.5002 81.1749C62.5549 81.1367 62.6314 81.1531 62.6696 81.2077C62.7079 81.2624 62.6915 81.3389 62.6368 81.3771C62.462 81.4864 62.2816 81.5411 62.1013 81.5411Z" fill="#363E44"/>
<path d="M56.5982 80.0985C55.9752 80.2569 55.243 79.9236 54.8277 79.2515C54.3359 78.4482 54.478 77.4591 55.1501 77.0493C55.7239 76.6941 56.5053 76.8744 57.0244 77.4373L56.5982 80.0985Z" fill="#BC8271"/>
<path d="M56.2805 80.2569C55.6903 80.2569 55.0838 79.9017 54.7231 79.3115C54.1931 78.4536 54.357 77.388 55.0893 76.9399C55.7067 76.5574 56.5373 76.7268 57.1166 77.3498C57.1603 77.399 57.1603 77.4755 57.1111 77.5192C57.0619 77.5629 56.9854 77.5629 56.9417 77.5137C56.4444 76.9782 55.7395 76.8252 55.2204 77.1476C54.6029 77.5246 54.4772 78.4427 54.9362 79.1858C55.3133 79.7979 55.9854 80.1257 56.5756 79.9782C56.6412 79.9618 56.7067 80.0001 56.7231 80.0656C56.7395 80.1312 56.7013 80.1968 56.6357 80.2132C56.51 80.2405 56.3953 80.2569 56.2805 80.2569Z" fill="#363E44"/>
<path d="M55.5757 79.0219C55.5375 79.0219 55.5047 79.0055 55.4828 78.9782C55.1604 78.5629 55.155 78.0219 55.4774 77.7705C55.7506 77.5519 56.1768 77.612 56.5047 77.9071C56.5539 77.9508 56.5593 78.0273 56.5156 78.0765C56.4719 78.1257 56.3954 78.1312 56.3462 78.0874C56.1112 77.8743 55.8052 77.8251 55.6304 77.9618C55.4118 78.1312 55.4337 78.5246 55.6741 78.8306C55.7178 78.8853 55.7069 78.9563 55.6522 79C55.6249 79.0109 55.5976 79.0219 55.5757 79.0219Z" fill="#363E44"/>
<path d="M67.133 76.0274C67.133 76.0274 66.8544 76.9618 66.1167 77.694C65.9636 77.847 65.0292 76.3006 65.2478 76.2241C66.2041 75.8962 67.133 76.0274 67.133 76.0274Z" fill="white"/>
<path d="M63.0566 78.6339C63.0566 78.6339 64.4719 78.8361 65.5976 78.1202C65.7943 77.9945 65.9692 77.847 66.1222 77.694C66.1004 77.0656 65.7506 76.5246 65.237 76.235C65.0184 76.3115 64.7998 76.4153 64.5922 76.5465C63.4665 77.2623 63.0566 78.6339 63.0566 78.6339Z" fill="#363E44"/>
<path d="M62.0383 78.6339C62.0383 78.6339 61.1039 78.9126 60.0875 78.6995C59.8744 78.6558 60.6503 77.0273 60.8416 77.1694C61.6394 77.7814 62.0383 78.6339 62.0383 78.6339Z" fill="white"/>
<path d="M57.6289 76.6503C57.6289 76.6503 58.2355 77.9454 59.454 78.4919C59.6672 78.5902 59.8857 78.6558 60.0989 78.6995C60.6125 78.3389 60.8693 77.7487 60.8311 77.1585C60.6453 77.0165 60.4431 76.8908 60.2136 76.787C58.995 76.2405 57.6289 76.6503 57.6289 76.6503Z" fill="#363E44"/>
</g>
<defs>
<clipPath id="clip0_2562_5110">
<rect width="100" height="100" fill="white" transform="translate(29 23)"/>
</clipPath>
</defs>
</svg>
