<svg width="146" height="145" viewBox="0 0 146 145" fill="none" xmlns="http://www.w3.org/2000/svg">
<circle cx="41.5" cy="103.5" r="41.5" fill="#00756A"/>
<ellipse cx="104.5" cy="42" rx="41.5" ry="42" fill="#00756A"/>
<g clip-path="url(#clip0_2562_5111)">
<path d="M72.9127 122.989C100.479 122.989 122.825 100.606 122.825 72.9945C122.825 45.3833 100.479 23 72.9127 23C45.3467 23 23 45.3833 23 72.9945C23 100.606 45.3467 122.989 72.9127 122.989Z" fill="#F2E6DC"/>
<path d="M55.9602 26.4478L23.8633 55.3244V116.482H88.057V55.3244L55.9602 26.4478Z" fill="#F7F1EB"/>
<path d="M88.0618 53.1115C88.0345 53.1115 88.0018 53.1006 87.9799 53.0787L55.9594 24.2731L23.9389 53.0787C23.8898 53.1224 23.8135 53.117 23.7698 53.0678C23.7262 53.0186 23.7316 52.9421 23.7807 52.8984L55.8776 24.0218C55.9213 23.9781 55.9922 23.9781 56.0358 24.0218L88.1327 52.8984C88.1818 52.9421 88.1872 53.0186 88.1436 53.0678C88.1272 53.0951 88.0945 53.1115 88.0618 53.1115Z" fill="#D3BBA3"/>
<path d="M78.2818 82.3816H59.1895V110.837H78.2818V82.3816Z" fill="#E6D0BE"/>
<path d="M90.7185 116.755H24.2118C24.1463 116.755 24.0918 116.7 24.0918 116.635C24.0918 116.569 24.1463 116.514 24.2118 116.514H90.7185C90.7839 116.514 90.8385 116.569 90.8385 116.635C90.8385 116.7 90.7839 116.755 90.7185 116.755Z" fill="white"/>
<path d="M54.175 82.3816H29.1641V106.958H54.175V82.3816Z" fill="#E6D0BE"/>
<path d="M82.4589 72.7542H29.1641V79.7971H82.4589V72.7542Z" fill="#E6D0BE"/>
<path d="M82.4592 69.1426H29.459V55.1113L55.9645 31.103L82.4592 55.1113V69.1426Z" fill="#E6D0BE"/>
<path d="M41.4989 68.0935C41.4335 68.0935 41.3789 68.0389 41.3789 67.9733V45.5932C41.3789 45.5277 41.4335 45.473 41.4989 45.473C41.5644 45.473 41.6189 45.5277 41.6189 45.5932V67.9788C41.6189 68.0389 41.5644 68.0935 41.4989 68.0935Z" fill="white"/>
<path d="M70.4267 68.0935C70.3612 68.0935 70.3066 68.0389 70.3066 67.9733V45.5932C70.3066 45.5277 70.3612 45.473 70.4267 45.473C70.4921 45.473 70.5467 45.5277 70.5467 45.5932V67.9788C70.5467 68.0389 70.4921 68.0935 70.4267 68.0935Z" fill="white"/>
<path d="M41.4989 68.0935C41.4335 68.0935 41.3789 68.0389 41.3789 67.9733V45.5932C41.3789 45.5277 41.4335 45.473 41.4989 45.473C41.5644 45.473 41.6189 45.5277 41.6189 45.5932V67.9788C41.6189 68.0389 41.5644 68.0935 41.4989 68.0935Z" fill="white"/>
<path d="M70.4267 68.0935C70.3612 68.0935 70.3066 68.0389 70.3066 67.9733V45.5932C70.3066 45.5277 70.3612 45.473 70.4267 45.473C70.4921 45.473 70.5467 45.5277 70.5467 45.5932V67.9788C70.5467 68.0389 70.4921 68.0935 70.4267 68.0935Z" fill="white"/>
<path d="M41.6669 106.264C41.6014 106.264 41.5469 106.209 41.5469 106.144V83.3049C41.5469 83.2393 41.6014 83.1847 41.6669 83.1847C41.7323 83.1847 41.7869 83.2393 41.7869 83.3049V106.144C41.7869 106.209 41.7378 106.264 41.6669 106.264Z" fill="white"/>
<path d="M122.999 90.0856C122.999 92.1072 121.363 93.7409 119.35 93.7409H86.3095C84.2912 93.7409 82.6602 92.1017 82.6602 90.0856V27.77C82.6602 25.7483 84.2966 24.1146 86.3095 24.1146H119.35C121.368 24.1146 122.999 25.7538 122.999 27.77V90.0856Z" fill="#40484C"/>
<path d="M86.5325 27.9885C85.436 27.9885 84.5469 28.8791 84.5469 29.9774V88.6431C84.5469 89.7413 85.436 90.632 86.5325 90.632H119.12C120.217 90.632 121.106 89.7413 121.106 88.6431V29.9774C121.106 28.8791 120.217 27.9885 119.12 27.9885H86.5325Z" fill="white"/>
<path d="M107.518 26.3166H98.1356C98.0702 26.3166 98.0156 26.2619 98.0156 26.1964C98.0156 26.1308 98.0702 26.0762 98.1356 26.0762H107.518C107.584 26.0762 107.638 26.1308 107.638 26.1964C107.638 26.2619 107.584 26.3166 107.518 26.3166Z" fill="#F2E6DC"/>
<path d="M117.937 32.2777H87.7109V46.3035H117.937V32.2777Z" fill="#F7F1EB"/>
<path d="M117.937 48.8278H87.7109V64.0829H117.937V48.8278Z" fill="#F7F1EB"/>
<path d="M117.937 66.8313H87.7109V85.5834H117.937V66.8313Z" fill="#F7F1EB"/>
<path d="M103.036 35.23C103.139 35.4651 103.23 35.6913 103.336 35.911C103.609 36.4778 103.971 36.9941 104.332 37.5104C104.526 37.7894 104.718 38.0684 104.917 38.3606C104.777 38.4243 104.648 38.4814 104.52 38.5385C104.37 38.6066 104.3 38.7363 104.364 38.8637C104.391 38.9208 104.449 38.9713 104.504 39.0065C104.576 39.0526 104.657 39.0878 104.741 39.1141C104.879 39.1559 104.962 39.2394 105.005 39.3734C105.03 39.4503 105.073 39.5228 105.109 39.5975C105.188 39.7578 105.335 39.8018 105.493 39.7161C105.504 39.7095 105.518 39.7051 105.534 39.6963C105.613 39.9863 105.653 40.2763 105.638 40.5707C105.599 41.2605 105.326 41.8493 104.804 42.3194C104.368 42.7127 103.851 42.9324 103.257 42.9763C102.209 43.0554 101.231 42.526 100.752 41.623C100.689 41.5022 100.732 41.3792 100.856 41.3242C100.991 41.2627 101.127 41.2034 101.262 41.1441C101.378 41.0936 101.45 41.0145 101.45 40.8871C101.45 40.7596 101.375 40.6805 101.26 40.63C101.116 40.5663 100.973 40.5048 100.831 40.4367C100.804 40.4235 100.775 40.3993 100.761 40.373C100.677 40.206 100.594 40.039 100.515 39.8699C100.506 39.8501 100.51 39.8237 100.517 39.7996C100.619 39.3404 100.817 38.9164 101.073 38.5232C101.378 38.053 101.698 37.5939 102.015 37.1303C102.426 36.5306 102.796 35.9176 103.036 35.23ZM105.328 40.7772C105.33 40.6739 105.283 40.6124 105.202 40.6037C105.132 40.5949 105.071 40.641 105.05 40.7179C105.046 40.7333 105.044 40.7508 105.039 40.7662C104.996 40.9156 104.969 41.0716 104.908 41.2122C104.608 41.8823 104.079 42.2755 103.34 42.4051C103.23 42.4249 103.182 42.4798 103.196 42.5677C103.207 42.649 103.277 42.6907 103.381 42.6753C104.099 42.5655 104.646 42.203 105.028 41.6032C105.188 41.3462 105.285 41.0628 105.328 40.7772Z" fill="#363E44"/>
<path d="M100.302 41.7087C100.223 41.5418 100.151 41.399 100.086 41.2496C100.052 41.1705 99.9975 41.1221 99.9184 41.0892C99.7671 41.0255 99.618 40.9552 99.4531 40.8805C99.6248 40.8036 99.7784 40.7333 99.932 40.6674C100.004 40.6366 100.049 40.5905 100.081 40.5202C100.147 40.3664 100.219 40.2148 100.296 40.0479C100.323 40.1006 100.345 40.1423 100.366 40.1863C100.422 40.3049 100.474 40.4279 100.537 40.5422C100.562 40.5861 100.605 40.63 100.652 40.652C100.811 40.7311 100.973 40.7992 101.149 40.8783C101.113 40.8959 101.091 40.909 101.068 40.9178C100.935 40.9771 100.804 41.0387 100.668 41.0936C100.601 41.1221 100.553 41.1661 100.524 41.2342C100.456 41.388 100.384 41.5374 100.302 41.7087Z" fill="#363E44"/>
<path d="M104.672 38.7758C104.807 38.7143 104.929 38.6681 105.042 38.6066C105.094 38.5781 105.144 38.5297 105.173 38.4792C105.237 38.3671 105.286 38.2485 105.349 38.1145C105.406 38.2331 105.46 38.3364 105.505 38.4462C105.539 38.5297 105.593 38.5868 105.682 38.6198C105.794 38.6615 105.901 38.7165 106.029 38.7758C105.919 38.8241 105.826 38.8746 105.729 38.9076C105.607 38.9515 105.528 39.0262 105.485 39.1471C105.451 39.2415 105.399 39.3316 105.349 39.437C105.289 39.3074 105.237 39.1866 105.173 39.0746C105.144 39.024 105.094 38.9757 105.042 38.9471C104.929 38.8834 104.807 38.8373 104.672 38.7758Z" fill="#363E44"/>
<path d="M108 73.2678C108.338 73.0984 108.687 72.9836 109.036 72.9126L108.905 71.0002C108.311 71.0931 107.716 71.2789 107.149 71.563C105.769 72.2515 104.776 73.4098 104.258 74.7485L106.091 75.2894C106.462 74.437 107.116 73.7103 108 73.2678Z" fill="white"/>
<path d="M105.986 78.2672C105.752 77.606 105.697 76.9121 105.806 76.2455L103.974 75.7046C103.745 76.8192 103.826 78.0049 104.274 79.125L105.986 78.2672Z" fill="#8B865C"/>
<path d="M115.363 74.6938L113.65 75.5517C114.327 77.4586 113.492 79.6277 111.638 80.5511C109.783 81.48 107.552 80.8516 106.434 79.1633L104.721 80.0211C106.319 82.6493 109.696 83.6546 112.489 82.2559C115.281 80.8571 116.503 77.546 115.363 74.6938Z" fill="#D87355"/>
<path d="M110.039 72.8416C111.294 72.9126 112.483 73.5573 113.208 74.6501L114.921 73.7923C113.83 72.0001 111.91 70.9565 109.908 70.9292L110.039 72.8416Z" fill="#8B865C"/>
<path d="M98.9772 78.4092C98.8463 78.7643 98.6717 79.0867 98.459 79.3763L99.8554 80.6822C100.226 80.2068 100.537 79.6713 100.761 79.0703C101.301 77.6224 101.241 76.098 100.712 74.7648L98.999 75.6226C99.3045 76.4968 99.3263 77.4749 98.9772 78.4092Z" fill="#D87355"/>
<path d="M97.0449 73.3715C97.6668 73.6938 98.1795 74.1692 98.5505 74.7265L100.263 73.8687C99.6742 72.8961 98.8014 72.0875 97.7159 71.5739L97.0449 73.3715Z" fill="white"/>
<path d="M92.6216 82.3924L93.2925 80.5948C91.4979 79.6604 90.636 77.5022 91.3615 75.5625C92.087 73.6174 94.1435 72.5519 96.1127 73.0218L96.7837 71.2242C93.8271 70.3937 90.6742 71.9618 89.5832 74.8905C88.4813 77.8246 89.845 81.081 92.6216 82.3924Z" fill="#FFD092"/>
<path d="M97.7768 80.1085C96.8113 80.9117 95.5021 81.2505 94.2256 80.9445L93.5547 82.7421C95.573 83.3104 97.6895 82.7585 99.1733 81.4144L97.7768 80.1085Z" fill="#D3BBA3"/>
<path d="M91.4929 54.5157H89.6328V62.0778H91.4929V54.5157Z" fill="#EFBC73"/>
<path d="M94.4773 59.0398H92.6172V62.0777H94.4773V59.0398Z" fill="#FFD092"/>
<path d="M97.4676 56.0073H95.6074V62.0777H97.4676V56.0073Z" fill="#EFBC73"/>
<path d="M100.456 52.0078H98.5957V62.0777H100.456V52.0078Z" fill="#E0AA63"/>
<path d="M103.444 55.4227H101.584V62.0777H103.444V55.4227Z" fill="#EFBC73"/>
<path d="M106.434 59.0399H104.574V62.0778H106.434V59.0399Z" fill="#FFD092"/>
<path d="M109.419 56.0074H107.559V62.0778H109.419V56.0074Z" fill="#EFBC73"/>
<path d="M112.409 53.1553H110.549V62.0778H112.409V53.1553Z" fill="#E0AA63"/>
<path d="M115.397 57.9143H113.537V62.0778H115.397V57.9143Z" fill="#FFD092"/>
<path d="M119.095 111.023H84.7997C84.7342 111.023 84.6797 110.969 84.6797 110.903V101.68C84.6797 101.614 84.7342 101.56 84.7997 101.56H119.095C119.16 101.56 119.215 101.614 119.215 101.68V110.898C119.215 110.969 119.16 111.023 119.095 111.023ZM84.9143 110.783H118.969V101.806H84.9143V110.783Z" fill="#8B865C"/>
<path d="M114.85 99.0081C113.388 98.5437 113.214 96.2817 111.992 96.3144C108.97 96.3964 107.601 106.27 105.31 106.138C103.417 106.029 103.111 99.2321 100.918 99.0081C98.5783 98.7732 96.9309 106.319 94.4053 106.138C92.1906 105.98 92.2778 100.074 88.3503 98.1011C87.6902 97.7678 86.9975 97.5875 86.3047 97.5165V109.384H117.572V98.2104C116.4 99.0628 115.521 99.2212 114.85 99.0081Z" fill="#D3BBA3"/>
<path d="M28.8431 41.0145C28.8376 41.0145 28.8322 41.0145 28.8322 41.0145C28.7667 41.009 28.7176 40.9489 28.7231 40.8833L29.9013 29.3928C29.9068 29.3491 29.9341 29.3108 29.9723 29.2944L40.4948 24.5791C40.5548 24.5518 40.6258 24.5791 40.653 24.6392C40.6803 24.6993 40.653 24.7703 40.593 24.7977L30.1359 29.4857L28.9576 40.9052C28.9522 40.9653 28.9031 41.0145 28.8431 41.0145Z" fill="#E6D0BE"/>
<path d="M32.9131 32.3035C34.5108 30.7032 34.5108 28.1086 32.9131 26.5082C31.3154 24.9079 28.725 24.9079 27.1273 26.5082C25.5296 28.1086 25.5296 30.7032 27.1273 32.3035C28.725 33.9038 31.3154 33.9038 32.9131 32.3035Z" fill="#D3BBA3"/>
<path d="M41.4422 26.0438C42.1839 25.5588 42.3927 24.5634 41.9084 23.8205C41.4242 23.0775 40.4304 22.8685 39.6887 23.3535C38.947 23.8385 38.7382 24.8339 39.2225 25.5769C39.7067 26.3198 40.7005 26.5289 41.4422 26.0438Z" fill="#E6D0BE"/>
<path d="M31.1884 43.2387C32.4751 41.9499 32.4751 39.8604 31.1884 38.5716C29.9018 37.2828 27.8156 37.2828 26.529 38.5716C25.2423 39.8604 25.2423 41.9499 26.529 43.2387C27.8156 44.5275 29.9018 44.5275 31.1884 43.2387Z" fill="#E6D0BE"/>
<path d="M63.4528 83.8785L69.006 123C48.4517 122.022 37.8801 110.755 32.7852 101.062L33.8543 88.7633L63.4528 83.8785Z" fill="#EFBC73"/>
<path d="M52.7344 51.6143C52.7344 51.6143 56.7983 46.0193 64.1352 53.4775C71.4721 60.9303 75.0069 73.2568 75.0069 73.2568L63.8352 77.5623L52.7344 51.6143Z" fill="white"/>
<path d="M32.6659 57.0782C37.3408 54.9254 45.0377 51.9367 53.4656 50.9149L69.5686 89.2277L37.3026 95.0194L33.8497 88.3534L32.1532 95.9428L28.8747 97.0574L28.002 64.3725C28.002 61.2362 29.8239 58.384 32.6659 57.0782Z" fill="#00756A"/>
<path d="M35.3711 56.5264C35.3711 56.5264 42.1243 52.9967 49.0575 52.0624L49.5267 65.2522L35.3711 56.5264Z" fill="white"/>
<path d="M79.1579 85.5724H61.7676L69.6281 61.7444H87.024L79.1579 85.5724Z" fill="#363E44"/>
<path d="M82.731 76.1745C83.9693 76.5242 84.3129 77.1526 84.1656 77.7645C84.0184 78.3765 83.4292 78.7426 82.1909 78.3929C80.9527 78.0432 79.5344 77.1143 79.6871 76.5024C79.8344 75.885 81.4927 75.8249 82.731 76.1745Z" fill="#E2A18D"/>
<path d="M82.9762 73.9835C84.4108 74.3878 84.8145 75.1145 84.6399 75.8248C84.4654 76.5351 83.7835 76.9558 82.3543 76.5515C80.9196 76.1472 79.2777 75.0653 79.4523 74.3605C79.6159 73.6502 81.5415 73.5791 82.9762 73.9835Z" fill="#E2A18D"/>
<path d="M83.5926 72.6285C84.8308 72.9781 85.42 72.6121 85.5672 72.0001C85.7145 71.3882 85.3709 70.7598 84.1326 70.4101C82.8943 70.0604 81.236 70.1205 81.0887 70.7325C80.9415 71.3499 82.3543 72.2788 83.5926 72.6285Z" fill="#E2A18D"/>
<path d="M82.8063 74.6665C84.2409 75.0708 84.9228 74.6501 85.0919 73.9398C85.2664 73.2295 84.8628 72.5028 83.4281 72.0985C81.9935 71.6941 80.0733 71.7652 79.8988 72.4755C79.7297 73.1803 81.3716 74.2622 82.8063 74.6665Z" fill="#E2A18D"/>
<path d="M59.3513 65.9953C59.3513 65.9953 58.6422 63.9464 56.4002 66.05C54.1582 68.159 49.7452 73.1585 46.7831 72.4864C43.8211 71.8144 38.2352 54.5376 29.0218 59.0507C19.8084 63.5639 27.1071 77.9831 31.2474 82.8022C35.3877 87.6214 42.2446 92.0799 49.9688 91.2002C57.693 90.3205 63.7316 76.5297 64.5717 74.8031C66.0827 71.7051 59.3513 65.9953 59.3513 65.9953Z" fill="white"/>
<path d="M59.5758 64.2632C59.5758 64.2632 64.7853 55.6303 68.3092 56.7996C71.8331 57.9688 67.2237 58.3021 67.4473 59.537C67.4473 59.537 69.7111 60.0397 69.2256 61.422C69.2256 61.422 70.2675 62.2744 70.1966 62.9574C70.1966 62.9574 72.4277 64.7768 71.3258 65.6948C70.3821 66.4816 70.0002 64.8916 68.9747 65.0773C67.9546 65.2631 67.5891 69.3774 65.5163 69.5031L64.1362 72.6066C64.1416 72.6066 59.2322 67.1318 59.5758 64.2632Z" fill="#E2A18D"/>
<path d="M68.0362 63.1868C68.0035 63.1868 67.9762 63.1759 67.9489 63.1486C67.8998 63.0994 67.8998 63.0229 67.9489 62.9792C68.4944 62.4328 69.6072 62.7115 69.6563 62.7224C69.7218 62.7388 69.76 62.8044 69.7436 62.8699C69.7272 62.9355 69.6618 62.9737 69.5963 62.9573C69.5854 62.9573 68.5708 62.7005 68.118 63.1486C68.0962 63.1759 68.0635 63.1868 68.0362 63.1868Z" fill="#363E44"/>
<path d="M67.1531 61.5423C67.1203 61.5423 67.0822 61.5259 67.0603 61.4986C67.0167 61.4494 67.0222 61.3729 67.0767 61.3292C67.104 61.3073 67.704 60.8156 68.675 61.2199C68.735 61.2472 68.7677 61.3183 68.7405 61.3784C68.7132 61.4385 68.6423 61.4713 68.5823 61.4439C67.7531 61.0942 67.2567 61.4986 67.2349 61.515C67.2076 61.5314 67.1804 61.5423 67.1531 61.5423Z" fill="#363E44"/>
<path d="M60.0655 63.1377L58.6309 65.3834C58.6309 65.3834 60.9601 71.2734 64.1404 73.2513L65.3023 70.9347C65.3023 70.9347 61.6638 65.6183 60.0655 63.1377Z" fill="white"/>
<path d="M63.8357 72.8852C63.8193 72.8852 63.8084 72.8852 63.792 72.8743C61.0973 71.7979 59.7117 68.006 59.6572 67.8475C59.6354 67.7874 59.6681 67.7164 59.7281 67.6945C59.7881 67.6727 59.859 67.7055 59.8808 67.7656C59.8972 67.8038 61.2882 71.6121 63.8793 72.6503C63.9393 72.6721 63.972 72.7432 63.9448 72.8087C63.9284 72.8579 63.8848 72.8852 63.8357 72.8852Z" fill="#E6D0BE"/>
<path d="M44.4115 75.945C44.3351 75.945 44.2533 75.934 44.1769 75.9176C43.9696 75.863 43.806 75.7428 43.7132 75.5734C43.4896 75.1636 43.7514 74.6883 43.926 74.4424C44.3569 73.8304 44.9788 73.3441 45.677 73.071C45.737 73.0491 45.8079 73.0764 45.8352 73.1365C45.857 73.1966 45.8297 73.2677 45.7697 73.295C45.1152 73.5518 44.5315 74.0107 44.1278 74.5844C43.986 74.7866 43.7678 75.1691 43.9314 75.4641C44.0078 75.6062 44.1442 75.6663 44.2424 75.6882C44.4387 75.7373 44.6788 75.6936 44.8479 75.5843C45.1752 75.3658 45.3606 74.9615 45.5134 74.6336C45.5406 74.5735 45.6116 74.5462 45.6716 74.5735C45.7316 74.6008 45.7588 74.6719 45.7316 74.732C45.5679 75.0871 45.3661 75.5297 44.9842 75.781C44.8151 75.8849 44.6133 75.945 44.4115 75.945Z" fill="#E6D0BE"/>
<path d="M47.8588 75.8739C47.8097 75.8739 47.766 75.8466 47.7497 75.8029L46.866 73.7321C46.8387 73.672 46.866 73.6009 46.9314 73.5736C46.9914 73.5463 47.0623 73.5736 47.0896 73.6392L47.9733 75.71C48.0006 75.7701 47.9733 75.8411 47.9079 75.8685C47.8915 75.8685 47.8751 75.8739 47.8588 75.8739Z" fill="#E6D0BE"/>
<path d="M60.0169 65.8915C59.706 65.8915 59.4551 65.6402 59.4551 65.3287C59.4551 65.0173 59.706 64.7605 60.0169 64.7605C60.3279 64.7605 60.5788 65.0118 60.5788 65.3287C60.5843 65.6402 60.3333 65.8915 60.0169 65.8915ZM60.0169 65.0009C59.8369 65.0009 59.6951 65.1484 59.6951 65.3233C59.6951 65.5036 59.8424 65.6456 60.0169 65.6456C60.1915 65.6456 60.3388 65.4981 60.3388 65.3233C60.3442 65.1484 60.1969 65.0009 60.0169 65.0009Z" fill="#E6D0BE"/>
<path d="M64.3863 72.8852C64.37 72.8852 64.3481 72.8797 64.3318 72.8743C64.2718 72.8469 64.25 72.7704 64.2772 72.7103L65.0137 71.2351C65.0409 71.175 65.1173 71.1531 65.1773 71.1805C65.2373 71.2078 65.2591 71.2843 65.2318 71.3444L64.4954 72.8196C64.4682 72.8579 64.43 72.8852 64.3863 72.8852Z" fill="#E6D0BE"/>
<path d="M40.1488 57.8213C39.9743 57.8213 39.7888 57.7612 39.6088 57.6465C39.3415 57.4716 39.1233 57.193 38.9869 56.8542C38.6978 56.1439 38.8724 55.3953 39.3851 55.1877C39.6415 55.0839 39.9361 55.1276 40.2143 55.3079C40.4816 55.4828 40.6998 55.7614 40.8361 56.1002C41.1253 56.8105 40.9507 57.559 40.4379 57.7667C40.3452 57.8049 40.247 57.8213 40.1488 57.8213ZM39.6633 55.3735C39.5979 55.3735 39.5324 55.3844 39.467 55.4117C39.0797 55.5702 38.9596 56.1767 39.1997 56.7668C39.3197 57.0618 39.5106 57.3022 39.7342 57.4498C39.947 57.5864 40.1597 57.6246 40.3397 57.5481C40.727 57.3897 40.8471 56.7832 40.607 56.1931C40.487 55.898 40.2961 55.6576 40.0725 55.5101C39.9361 55.4172 39.7997 55.3735 39.6633 55.3735Z" fill="#E0AA63"/>
<path d="M41.2955 59.0233C40.9791 59.0233 40.6246 58.9086 40.3082 58.6736C39.6918 58.2146 39.4572 57.4825 39.7845 57.0399C40.1118 56.5973 40.8809 56.6083 41.4974 57.0672C42.1138 57.5262 42.3483 58.2583 42.021 58.7009C41.8628 58.914 41.5955 59.0233 41.2955 59.0233ZM40.51 56.9525C40.2864 56.9525 40.09 57.029 39.9754 57.182C39.7245 57.5207 39.9372 58.0999 40.45 58.4769C40.9628 58.8539 41.5792 58.8922 41.8247 58.5534C42.0756 58.2146 41.8628 57.6355 41.3501 57.2585C41.0773 57.0563 40.7718 56.9525 40.51 56.9525Z" fill="#E0AA63"/>
<path d="M42.8596 59.7883C42.7069 59.7883 42.5432 59.7665 42.385 59.7227C42.0304 59.6299 41.725 59.4495 41.5177 59.2091C41.2995 58.9578 41.2177 58.6682 41.2886 58.4059C41.3595 58.1382 41.5668 57.9306 41.8832 57.8158C42.1777 57.7066 42.5378 57.7011 42.8923 57.794C43.6342 57.9907 44.1251 58.5808 43.9833 59.1162C43.8742 59.526 43.4105 59.7883 42.8596 59.7883ZM42.4068 57.9688C42.2486 57.9688 42.1014 57.9907 41.965 58.0399C41.7304 58.1273 41.5722 58.2748 41.5231 58.466C41.474 58.6518 41.5395 58.8649 41.7031 59.0507C41.8777 59.2528 42.1395 59.4113 42.445 59.4933C43.0614 59.6572 43.6451 59.455 43.7488 59.0507C43.8524 58.6464 43.4433 58.1874 42.8269 58.0235C42.685 57.9852 42.5432 57.9688 42.4068 57.9688Z" fill="#E0AA63"/>
<path d="M44.3479 59.6844C43.7806 59.6844 43.3061 59.4167 43.2024 58.9905C43.0715 58.4551 43.5733 57.8704 44.3207 57.6901C45.068 57.5098 45.7771 57.7939 45.9081 58.3349C46.039 58.8703 45.5371 59.4549 44.7898 59.6353C44.6425 59.668 44.4898 59.6844 44.3479 59.6844ZM44.7734 57.8759C44.648 57.8759 44.5116 57.8923 44.3752 57.9251C43.7588 58.0726 43.3388 58.5261 43.437 58.9359C43.5352 59.3402 44.1188 59.5533 44.7352 59.4003C45.3517 59.2473 45.7717 58.7993 45.6735 58.3895C45.5971 58.0726 45.2262 57.8759 44.7734 57.8759Z" fill="#E0AA63"/>
<path d="M45.9587 59.0452C45.6478 59.0452 45.375 58.9304 45.2114 58.7064C45.0532 58.4824 45.0259 58.1874 45.1404 57.8704C45.2495 57.5754 45.4732 57.2913 45.7678 57.0782C46.3951 56.6301 47.1642 56.6356 47.4806 57.0836C47.8025 57.5317 47.5515 58.2584 46.9242 58.7064C46.6187 58.9304 46.2696 59.0452 45.9587 59.0452ZM46.7387 56.9853C46.4824 56.9853 46.1823 57.0836 45.9096 57.2803C45.6532 57.4661 45.4623 57.7011 45.3695 57.9579C45.2823 58.1928 45.2986 58.4114 45.4132 58.5698C45.6532 58.9086 46.2751 58.8867 46.7933 58.5206C47.3115 58.1491 47.5352 57.5754 47.2897 57.2312C47.1697 57.0673 46.9733 56.9853 46.7387 56.9853Z" fill="#E0AA63"/>
<path d="M47.3107 57.6136C47.2398 57.6136 47.1689 57.6027 47.1035 57.5863C46.5743 57.4279 46.3234 56.7012 46.5416 55.9635C46.7598 55.2259 47.3653 54.756 47.8944 54.909C48.4236 55.0675 48.6745 55.7942 48.4563 56.5318C48.2708 57.1711 47.7853 57.6136 47.3107 57.6136ZM47.6817 55.1221C47.3162 55.1221 46.9344 55.4936 46.7707 56.0346C46.5907 56.6465 46.7707 57.2366 47.1689 57.3568C47.5671 57.477 48.0417 57.0782 48.2217 56.4662C48.4017 55.8543 48.2217 55.2642 47.8235 55.144C47.7799 55.1276 47.7308 55.1221 47.6817 55.1221Z" fill="#E0AA63"/>
<path d="M47.8014 55.7013C47.5505 55.7013 47.3105 55.5756 47.1141 55.3407C46.9123 55.1003 46.7813 54.7615 46.7486 54.4009C46.6777 53.636 47.065 52.9694 47.6159 52.9202C47.8887 52.8929 48.156 53.024 48.3742 53.2753C48.576 53.5157 48.7069 53.8545 48.7397 54.2151C48.7724 54.5757 48.7069 54.9309 48.5487 55.2041C48.3851 55.4937 48.1451 55.6685 47.8723 55.6958C47.8451 55.7013 47.8232 55.7013 47.8014 55.7013ZM47.6814 53.1606C47.665 53.1606 47.6487 53.1606 47.6378 53.1606C47.2232 53.1988 46.9286 53.7452 46.9886 54.379C47.0159 54.6959 47.1305 54.9801 47.2996 55.1877C47.4632 55.3789 47.6541 55.4773 47.8505 55.4609C48.0414 55.4445 48.216 55.3134 48.3415 55.0948C48.4724 54.8599 48.5269 54.5593 48.4996 54.2424C48.4724 53.9255 48.3578 53.6414 48.1887 53.4338C48.036 53.2589 47.8614 53.1606 47.6814 53.1606Z" fill="#E0AA63"/>
<path d="M50.8474 68.006C50.8256 68.006 50.8038 68.0006 50.7819 67.9896L34.428 57.6247C34.3735 57.5864 34.3571 57.5154 34.3898 57.4607C34.428 57.4061 34.4989 57.3897 34.5535 57.4225L50.7165 67.6673L50.3128 52.6525C50.3128 52.587 50.3619 52.5323 50.4274 52.5269C50.4928 52.5269 50.5474 52.576 50.5528 52.6416L50.962 67.8858C50.962 67.9295 50.9401 67.9733 50.9019 67.9951C50.8856 68.0006 50.8638 68.006 50.8474 68.006Z" fill="white"/>
<path d="M30.043 50.6307C30.043 50.6307 45.0495 57.7775 54.6884 45.1286C54.6884 45.1286 49.0534 39.326 44.4986 37.4683C39.9491 35.616 35.6343 38.3042 30.043 50.6307Z" fill="#363E44"/>
<path d="M38.8249 38.6485C38.8249 38.6485 37.543 31.835 31.7989 34.25C27.7623 35.9439 30.3534 39.7522 32.7044 40.162C35.1319 40.5827 38.8249 38.6485 38.8249 38.6485Z" fill="#363E44"/>
<path d="M38.8245 38.7687C38.8191 38.7687 38.8136 38.7687 38.8082 38.7687C38.7427 38.7578 38.6936 38.6977 38.7045 38.6321C38.71 38.5993 39.1027 35.2937 37.5372 34.1736C36.7189 33.5944 35.5025 33.6982 33.9096 34.485C33.8496 34.5123 33.7787 34.4905 33.746 34.4304C33.7187 34.3703 33.7405 34.2993 33.8005 34.2665C35.4752 33.436 36.7789 33.3376 37.6735 33.9769C39.3591 35.1789 38.9609 38.5174 38.9445 38.6594C38.9336 38.725 38.8791 38.7687 38.8245 38.7687Z" fill="#363E44"/>
<path d="M33.3001 50.8439C33.2947 50.8439 33.2947 50.8439 33.2892 50.8439C33.2237 50.8384 33.1746 50.7783 33.1801 50.7127C33.671 45.0412 36.4094 42.3147 36.4367 42.2874C36.4858 42.2437 36.5622 42.2437 36.6058 42.2874C36.6494 42.3366 36.6494 42.4131 36.6058 42.4568C36.5785 42.4841 33.9056 45.156 33.4201 50.7291C33.4147 50.7947 33.3601 50.8439 33.3001 50.8439Z" fill="#2D353A"/>
<path d="M34.5369 39.4354C33.5987 39.4354 32.7531 39.1622 32.0222 38.6212C30.893 37.7907 30.4184 36.5832 30.4239 36.4466C30.4239 36.3811 30.4784 36.3264 30.5439 36.3264C30.6039 36.3264 30.6584 36.3756 30.6639 36.4357C30.7021 36.6105 31.2476 37.9109 32.5186 38.654C33.5987 39.2824 34.9024 39.3589 36.397 38.8671C36.4625 38.8453 36.528 38.8835 36.5498 38.9436C36.5716 39.0092 36.5334 39.0748 36.4734 39.0966C35.7861 39.3206 35.1424 39.4354 34.5369 39.4354Z" fill="#2D353A"/>
<path d="M48.4079 48.2158C47.366 49.5544 42.8657 48.112 42.8657 48.112L39.3964 44.2708C38.7145 41.9869 40.0128 39.5774 42.2984 38.8998C44.5786 38.2169 46.9842 39.5173 47.6606 41.8066C47.6661 41.8066 49.4717 46.8553 48.4079 48.2158Z" fill="#E2A18D"/>
<path d="M46.1816 54.3517L45.8161 44.6915L40.5957 44.9265L40.9612 54.5866C41.0266 56.0291 42.2485 57.1492 43.6887 57.0836C45.1288 57.0181 46.247 55.7941 46.1816 54.3517Z" fill="#E2A18D"/>
<path d="M47.5137 43.036C47.5137 43.036 49.0356 43.9048 49.0683 44.2435C49.1065 44.6479 47.8846 45.2707 47.8846 45.2707C47.8846 45.2707 47.5464 43.0306 47.5137 43.036Z" fill="#E2A18D"/>
<path d="M43.7832 44.5276C43.7832 44.5276 44.1378 43.7846 44.8415 43.271C44.9887 43.1617 45.5833 44.5659 45.3924 44.6041C44.5469 44.7626 43.7832 44.5276 43.7832 44.5276Z" fill="white"/>
<path d="M45.9648 44.4293C46.9958 43.9758 47.514 42.883 47.514 42.883C47.514 42.883 46.363 42.5279 45.3266 42.9868C45.1465 43.0688 44.9829 43.1671 44.8302 43.2764C44.7701 43.8009 44.9883 44.2982 45.3811 44.6096C45.5775 44.5659 45.7739 44.5113 45.9648 44.4293Z" fill="#363E44"/>
<path d="M46.9081 46.44C46.8426 46.44 46.7717 46.4291 46.7062 46.4127C46.4444 46.3362 46.2426 46.1121 46.1989 45.839C46.188 45.7734 46.2317 45.7133 46.2971 45.7024C46.3626 45.6914 46.4226 45.7351 46.4335 45.8007C46.4662 45.981 46.5971 46.134 46.7717 46.1832C46.9517 46.2378 47.1536 46.1777 47.279 46.0302C47.3227 45.981 47.399 45.9756 47.4481 46.0193C47.4972 46.063 47.5027 46.1395 47.459 46.1886C47.3172 46.3471 47.1154 46.44 46.9081 46.44Z" fill="#363E44"/>
<path d="M46.2152 48.9644H46.2098C44.6442 48.866 42.8768 48.3087 42.8604 48.3032C42.795 48.2814 42.7623 48.2158 42.7841 48.1503C42.8059 48.0847 42.8714 48.0519 42.9368 48.0738C42.9532 48.0792 44.6933 48.6311 46.2261 48.724C46.2916 48.7294 46.3407 48.7841 46.3407 48.8496C46.3298 48.9152 46.2752 48.9644 46.2152 48.9644Z" fill="#363E44"/>
<path d="M39.1854 46.8989C37.9526 46.3088 37.5762 43.402 38.3345 41.5388C39.3109 39.1402 42.1366 37.7196 44.4222 37.9108C44.984 37.96 46.2659 38.2332 46.6969 39.0364C47.0296 39.6593 46.3969 40.9597 45.3222 41.3312C43.8167 41.8558 41.7056 41.5061 42.4857 43.2272C44.8477 48.4397 40.5383 47.5491 39.1854 46.8989Z" fill="#363E44"/>
</g>
<defs>
<clipPath id="clip0_2562_5111">
<rect width="100" height="100" fill="white" transform="translate(23 23)"/>
</clipPath>
</defs>
</svg>
