<svg width="146" height="145" viewBox="0 0 146 145" fill="none" xmlns="http://www.w3.org/2000/svg">
<circle cx="41.5" cy="103.5" r="41.5" fill="#00756A"/>
<ellipse cx="104.5" cy="42" rx="41.5" ry="42" fill="#00756A"/>
<g clip-path="url(#clip0_2562_5112)">
<path d="M73 123C100.614 123 123 100.614 123 73C123 45.3858 100.614 23 73 23C45.3858 23 23 45.3858 23 73C23 100.614 45.3858 123 73 123Z" fill="#F2E6DC"/>
<path d="M97.9175 41.06H92.4609L93.1826 23.0546L97.9175 25.9234V41.06Z" fill="#E0AA63"/>
<path d="M93.186 23.0546H85.0176V41.06H93.186V23.0546Z" fill="#FFD092"/>
<path d="M97.814 41.0571H105.982V23.0517H97.814V41.0571Z" fill="#FFD092"/>
<path d="M85.9824 40.0874V24.0219H93.1721L93.5822 24.4481L94.4734 40.0874H85.9824Z" fill="white"/>
<path d="M97.9087 40.0874H93.1738V24.0219L97.9087 26.8962V40.0874Z" fill="#F2E6DC"/>
<path d="M97.8113 30.295C97.8003 30.295 97.7894 30.295 97.7839 30.2896L93.1585 27.448H85.9961C85.9633 27.448 85.9414 27.4262 85.9414 27.3934C85.9414 27.3606 85.9633 27.3387 85.9961 27.3387H93.1913L93.2022 27.3442L97.8441 30.1967C97.8714 30.2131 97.8769 30.2458 97.8605 30.2732C97.8496 30.2896 97.8277 30.295 97.8113 30.295Z" fill="#E6D0BE"/>
<path d="M97.8062 38.0546C97.7898 38.0546 97.7789 38.0491 97.768 38.0382L93.1643 33.3715H87.7188V24.0218C87.7188 23.989 87.7406 23.9672 87.7734 23.9672C87.8062 23.9672 87.8281 23.989 87.8281 24.0218V33.2622H93.2081L97.8445 37.9617C97.8664 37.9836 97.8664 38.0163 97.8445 38.0382C97.8336 38.0491 97.8226 38.0546 97.8062 38.0546Z" fill="#E6D0BE"/>
<path d="M88.7353 40.0546C88.7189 40.0546 88.708 40.0491 88.697 40.0382C88.6752 40.0163 88.6752 39.9835 88.697 39.9617L90.4411 38.2185V29.7486H86.0508C86.018 29.7486 85.9961 29.7267 85.9961 29.6939C85.9961 29.6611 86.018 29.6393 86.0508 29.6393H90.5505V38.2677L88.7736 40.0437C88.7626 40.0491 88.7462 40.0546 88.7353 40.0546Z" fill="#E6D0BE"/>
<path d="M95.5527 40.0546C95.5199 40.0546 95.498 40.0327 95.498 39.9999V30.989L97.7834 28.4207C97.8053 28.3989 97.8381 28.3989 97.86 28.4152C97.8819 28.4371 97.8819 28.4699 97.8655 28.4918L95.6074 31.0273V39.9945C95.6074 40.0327 95.5855 40.0546 95.5527 40.0546Z" fill="#E6D0BE"/>
<path d="M94.4199 29.4044V24.8907C94.4199 24.8579 94.4418 24.8361 94.4746 24.8361C94.5074 24.8361 94.5293 24.8579 94.5293 24.8907V29.1366L97.1263 26.541C97.1482 26.5191 97.181 26.5191 97.2029 26.541C97.2247 26.5628 97.2247 26.5956 97.2029 26.6175L94.4199 29.4044Z" fill="#E6D0BE"/>
<path d="M105.016 40.0872V24.0216H97.8204V40.0872H105.016Z" fill="white"/>
<path d="M103.208 40.0546C103.175 40.0546 103.153 40.0327 103.153 40V35.1694L100.059 32.0765V24.0218C100.059 23.989 100.08 23.9672 100.113 23.9672C100.146 23.9672 100.168 23.989 100.168 24.0218V32.0327L103.263 35.1256V40C103.263 40.0327 103.241 40.0546 103.208 40.0546Z" fill="#E6D0BE"/>
<path d="M101.143 36.0929H97.8183C97.7855 36.0929 97.7637 36.0711 97.7637 36.0383C97.7637 36.0055 97.7855 35.9837 97.8183 35.9837H101.099L105.014 32.0711C105.035 32.0492 105.068 32.0492 105.09 32.0711C105.112 32.0929 105.112 32.1257 105.09 32.1476L101.143 36.0929Z" fill="#E6D0BE"/>
<path d="M105.018 28.7103H102.076V24.0218C102.076 23.989 102.098 23.9672 102.131 23.9672C102.164 23.9672 102.186 23.989 102.186 24.0218V28.601H105.018C105.05 28.601 105.072 28.6229 105.072 28.6557C105.072 28.6885 105.05 28.7103 105.018 28.7103Z" fill="#E6D0BE"/>
<path d="M122.568 50.4809H56.4551C56.4223 50.4809 56.4004 50.459 56.4004 50.4262V43.4262C56.4004 43.3934 56.4223 43.3716 56.4551 43.3716H122.568C122.6 43.3716 122.622 43.3934 122.622 43.4262V50.4262C122.622 50.459 122.595 50.4809 122.568 50.4809ZM56.5097 50.3716H122.513V43.4809H56.5097V50.3716Z" fill="#363E44"/>
<path d="M119.12 87.623C119.087 87.623 119.065 87.6011 119.065 87.5683V51.5519H59.9511V87.5683C59.9511 87.6011 59.9293 87.623 59.8965 87.623C59.8637 87.623 59.8418 87.6011 59.8418 87.5683V51.4973C59.8418 51.4645 59.8637 51.4426 59.8965 51.4426H119.12C119.153 51.4426 119.175 51.4645 119.175 51.4973V87.5683C119.175 87.6011 119.147 87.623 119.12 87.623Z" fill="#363E44"/>
<path d="M115.178 53.5245H63.8438V83.7103H115.178V53.5245Z" fill="white"/>
<path d="M110.271 87.623C110.238 87.623 110.216 87.6011 110.216 87.5683V79.9016H68.7949V87.5683C68.7949 87.6011 68.773 87.623 68.7402 87.623C68.7074 87.623 68.6855 87.6011 68.6855 87.5683V79.847C68.6855 79.8142 68.7074 79.7924 68.7402 79.7924H110.271C110.304 79.7924 110.326 79.8142 110.326 79.847V87.5683C110.326 87.6011 110.298 87.623 110.271 87.623Z" fill="#363E44"/>
<path d="M108.77 77.2458H70.252V81.3224H108.77V77.2458Z" fill="#8B865C"/>
<path d="M112.052 49.4735C116.11 49.4735 119.399 46.1941 119.399 42.1488C119.399 38.1035 116.11 34.8241 112.052 34.8241C107.994 34.8241 104.705 38.1035 104.705 42.1488C104.705 46.1941 107.994 49.4735 112.052 49.4735Z" fill="white"/>
<path d="M113.895 40.3433L112.747 39.1394C112.621 39.0068 112.414 39.0033 112.285 39.1254L111.147 40.2003C110.993 40.3433 110.853 40.5039 110.734 40.6749C110.405 41.139 110.223 41.5124 110.195 42.008C110.195 42.0149 110.195 42.0254 110.195 42.0324C110.195 42.0568 110.195 42.0813 110.191 42.1057C110.191 42.1161 110.191 42.1301 110.191 42.1406C110.191 42.1441 110.191 42.151 110.191 42.1545C110.191 42.172 110.191 42.1894 110.191 42.2034C110.191 42.2278 110.191 42.2522 110.195 42.2732C110.195 42.2802 110.195 42.2906 110.198 42.2976C110.265 43.2608 110.93 44.06 111.826 44.3287C112.047 44.402 112.26 44.4299 112.46 44.4229C112.467 44.4229 112.477 44.4229 112.484 44.4229C113.433 44.4229 114.248 43.8471 114.595 43.027C114.721 42.7548 114.78 42.4616 114.773 42.165C114.773 42.1545 114.773 42.1441 114.773 42.1336C114.773 41.4112 114.413 40.9122 113.895 40.3433ZM111.053 42.9572C110.863 42.9572 110.709 42.7303 110.709 42.4547C110.709 42.1755 111.053 41.2716 111.053 41.2716C111.053 41.2716 111.017 42.1755 111.017 42.4547C111.017 42.7303 111.242 42.9572 111.053 42.9572Z" fill="#363E44"/>
<path d="M112.918 48.6177C108.823 48.6177 105.488 45.2965 105.488 41.2101C105.488 37.1274 108.82 33.8025 112.918 33.8025C117.017 33.8025 120.349 37.1237 120.349 41.2101C120.349 45.2965 117.014 48.6177 112.918 48.6177ZM112.918 33.9684C108.914 33.9684 105.655 37.2179 105.655 41.2101C105.655 45.2023 108.914 48.4518 112.918 48.4518C116.923 48.4518 120.182 45.2023 120.182 41.2101C120.182 37.2179 116.923 33.9684 112.918 33.9684Z" fill="#363E44"/>
<path d="M72.8373 73.0326H86.2188V70.3591H72.8373V73.0326Z" fill="#D3BBA3"/>
<path d="M73.1454 73.5702V69.8175L70.7578 71.6383L73.1454 73.5702Z" fill="#D3BBA3"/>
<path d="M87.0762 73.8322C85.2766 73.8322 83.4859 73.4414 81.8065 72.6598C78.7863 71.2564 76.4922 68.7605 75.3518 65.6341C74.2115 62.512 74.3629 59.1324 75.7706 56.1169C77.1782 53.1059 79.6817 50.8187 82.8177 49.6818C85.9492 48.5449 89.3391 48.6959 92.3638 50.0993C95.3839 51.5026 97.678 53.9985 98.8184 57.125C99.9588 60.2471 99.8073 63.6267 98.3997 66.6422C96.992 69.6532 94.4886 71.9403 91.3526 73.0772C89.9583 73.5835 88.515 73.8322 87.0762 73.8322ZM87.0896 49.1267C85.673 49.1267 84.252 49.3754 82.8845 49.8728C79.8019 50.9919 77.3386 53.2391 75.9488 56.2057C74.5634 59.1723 74.4164 62.4987 75.5345 65.5719C76.657 68.6451 78.911 71.101 81.8867 72.4866C84.8623 73.8677 88.1988 74.0143 91.2813 72.8996C94.3639 71.7805 96.8272 69.5333 98.217 66.5667C99.6024 63.6001 99.7494 60.2737 98.6313 57.2005C97.5088 54.1273 95.2548 51.6714 92.2791 50.2858C90.6265 49.5131 88.8625 49.1267 87.0896 49.1267ZM87.0896 69.9285C83.5883 69.9285 80.2919 67.7702 79.0268 64.3017C77.4098 59.874 79.7084 54.9622 84.154 53.3501C88.5952 51.738 93.5219 54.0296 95.139 58.4618C96.756 62.8895 94.4574 67.8013 90.0118 69.4134C89.0496 69.7642 88.0607 69.9285 87.0896 69.9285ZM87.0762 53.0304C86.1274 53.0304 85.1652 53.1902 84.2209 53.5322C79.8821 55.1043 77.6326 59.9051 79.2139 64.2351C80.4478 67.6236 83.6685 69.7331 87.094 69.7331C88.0429 69.7331 89.005 69.5733 89.9494 69.2313C94.2881 67.6592 96.5377 62.8584 94.9563 58.5284C93.718 55.1399 90.4973 53.0304 87.0762 53.0304Z" fill="#F7F1EB"/>
<path d="M91.1462 72.5265C88.1616 73.6101 84.9321 73.468 82.05 72.1268C79.1723 70.7856 76.9851 68.4097 75.9027 65.4342C74.8158 62.4587 74.9583 59.2389 76.3036 56.3656C77.6489 53.4966 80.032 51.3161 83.0166 50.2369C86.0011 49.1533 89.2307 49.2954 92.1128 50.6366C94.9904 51.9778 97.1776 54.3538 98.2601 57.3293C99.347 60.3048 99.2044 63.5245 97.8592 66.3979C96.5183 69.2668 94.1352 71.4429 91.1462 72.5265ZM84.0189 52.9859C79.3728 54.6691 76.9718 59.8074 78.66 64.4394C80.3483 69.0714 85.5022 71.4651 90.1483 69.782C94.7944 68.0988 97.1954 62.9605 95.5072 58.3285C93.8144 53.6965 88.6605 51.3028 84.0189 52.9859Z" fill="white"/>
<path d="M78.6593 64.435C78.3831 63.68 78.2183 62.9073 78.1515 62.1434L75.207 62.1612C75.2828 63.267 75.5144 64.364 75.9019 65.4342C76.7973 67.8946 78.4455 69.9419 80.6104 71.3364L82.0626 68.7828C80.548 67.7614 79.3275 66.278 78.6593 64.435Z" fill="#D87355"/>
<path d="M87.8711 52.4842C91.2298 52.7862 94.2812 54.9668 95.5062 58.3286C96.4416 60.8955 96.1209 63.6223 94.8558 65.8251L97.288 67.4816C97.4974 67.1308 97.6934 66.771 97.8671 66.3936C99.2124 63.5246 99.3505 60.3004 98.268 57.3249C97.1811 54.3494 94.9984 51.969 92.1207 50.6323C90.771 50.0061 89.3456 49.6419 87.9023 49.5398L87.8711 52.4842Z" fill="#8B865C"/>
<path d="M78.1423 60.7311C78.3962 57.3293 80.6012 54.225 84.0178 52.986C84.8196 52.6929 85.6393 52.5241 86.45 52.4708L86.4723 49.5353C85.3052 49.5975 84.1426 49.8284 83.0111 50.2414C80.0265 51.325 77.6389 53.5011 76.2981 56.37C75.6433 57.769 75.2735 59.2523 75.1934 60.7534L78.1423 60.7311Z" fill="#EFBC73"/>
<path d="M94.059 66.993C93.0701 68.2188 91.7426 69.2002 90.1523 69.7776C87.8315 70.6169 85.386 70.4437 83.3057 69.4756L81.8535 72.0292C81.9203 72.0603 81.9872 72.0958 82.0584 72.1269C84.9361 73.4681 88.1701 73.6058 91.1546 72.5266C93.2973 71.7494 95.1325 70.4082 96.4912 68.6496L94.059 66.993Z" fill="#EFBC73"/>
<path d="M99.2344 73.6457V69.8931L101.622 71.7139L99.2344 73.6457Z" fill="#EFBC73"/>
<path d="M94.0514 66.9929C93.0625 68.2186 91.735 69.2001 90.1447 69.7775C89.6859 69.9462 88.893 70.2438 86.7949 70.3148C86.8216 71.3007 88.8262 72.1179 88.9019 73.1038C89.6592 72.9839 90.412 72.7929 91.147 72.5265C93.2897 71.7493 95.1249 70.4081 96.4836 68.6494L94.0514 66.9929Z" fill="#D3BBA3"/>
<path d="M99.5297 73.1039L86.5313 73.2371L86.166 70.3282L99.5297 70.4304V73.1039Z" fill="#EFBC73"/>
<path d="M109.54 88.0536C109.24 88.0019 108.933 87.974 108.638 87.8985C106.334 87.3022 104.858 85.8909 104.222 83.6606C104.001 82.8894 104.124 82.13 104.345 81.3787C104.681 80.2417 105.231 79.2001 105.846 78.1863C106.965 76.3337 108.285 74.6203 109.708 72.9784C109.901 72.7558 110.11 72.7558 110.298 72.9744C111.938 74.8707 113.447 76.8505 114.648 79.0411C115.075 79.8163 115.423 80.6193 115.685 81.4621C116.059 82.6508 115.903 83.7759 115.325 84.8572C114.398 86.5945 112.926 87.6321 110.942 87.986C110.782 88.0138 110.618 88.0337 110.458 88.0536C110.155 88.0536 109.847 88.0536 109.54 88.0536ZM109.675 82.3407C109.675 82.4282 109.675 82.4918 109.675 82.5554C109.675 83.601 109.675 84.6465 109.675 85.6921C109.675 85.7597 109.675 85.8312 109.687 85.8988C109.724 86.0857 109.933 86.2049 110.106 86.1135C110.2 86.0658 110.286 85.9664 110.327 85.871C110.774 84.897 111.213 83.915 111.655 82.9371C111.959 82.2652 112.262 81.5973 112.561 80.9254C112.684 80.6472 112.541 80.4365 112.233 80.4325C112.176 80.4325 112.123 80.4325 112.065 80.4325C111.541 80.4325 111.012 80.4325 110.47 80.4325C110.495 80.3649 110.516 80.3092 110.536 80.2536C110.778 79.6255 111.024 78.9973 111.266 78.3652C111.368 78.0949 111.229 77.9001 110.93 77.9001C110.417 77.9001 109.909 77.9041 109.396 77.8961C109.204 77.8921 109.093 77.9716 109.019 78.1386C108.49 79.375 107.957 80.6114 107.424 81.8517C107.305 82.13 107.449 82.3368 107.765 82.3368C108.339 82.3368 108.908 82.3368 109.482 82.3368C109.544 82.3407 109.597 82.3407 109.675 82.3407Z" fill="#363E44"/>
<path d="M123.637 72.4497C123.684 73.4866 124.032 74.4194 124.715 75.2231C125.05 75.6187 125.415 75.9894 125.788 76.3975C126.145 75.8186 126.295 75.2356 126.295 74.5818C126.523 74.7359 126.729 74.8692 126.926 75.0149C128.279 76.0102 129.396 77.2095 130.169 78.6878C130.809 79.9121 131.066 81.2197 130.968 82.5898C130.847 84.2638 130.182 85.688 128.889 86.8165C127.918 87.6661 126.776 88.1658 125.479 88.3532C122.245 88.8154 118.951 86.625 118.131 83.6142C117.882 82.7022 117.839 81.7736 117.938 80.8366C118.183 78.5004 119.248 76.5391 120.837 74.8109C121.614 73.9655 122.473 73.2118 123.439 72.5746C123.495 72.5372 123.547 72.4913 123.602 72.4539C123.615 72.4497 123.628 72.4497 123.637 72.4497ZM124.431 77.5093C124.049 77.8383 123.671 78.1465 123.315 78.4713C122.413 79.3041 121.618 80.2161 121.077 81.3155C120.669 82.1359 120.467 82.9896 120.609 83.9099C120.875 85.5964 122.374 86.9665 124.143 87.0664C125.771 87.158 127.029 86.4959 127.837 85.1258C128.511 83.9807 128.46 82.7772 127.931 81.5945C127.18 79.908 125.887 78.6628 124.431 77.5093Z" fill="#363E44"/>
<path d="M122.126 85.0383C121.658 84.4345 121.456 83.7599 121.534 83.0103C121.637 82.0275 122.105 81.1988 122.706 80.4243C123.178 79.8163 123.728 79.2791 124.325 78.7836C124.385 78.7336 124.432 78.6753 124.527 78.7544C125.437 79.5206 126.258 80.366 126.829 81.4071C127.168 82.0275 127.387 82.6855 127.366 83.4018C127.348 84.0098 127.142 84.5553 126.769 85.0258C126.717 84.7427 126.691 84.4512 126.61 84.1722C126.468 83.6808 126.185 83.2602 125.858 82.8604C125.45 82.3565 124.974 81.9151 124.445 81.5153C123.913 81.9109 123.44 82.3565 123.028 82.8646C122.685 83.2852 122.388 83.7349 122.251 84.2638C122.186 84.5136 122.165 84.776 122.126 85.0383Z" fill="#363E44"/>
<path d="M98.7146 77.3209H53.0332V100.03H98.7146V77.3209Z" fill="#EFBC73"/>
<path d="M97.2978 79.1493H54.4584C54.2904 79.1493 54.1504 79.0097 54.1504 78.8422C54.1504 78.6747 54.2904 78.5352 54.4584 78.5352H97.2978C97.4658 78.5352 97.6058 78.6747 97.6058 78.8422C97.6058 79.0097 97.4658 79.1493 97.2978 79.1493Z" fill="#D87355"/>
<path d="M97.2978 98.8013H54.4584C54.2904 98.8013 54.1504 98.6617 54.1504 98.4942C54.1504 98.3267 54.2904 98.1871 54.4584 98.1871H97.2978C97.4658 98.1871 97.6058 98.3267 97.6058 98.4942C97.6058 98.6617 97.4658 98.8013 97.2978 98.8013Z" fill="#D87355"/>
<path d="M54.4623 98.1314C54.2943 98.1314 54.1543 97.9918 54.1543 97.8243V79.3029C54.1543 79.1354 54.2943 78.9958 54.4623 78.9958C54.6303 78.9958 54.7703 79.1354 54.7703 79.3029V97.8243C54.7703 97.9918 54.6303 98.1314 54.4623 98.1314Z" fill="#D87355"/>
<path d="M57.5111 98.1314C57.3431 98.1314 57.2031 97.9918 57.2031 97.8243V79.3029C57.2031 79.1354 57.3431 78.9958 57.5111 78.9958C57.6791 78.9958 57.8191 79.1354 57.8191 79.3029V97.8243C57.8191 97.9918 57.6791 98.1314 57.5111 98.1314Z" fill="#D87355"/>
<path d="M60.5756 98.1314C60.4076 98.1314 60.2676 97.9918 60.2676 97.8243V79.3029C60.2676 79.1354 60.4076 78.9958 60.5756 78.9958C60.7436 78.9958 60.8836 79.1354 60.8836 79.3029V97.8243C60.8836 97.9918 60.7436 98.1314 60.5756 98.1314Z" fill="#D87355"/>
<path d="M63.6264 98.1314C63.4584 98.1314 63.3184 97.9918 63.3184 97.8243V79.3029C63.3184 79.1354 63.4584 78.9958 63.6264 78.9958C63.7944 78.9958 63.9344 79.1354 63.9344 79.3029V97.8243C63.9344 97.9918 63.8084 98.1314 63.6264 98.1314Z" fill="#D87355"/>
<path d="M66.6889 98.1314C66.5209 98.1314 66.3809 97.9918 66.3809 97.8243V79.3029C66.3809 79.1354 66.5209 78.9958 66.6889 78.9958C66.8569 78.9958 66.9968 79.1354 66.9968 79.3029V97.8243C66.9968 97.9918 66.8569 98.1314 66.6889 98.1314Z" fill="#D87355"/>
<path d="M69.7572 98.1314C69.5892 98.1314 69.4492 97.9918 69.4492 97.8243V79.3029C69.4492 79.1354 69.5892 78.9958 69.7572 78.9958C69.9252 78.9958 70.0652 79.1354 70.0652 79.3029V97.8243C70.0652 97.9918 69.9252 98.1314 69.7572 98.1314Z" fill="#D87355"/>
<path d="M72.8197 98.1314C72.6517 98.1314 72.5117 97.9918 72.5117 97.8243V79.3029C72.5117 79.1354 72.6517 78.9958 72.8197 78.9958C72.9877 78.9958 73.1277 79.1354 73.1277 79.3029V97.8243C73.1277 97.9918 72.9877 98.1314 72.8197 98.1314Z" fill="#D87355"/>
<path d="M75.8842 98.1314C75.7162 98.1314 75.5762 97.9918 75.5762 97.8243V79.3029C75.5762 79.1354 75.7162 78.9958 75.8842 78.9958C76.0522 78.9958 76.1922 79.1354 76.1922 79.3029V97.8243C76.1922 97.9918 76.0522 98.1314 75.8842 98.1314Z" fill="#D87355"/>
<path d="M78.935 98.1314C78.767 98.1314 78.627 97.9918 78.627 97.8243V79.3029C78.627 79.1354 78.767 78.9958 78.935 78.9958C79.1029 78.9958 79.2429 79.1354 79.2429 79.3029V97.8243C79.2429 97.9918 79.1029 98.1314 78.935 98.1314Z" fill="#D87355"/>
<path d="M81.9994 98.1314C81.8314 98.1314 81.6914 97.9918 81.6914 97.8243V79.3029C81.6914 79.1354 81.8314 78.9958 81.9994 78.9958C82.1674 78.9958 82.3074 79.1354 82.3074 79.3029V97.8243C82.3074 97.9918 82.1674 98.1314 81.9994 98.1314Z" fill="#D87355"/>
<path d="M85.0521 98.1314C84.8841 98.1314 84.7441 97.9918 84.7441 97.8243V79.3029C84.7441 79.1354 84.8841 78.9958 85.0521 78.9958C85.2201 78.9958 85.3601 79.1354 85.3601 79.3029V97.8243C85.3601 97.9918 85.2341 98.1314 85.0521 98.1314Z" fill="#D87355"/>
<path d="M88.1146 98.1314C87.9466 98.1314 87.8066 97.9918 87.8066 97.8243V79.3029C87.8066 79.1354 87.9466 78.9958 88.1146 78.9958C88.2826 78.9958 88.4226 79.1354 88.4226 79.3029V97.8243C88.4226 97.9918 88.2826 98.1314 88.1146 98.1314Z" fill="#D87355"/>
<path d="M91.1791 98.1314C91.0111 98.1314 90.8711 97.9918 90.8711 97.8243V79.3029C90.8711 79.1354 91.0111 78.9958 91.1791 78.9958C91.3471 78.9958 91.4871 79.1354 91.4871 79.3029V97.8243C91.4871 97.9918 91.3471 98.1314 91.1791 98.1314Z" fill="#D87355"/>
<path d="M94.2299 98.1314C94.0619 98.1314 93.9219 97.9918 93.9219 97.8243V79.3029C93.9219 79.1354 94.0619 78.9958 94.2299 78.9958C94.3979 78.9958 94.5379 79.1354 94.5379 79.3029V97.8243C94.5379 97.9918 94.3979 98.1314 94.2299 98.1314Z" fill="#D87355"/>
<path d="M97.2943 98.1314C97.1263 98.1314 96.9863 97.9918 96.9863 97.8243V79.3029C96.9863 79.1354 97.1263 78.9958 97.2943 78.9958C97.4623 78.9958 97.6023 79.1354 97.6023 79.3029V97.8243C97.6023 97.9918 97.4623 98.1314 97.2943 98.1314Z" fill="#D87355"/>
<path d="M62.8264 105.225C63.4398 103.759 62.7454 102.075 61.2754 101.464C59.8054 100.852 58.1166 101.545 57.5032 103.01C56.8898 104.476 57.5842 106.159 59.0542 106.771C60.5241 107.382 62.213 106.69 62.8264 105.225Z" fill="#363E44"/>
<path d="M60.1582 105.947C59.1502 105.947 58.3242 105.124 58.3242 104.119C58.3242 103.114 59.1502 102.291 60.1582 102.291C61.1662 102.291 61.9922 103.114 61.9922 104.119C61.9922 105.124 61.1662 105.947 60.1582 105.947ZM60.1582 102.905C59.4862 102.905 58.9402 103.449 58.9402 104.119C58.9402 104.789 59.4862 105.333 60.1582 105.333C60.8302 105.333 61.3762 104.789 61.3762 104.119C61.3762 103.449 60.8302 102.905 60.1582 102.905Z" fill="#EFBC73"/>
<path d="M69.3049 105.231C69.9183 103.765 69.2239 102.082 67.7539 101.47C66.284 100.859 64.5951 101.551 63.9817 103.017C63.3683 104.482 64.0627 106.166 65.5327 106.777C67.0027 107.389 68.6915 106.697 69.3049 105.231Z" fill="#363E44"/>
<path d="M66.6367 105.947C65.6287 105.947 64.8027 105.124 64.8027 104.119C64.8027 103.114 65.6287 102.291 66.6367 102.291C67.6447 102.291 68.4707 103.114 68.4707 104.119C68.4707 105.124 67.6587 105.947 66.6367 105.947ZM66.6367 102.905C65.9647 102.905 65.4187 103.449 65.4187 104.119C65.4187 104.789 65.9647 105.333 66.6367 105.333C67.3087 105.333 67.8547 104.789 67.8547 104.119C67.8547 103.449 67.3087 102.905 66.6367 102.905Z" fill="#EFBC73"/>
<path d="M75.8772 104.953C76.3412 103.434 75.4822 101.828 73.9585 101.365C72.4349 100.903 70.8236 101.759 70.3596 103.278C69.8957 104.797 70.7547 106.404 72.2783 106.866C73.802 107.329 75.4132 106.472 75.8772 104.953Z" fill="#363E44"/>
<path d="M73.1308 105.947C72.1229 105.947 71.2969 105.124 71.2969 104.119C71.2969 103.114 72.1229 102.291 73.1308 102.291C74.1388 102.291 74.9648 103.114 74.9648 104.119C74.9648 105.124 74.1388 105.947 73.1308 105.947ZM73.1308 102.905C72.4589 102.905 71.9129 103.449 71.9129 104.119C71.9129 104.789 72.4589 105.333 73.1308 105.333C73.8028 105.333 74.3488 104.789 74.3488 104.119C74.3488 103.449 73.8028 102.905 73.1308 102.905Z" fill="#EFBC73"/>
<path d="M94.4512 105.65C95.2943 104.303 94.8823 102.529 93.531 101.689C92.1797 100.848 90.4008 101.259 89.5577 102.606C88.7147 103.954 89.1267 105.727 90.478 106.568C91.8293 107.408 93.6082 106.997 94.4512 105.65Z" fill="#363E44"/>
<path d="M92.0058 105.947C90.9979 105.947 90.1719 105.124 90.1719 104.119C90.1719 103.114 90.9979 102.291 92.0058 102.291C93.0138 102.291 93.8398 103.114 93.8398 104.119C93.8398 105.124 93.0278 105.947 92.0058 105.947ZM92.0058 102.905C91.3339 102.905 90.7879 103.449 90.7879 104.119C90.7879 104.789 91.3339 105.333 92.0058 105.333C92.6778 105.333 93.2238 104.789 93.2238 104.119C93.2238 103.449 92.6778 102.905 92.0058 102.905Z" fill="#EFBC73"/>
<path d="M108.575 106.568C109.933 105.739 110.36 103.969 109.528 102.615C108.697 101.261 106.921 100.835 105.563 101.664C104.205 102.493 103.778 104.263 104.61 105.618C105.441 106.972 107.217 107.397 108.575 106.568Z" fill="#363E44"/>
<path d="M107.064 105.947C106.056 105.947 105.23 105.124 105.23 104.119C105.23 103.114 106.056 102.291 107.064 102.291C108.072 102.291 108.898 103.114 108.898 104.119C108.898 105.124 108.072 105.947 107.064 105.947ZM107.064 102.905C106.392 102.905 105.846 103.449 105.846 104.119C105.846 104.789 106.392 105.333 107.064 105.333C107.736 105.333 108.282 104.789 108.282 104.119C108.282 103.449 107.736 102.905 107.064 102.905Z" fill="#EFBC73"/>
<path d="M88.3314 101.788H77.1035V104.119H88.3314V101.788Z" fill="#363E44"/>
<path d="M99.5824 101.188H56.267C56.099 101.188 55.959 101.048 55.959 100.881C55.959 100.713 56.099 100.574 56.267 100.574H99.2744V91.1387C99.2744 90.9712 99.4144 90.8317 99.5824 90.8317C99.7504 90.8317 99.8904 90.9712 99.8904 91.1387V100.881C99.8904 101.048 99.7504 101.188 99.5824 101.188Z" fill="#D87355"/>
<path d="M110.172 92.7718V87.0493L100.484 84.6626V100.881H109.332H110.172H115.142V94.0001L110.172 92.7718Z" fill="#363E44"/>
<path d="M110.169 86.4072C110.141 86.4072 110.113 86.4072 110.099 86.3933L100.411 84.0066C100.243 83.9647 100.145 83.7972 100.187 83.6297C100.229 83.4622 100.397 83.3645 100.565 83.4064L110.253 85.7931C110.421 85.835 110.519 86.0025 110.477 86.17C110.435 86.3235 110.309 86.4072 110.169 86.4072Z" fill="#363E44"/>
<path d="M114.185 97.1683C114.017 97.1683 113.877 97.0287 113.877 96.8612V94.6978C113.877 94.5303 114.017 94.3907 114.185 94.3907C114.353 94.3907 114.493 94.5303 114.493 94.6978V96.8612C114.507 97.0287 114.367 97.1683 114.185 97.1683Z" fill="#E6D0BE"/>
<path d="M109.725 88.5427H104.195V92.7718H109.725V88.5427Z" fill="#EFBC73"/>
<path d="M56.8347 114.852C56.4083 115.623 55.9271 116.694 55.6209 118.022C55.1507 120.082 55.3093 121.836 55.5006 122.918C60.3284 122.918 65.1562 122.918 69.984 122.918C69.8856 122.273 69.7161 121.699 69.5192 121.191C67.6056 116.344 61.4821 114.88 60.0933 114.579C59.0053 114.672 57.9173 114.76 56.8347 114.852Z" fill="white"/>
<path d="M55.0996 109.956L56.204 115.066C56.4501 116.093 57.4452 116.792 58.484 116.612C58.5441 116.601 58.6043 116.59 58.6644 116.574C59.6321 116.344 60.2828 115.437 60.2062 114.443L59.7306 109.443L55.0996 109.956Z" fill="#84524D"/>
<path d="M27.9329 113.333C27.9329 113.333 25.5163 117.995 25.9482 122.918C29.1849 122.918 32.4271 122.918 35.6639 122.918C35.4124 121.858 35.0242 120.618 34.4228 119.295C33.3894 117.022 32.0991 115.333 31.0493 114.175L27.9329 113.333Z" fill="#E6D0BE"/>
<path d="M27.4906 114.459C27.4196 112.76 27.4305 109.617 28.2069 107.093L33.8548 108.76C33.8548 108.76 32.0013 111.574 31.4163 114.721C31.2413 115.672 30.3939 116.361 29.4261 116.29C29.3004 116.279 29.1691 116.262 29.0325 116.24C28.1686 116.082 27.5289 115.339 27.4906 114.459Z" fill="#84524D"/>
<path d="M37.2826 63.6011C37.2826 63.6011 26.6703 80.1694 26.5391 112.12H34.2919C34.2919 112.12 43.5866 84.5082 49.7102 77.623L47.4467 62.2131L37.2826 63.6011Z" fill="#00756A"/>
<path d="M42.1562 81.0656C42.1562 81.0656 51.9704 97.2296 54.2394 112.126H61.4728C61.4728 112.126 62.3257 75.9727 49.1327 61.3607L42.4898 62.776L42.1562 81.0656Z" fill="#00756A"/>
<path d="M45.3991 83.9782C45.3936 83.9782 45.3827 83.9782 45.3772 83.9727C45.3499 83.9618 45.339 83.929 45.3499 83.9017L49.4614 74.9837C49.4724 74.9563 49.5052 74.9454 49.5325 74.9563C49.5598 74.9673 49.5708 75.0001 49.5598 75.0274L45.4483 83.9454C45.4428 83.9618 45.421 83.9782 45.3991 83.9782Z" fill="#363E44"/>
<path d="M46.5605 51.235C46.5605 51.235 54.7563 57.1203 61.6125 50.5465L63.0668 47.5957C63.0668 47.5957 64.7453 52.1749 63.5589 56.6394C62.3725 61.1039 57.49 62.0055 50.7924 60.6394L46.5605 51.235Z" fill="#84524D"/>
<path d="M33.5696 68.9618C37.7632 66.3279 46.5384 61.2951 52.7386 61.0656C52.7386 61.0656 53.4493 55.612 47.2875 50.6885C47.2875 50.6885 40.1688 46.1585 30.7703 50.224C30.7703 50.224 24.2476 61.0984 27.3695 67.2623C28.5286 69.5355 31.4045 70.3224 33.5696 68.9618Z" fill="white"/>
<path d="M30.9664 50.1147C30.9664 53.1639 31.114 55.7596 31.371 60.1694C31.6662 65.235 31.8029 67.694 29.9221 68.4481C19.5394 72.5902 22.3059 54.6831 30.9664 50.1147Z" fill="#84524D"/>
<path d="M28.9523 60.6338C28.9523 60.6338 35.1907 58.0983 38.5915 56.9835C42.1617 55.8141 47.6073 54.612 47.7659 55.3715C47.8588 55.8087 47.1481 56.1256 45.1962 56.8469C45.3329 56.907 45.6883 57.1639 45.7047 57.5792C45.732 58.1967 45.2454 58.3879 45.2071 58.4262C45.2563 58.4426 45.7593 58.6447 45.8468 59.0546C45.9452 59.5191 45.7429 59.8742 45.4368 60.0874C45.5516 60.1365 45.9671 60.3497 46.0382 60.7486C46.1147 61.1584 45.896 61.6393 45.4805 61.765C44.7205 61.9999 42.457 62.6557 41.3908 63.1147C39.2968 64.0109 32.282 68.1803 28.9141 68.6721C29.4827 65.7759 28.9523 60.6338 28.9523 60.6338Z" fill="#84524D"/>
<path d="M44.5311 61.6666C44.5039 61.6666 44.4821 61.6502 44.4766 61.6229L44.3622 60.9617C44.3567 60.9344 44.3785 60.9016 44.4058 60.8961C44.433 60.8906 44.4657 60.9125 44.4712 60.9398L44.5857 61.601C44.5911 61.6283 44.5693 61.6611 44.542 61.6666C44.5366 61.6666 44.5311 61.6666 44.5311 61.6666Z" fill="#363E44"/>
<path d="M44.2171 60.0764C44.1898 60.0764 44.168 60.0546 44.1626 60.0272L44.0536 59.2786C44.0481 59.2513 44.0699 59.2185 44.0972 59.2185C44.1244 59.213 44.1571 59.2349 44.1571 59.2622L44.2662 60.0108C44.2716 60.0382 44.2498 60.071 44.2226 60.071C44.2226 60.0764 44.2171 60.0764 44.2171 60.0764Z" fill="#363E44"/>
<path d="M44.0053 58.388C43.9781 58.388 43.9563 58.3716 43.9508 58.3443C43.929 58.2186 43.9072 58.1093 43.8909 57.9945C43.8745 57.8853 43.8527 57.776 43.8309 57.6503C43.8255 57.623 43.8473 57.5902 43.8745 57.5847C43.9018 57.5792 43.9345 57.6011 43.9399 57.6284C43.9617 57.7486 43.9781 57.8634 43.9999 57.9727C44.0162 58.082 44.0381 58.1967 44.0599 58.3224C44.0653 58.3497 44.0435 58.3825 44.0162 58.388C44.0108 58.388 44.0108 58.388 44.0053 58.388Z" fill="#363E44"/>
<path d="M43.7002 57.0109C43.6783 57.0109 43.651 56.9945 43.6455 56.9672L43.4815 56.3224C43.476 56.295 43.4925 56.2622 43.5198 56.2568C43.5471 56.2513 43.5799 56.2677 43.5854 56.295L43.7494 56.9398C43.7549 56.9672 43.7385 57 43.7111 57.0054C43.7111 57.0109 43.7057 57.0109 43.7002 57.0109Z" fill="#363E44"/>
<path d="M60.4259 55.3333H54.2148L58.31 45.754H64.521L60.4259 55.3333Z" fill="#D87355"/>
<path d="M59.717 46.9125C59.717 47.142 59.5311 47.3332 59.296 47.3332C59.0664 47.3332 58.875 47.1474 58.875 46.9125C58.875 46.683 59.0609 46.4917 59.296 46.4917C59.5256 46.4917 59.717 46.6775 59.717 46.9125Z" fill="#EFBC73"/>
<path d="M64.3596 49.0274C64.3596 49.6558 64.3049 50.164 63.2169 50.164C62.1289 50.164 60.4121 49.6558 60.4121 49.0274C60.4121 48.3989 62.1234 47.8907 63.2169 47.8907C64.3049 47.8907 64.3596 48.3989 64.3596 49.0274Z" fill="#84524D"/>
<path d="M59.8398 50.6995C59.8398 50.0711 61.5512 49.5629 62.6447 49.5629C63.7327 49.5629 63.7874 50.0711 63.7874 50.6995H59.8398Z" fill="#84524D"/>
<path d="M63.7874 50.6995C63.7874 51.3279 63.7327 51.8361 62.6447 51.8361C61.5566 51.8361 59.8398 51.3279 59.8398 50.6995H63.7874Z" fill="#84524D"/>
<path d="M59.2656 52.3771C59.2656 51.7487 60.9769 51.2405 62.0704 51.2405C63.1585 51.2405 63.2131 51.7487 63.2131 52.3771H59.2656Z" fill="#84524D"/>
<path d="M63.2131 52.3771C63.2131 53.0055 63.1585 53.5137 62.0704 53.5137C60.9824 53.5137 59.2656 53.0055 59.2656 52.3771H63.2131Z" fill="#84524D"/>
<path d="M59.4883 53.8143C59.4883 53.3171 60.8497 52.9072 61.7135 52.9072C62.5774 52.9072 62.6211 53.3116 62.6211 53.8143H59.4883Z" fill="#84524D"/>
<path d="M62.6348 53.8142C62.6348 54.3115 62.5911 54.7213 61.7272 54.7213C60.8634 54.7213 59.502 54.3169 59.502 53.8142H62.6348Z" fill="#84524D"/>
<path d="M43.7403 42.591C43.7845 40.3793 42.0265 38.5505 39.8135 38.5063C37.6006 38.4621 35.7708 40.2192 35.7266 42.4309C35.6823 44.6426 37.4404 46.4714 39.6533 46.5156C41.8663 46.5598 43.6961 44.8027 43.7403 42.591Z" fill="#363E44"/>
<path d="M42.5107 44.5083C42.0023 44.2296 41.1329 43.4809 40.8541 43.9891L37.5681 49.246C37.2893 49.7542 38.9678 49.5738 39.4763 49.858C39.9848 50.1367 40.6245 49.9564 40.9033 49.4482L42.9263 45.94C43.1996 45.4263 43.0137 44.787 42.5107 44.5083Z" fill="#84524D"/>
<path d="M39.2966 50.5028C40.8638 50.5028 42.1342 50.1211 42.1342 49.6503C42.1342 49.1795 40.8638 48.7979 39.2966 48.7979C37.7294 48.7979 36.459 49.1795 36.459 49.6503C36.459 50.1211 37.7294 50.5028 39.2966 50.5028Z" fill="#84524D"/>
<path d="M45.1595 45.9563C44.7057 46.8088 42.0376 46.4427 42.0376 46.4427L39.7139 44.6285C39.107 43.4153 39.6045 41.9399 40.8183 41.3334C42.0321 40.7268 43.5083 41.2241 44.1152 42.4372C44.1152 42.4317 45.6242 45.0875 45.1595 45.9563Z" fill="#84524D"/>
<path d="M44.1426 43.1366C44.1426 43.1366 45.083 43.4754 45.1322 43.6612C45.1923 43.8852 44.569 44.3497 44.569 44.3497C44.569 44.3497 44.159 43.1312 44.1426 43.1366Z" fill="#84524D"/>
<path d="M42.1133 44.0328C42.1133 44.0328 42.3812 43.6503 42.8295 43.4317C42.9225 43.3826 43.1248 44.2296 43.0099 44.2296C42.5233 44.235 42.1133 44.0328 42.1133 44.0328Z" fill="white"/>
<mask id="mask0_2562_5112" style="mask-type:luminance" maskUnits="userSpaceOnUse" x="42" y="43" width="3" height="2">
<path d="M42.2696 44.4383C42.2696 44.4383 42.4988 43.7878 43.0562 43.4691C43.6121 43.1451 44.2865 43.2754 44.2865 43.2754C44.2865 43.2754 44.0573 43.9259 43.4999 44.2446C42.9478 44.5619 42.2696 44.4383 42.2696 44.4383Z" fill="white"/>
</mask>
<g mask="url(#mask0_2562_5112)">
<path d="M43.8665 44.4766C44.3137 44.3484 44.5727 43.8825 44.4449 43.4359C44.3171 42.9893 43.8509 42.7311 43.4036 42.8593C42.9563 42.9874 42.6974 43.4534 42.8252 43.9C42.953 44.3466 43.4192 44.6047 43.8665 44.4766Z" fill="#363E44"/>
</g>
<path d="M44.076 45.0985C44.0596 45.0985 44.0487 45.0985 44.0323 45.0985C43.8846 45.0821 43.7534 44.9783 43.6987 44.8362C43.6878 44.8089 43.7042 44.7761 43.7315 44.7651C43.7589 44.7542 43.7917 44.7706 43.8026 44.7979C43.8409 44.9018 43.9338 44.9783 44.0432 44.9892C44.158 45.0001 44.2674 44.9455 44.3275 44.8471C44.3439 44.8198 44.3767 44.8143 44.404 44.8307C44.4314 44.8471 44.4368 44.8799 44.4204 44.9072C44.3439 45.022 44.2127 45.0985 44.076 45.0985Z" fill="#363E44"/>
<path d="M37.9572 45.071C37.9572 45.071 41.4126 45.2241 43.5996 41.7705C45.7866 38.3169 39.7888 38.5191 37.2956 39.6885C35.6991 40.4372 37.9572 45.071 37.9572 45.071Z" fill="#363E44"/>
<path d="M38.8164 47.847C38.7071 47.847 38.636 47.8361 38.6305 47.8361C38.6032 47.8306 38.5813 47.8033 38.5868 47.776C38.5922 47.7487 38.6196 47.7268 38.6469 47.7323C38.6524 47.7323 39.2046 47.8197 39.6311 47.4755C39.9318 47.235 40.1067 46.8361 40.1341 46.2951C40.1833 45.4864 39.6147 45.0438 39.2046 44.7214C38.964 44.5356 38.7945 44.399 38.8273 44.2459C38.8547 44.0984 39.0734 43.9837 39.5764 43.8525C41.4736 43.3443 42.5671 41.1203 42.578 41.0984C42.589 41.0711 42.6218 41.0602 42.6491 41.0711C42.6764 41.082 42.6874 41.1148 42.6764 41.1421C42.6655 41.164 41.5447 43.4317 39.6037 43.9509C39.1773 44.0656 38.9531 44.1694 38.9312 44.2623C38.9148 44.3498 39.0789 44.4809 39.2702 44.6285C39.6803 44.9509 40.2926 45.4317 40.2434 46.2951C40.2106 46.8689 40.0247 47.2951 39.6967 47.5574C39.3905 47.8033 39.0296 47.847 38.8164 47.847Z" fill="white"/>
<path d="M33.3418 30.9618C33.3418 30.9618 29.9192 38.5137 37.8908 42C37.8908 42 34.326 35.7815 40.3019 30.705L33.3418 30.9618Z" fill="#363E44"/>
<path d="M56.698 23.295C53.7838 23.295 51.4219 25.6557 51.4219 28.5683C51.4219 31.4808 56.698 37.9016 56.698 37.9016C56.698 37.9016 61.9741 31.4754 61.9741 28.5683C61.9741 25.6557 59.6121 23.295 56.698 23.295Z" fill="#D87355"/>
<path d="M56.7638 32.1748C58.7565 32.1404 60.3441 30.4981 60.3098 28.5064C60.2754 26.5148 58.6322 24.9281 56.6394 24.9624C54.6467 24.9967 53.0591 26.6391 53.0934 28.6307C53.1278 30.6224 54.7711 32.2091 56.7638 32.1748Z" fill="white"/>
<path d="M57.7651 29.5136C57.7487 29.5136 57.7378 29.5081 57.7268 29.4972C57.4535 29.224 57.0871 29.071 56.699 29.071C56.3108 29.071 55.9444 29.224 55.6711 29.4972C55.6492 29.519 55.6164 29.519 55.5945 29.4972C55.5727 29.4753 55.5727 29.4425 55.5945 29.4207C55.8898 29.1256 56.2834 28.9617 56.699 28.9617C57.1145 28.9617 57.5081 29.1256 57.8034 29.4207C57.8253 29.4425 57.8253 29.4753 57.8034 29.4972C57.7979 29.5081 57.7815 29.5136 57.7651 29.5136Z" fill="#363E44"/>
<path d="M54.7773 28.6611C54.7609 28.6611 54.75 28.6557 54.7391 28.6447C54.7172 28.6229 54.7172 28.5901 54.7391 28.5682C55.2639 28.0436 55.9583 27.754 56.6964 27.754C57.4345 27.754 58.1344 28.0436 58.6538 28.5682C58.6756 28.5901 58.6756 28.6229 58.6538 28.6447C58.6319 28.6666 58.5991 28.6666 58.5772 28.6447C58.0742 28.142 57.4072 27.8633 56.6964 27.8633C55.9856 27.8633 55.3186 28.142 54.8156 28.6447C54.8047 28.6557 54.7937 28.6611 54.7773 28.6611Z" fill="#363E44"/>
<path d="M53.9258 27.8087C53.9094 27.8087 53.8984 27.8032 53.8875 27.7923C53.8656 27.7705 53.8656 27.7377 53.8875 27.7158C54.6365 26.9617 55.6371 26.5519 56.7032 26.5519C57.7639 26.5519 58.7645 26.9672 59.519 27.7158C59.5409 27.7377 59.5409 27.7705 59.519 27.7923C59.4971 27.8142 59.4643 27.8142 59.4424 27.7923C58.7098 27.0601 57.7421 26.6557 56.7087 26.6557C55.6754 26.6557 54.7021 27.0601 53.975 27.7923C53.9531 27.8032 53.9367 27.8087 53.9258 27.8087Z" fill="#363E44"/>
<path d="M56.9866 30.2678C56.9702 30.2678 56.9592 30.2623 56.9483 30.2514C56.8827 30.1803 56.7952 30.1366 56.6968 30.1366C56.6038 30.1366 56.5164 30.1749 56.4562 30.2405C56.4344 30.2623 56.4016 30.2623 56.3797 30.2405C56.3578 30.2186 56.3578 30.1858 56.3797 30.164C56.4672 30.0765 56.5765 30.0273 56.7023 30.0273C56.828 30.0273 56.9483 30.082 57.0358 30.1749C57.0576 30.1967 57.0522 30.2295 57.0303 30.2514C57.0084 30.2678 56.9975 30.2678 56.9866 30.2678Z" fill="#363E44"/>
<path d="M57.8782 40.2965C57.9164 39.6457 57.4195 39.0872 56.7684 39.0491C56.1172 39.011 55.5585 39.5076 55.5203 40.1583C55.4821 40.8091 55.979 41.3676 56.6301 41.4057C57.2813 41.4439 57.84 40.9473 57.8782 40.2965Z" fill="white"/>
<path d="M61.9733 40.2895C62.0075 39.6386 61.5072 39.0832 60.8559 39.049C60.2045 39.0148 59.6488 39.5148 59.6146 40.1658C59.5804 40.8168 60.0807 41.3722 60.7321 41.4063C61.3834 41.4405 61.9391 40.9405 61.9733 40.2895Z" fill="#F7F1EB"/>
<path d="M66.0634 40.2748C66.0916 39.6235 65.5863 39.0726 64.9347 39.0443C64.283 39.0161 63.7318 39.5211 63.7035 40.1724C63.6753 40.8237 64.1806 41.3746 64.8323 41.4029C65.4839 41.4311 66.0351 40.9261 66.0634 40.2748Z" fill="#F7F1EB"/>
<path d="M70.1517 40.2925C70.1898 39.6417 69.6929 39.0832 69.0418 39.0451C68.3907 39.0069 67.8319 39.5036 67.7937 40.1543C67.7556 40.8051 68.2525 41.3636 68.9036 41.4017C69.5547 41.4399 70.1135 40.9432 70.1517 40.2925Z" fill="#F7F1EB"/>
<path d="M89.2977 46.9836H88.9915C88.9587 46.9836 88.9368 46.9617 88.9368 46.9289C88.9368 46.8962 88.9587 46.8743 88.9915 46.8743H89.243V46.5792C89.243 46.5464 89.2649 46.5246 89.2977 46.5246C89.3305 46.5246 89.3523 46.5464 89.3523 46.5792V46.9289C89.3523 46.9453 89.3469 46.9563 89.3359 46.9672C89.3305 46.9781 89.3141 46.9836 89.2977 46.9836ZM88.3354 46.9836H87.6793C87.6465 46.9836 87.6246 46.9617 87.6246 46.9289C87.6246 46.8962 87.6465 46.8743 87.6793 46.8743H88.3354C88.3682 46.8743 88.3901 46.8962 88.3901 46.9289C88.3901 46.9563 88.3682 46.9836 88.3354 46.9836ZM87.0232 46.9836H86.3671C86.3343 46.9836 86.3124 46.9617 86.3124 46.9289C86.3124 46.8962 86.3343 46.8743 86.3671 46.8743H87.0232C87.056 46.8743 87.0779 46.8962 87.0779 46.9289C87.0779 46.9563 87.056 46.9836 87.0232 46.9836ZM85.711 46.9781H85.0549C85.0221 46.9781 85.0002 46.9563 85.0002 46.9235C85.0002 46.8907 85.0221 46.8688 85.0549 46.8688H85.711C85.7438 46.8688 85.7657 46.8907 85.7657 46.9235C85.7657 46.9563 85.7438 46.9781 85.711 46.9781ZM84.3988 46.9781H83.7427C83.7099 46.9781 83.688 46.9563 83.688 46.9235C83.688 46.8907 83.7099 46.8688 83.7427 46.8688H84.3988C84.4316 46.8688 84.4535 46.8907 84.4535 46.9235C84.4535 46.9563 84.4316 46.9781 84.3988 46.9781ZM83.0866 46.9781H82.4305C82.3977 46.9781 82.3759 46.9563 82.3759 46.9235C82.3759 46.8907 82.3977 46.8688 82.4305 46.8688H83.0866C83.1194 46.8688 83.1413 46.8907 83.1413 46.9235C83.1413 46.9508 83.1194 46.9781 83.0866 46.9781ZM81.7744 46.9781H81.1183C81.0855 46.9781 81.0637 46.9563 81.0637 46.9235C81.0637 46.8907 81.0855 46.8688 81.1183 46.8688H81.7744C81.8072 46.8688 81.8291 46.8907 81.8291 46.9235C81.8291 46.9508 81.8072 46.9781 81.7744 46.9781ZM80.4622 46.9727H79.8061C79.7733 46.9727 79.7515 46.9508 79.7515 46.918C79.7515 46.8852 79.7733 46.8634 79.8061 46.8634H80.4622C80.495 46.8634 80.5169 46.8852 80.5169 46.918C80.5169 46.9508 80.495 46.9727 80.4622 46.9727ZM79.15 46.9727H78.4939C78.4611 46.9727 78.4393 46.9508 78.4393 46.918C78.4393 46.8852 78.4611 46.8634 78.4939 46.8634H79.15C79.1828 46.8634 79.2047 46.8852 79.2047 46.918C79.2047 46.9508 79.1828 46.9727 79.15 46.9727ZM77.8379 46.9727H77.1818C77.149 46.9727 77.1271 46.9508 77.1271 46.918C77.1271 46.8852 77.149 46.8634 77.1818 46.8634H77.8379C77.8707 46.8634 77.8925 46.8852 77.8925 46.918C77.8925 46.9453 77.8707 46.9727 77.8379 46.9727ZM76.5257 46.9727H75.8696C75.8368 46.9727 75.8149 46.9508 75.8149 46.918C75.8149 46.8852 75.8368 46.8634 75.8696 46.8634H76.5257C76.5585 46.8634 76.5803 46.8852 76.5803 46.918C76.5803 46.9453 76.5585 46.9727 76.5257 46.9727ZM75.2135 46.9672H74.5574C74.5246 46.9672 74.5027 46.9453 74.5027 46.9125C74.5027 46.8798 74.5246 46.8579 74.5574 46.8579H75.2135C75.2463 46.8579 75.2681 46.8798 75.2681 46.9125C75.2681 46.9453 75.2463 46.9672 75.2135 46.9672ZM73.9013 46.9672H73.2452C73.2124 46.9672 73.1905 46.9453 73.1905 46.9125C73.1905 46.8798 73.2124 46.8579 73.2452 46.8579H73.9013C73.9341 46.8579 73.956 46.8798 73.956 46.9125C73.956 46.9453 73.9341 46.9672 73.9013 46.9672ZM72.5891 46.9672H72.0423C72.0095 46.9672 71.9877 46.9453 71.9877 46.9125V46.8033C71.9877 46.7705 72.0095 46.7486 72.0423 46.7486C72.0751 46.7486 72.097 46.7705 72.097 46.8033V46.8579H72.5891C72.6219 46.8579 72.6438 46.8798 72.6438 46.9125C72.6438 46.9399 72.6219 46.9672 72.5891 46.9672ZM72.0423 46.2022C72.0095 46.2022 71.9877 46.1803 71.9877 46.1475V45.4918C71.9877 45.459 72.0095 45.4371 72.0423 45.4371C72.0751 45.4371 72.097 45.459 72.097 45.4918V46.1475C72.097 46.1748 72.0751 46.2022 72.0423 46.2022ZM89.2977 45.9781C89.2649 45.9781 89.243 45.9563 89.243 45.9235V45.2677C89.243 45.2349 89.2649 45.2131 89.2977 45.2131C89.3305 45.2131 89.3523 45.2349 89.3523 45.2677V45.9235C89.3523 45.9563 89.3305 45.9781 89.2977 45.9781ZM72.0423 44.8907C72.0095 44.8907 71.9877 44.8688 71.9877 44.836V44.1803C71.9877 44.1475 72.0095 44.1257 72.0423 44.1257C72.0751 44.1257 72.097 44.1475 72.097 44.1803V44.836C72.097 44.8634 72.0751 44.8907 72.0423 44.8907ZM89.2977 44.6666C89.2649 44.6666 89.243 44.6448 89.243 44.612V43.9563C89.243 43.9235 89.2649 43.9016 89.2977 43.9016C89.3305 43.9016 89.3523 43.9235 89.3523 43.9563V44.612C89.3523 44.6448 89.3305 44.6666 89.2977 44.6666ZM72.0423 43.5792C72.0095 43.5792 71.9877 43.5574 71.9877 43.5246V42.8688C71.9877 42.836 72.0095 42.8142 72.0423 42.8142C72.0751 42.8142 72.097 42.836 72.097 42.8688V43.5246C72.097 43.5519 72.0751 43.5792 72.0423 43.5792ZM89.2977 43.3552C89.2649 43.3552 89.243 43.3333 89.243 43.3005V42.6448C89.243 42.612 89.2649 42.5901 89.2977 42.5901C89.3305 42.5901 89.3523 42.612 89.3523 42.6448V43.3005C89.3523 43.3333 89.3305 43.3552 89.2977 43.3552ZM72.0423 42.2677C72.0095 42.2677 71.9877 42.2459 71.9877 42.2131V41.5574C71.9877 41.5246 72.0095 41.5027 72.0423 41.5027C72.0751 41.5027 72.097 41.5246 72.097 41.5574V42.2131C72.097 42.2404 72.0751 42.2677 72.0423 42.2677ZM89.2977 42.0437C89.2649 42.0437 89.243 42.0218 89.243 41.989V41.3333C89.243 41.3005 89.2649 41.2787 89.2977 41.2787C89.3305 41.2787 89.3523 41.3005 89.3523 41.3333V41.989C89.3523 42.0218 89.3305 42.0437 89.2977 42.0437ZM72.0423 40.9563C72.0095 40.9563 71.9877 40.9344 71.9877 40.9016V40.2459C71.9877 40.2131 72.0095 40.1912 72.0423 40.1912C72.0751 40.1912 72.097 40.2131 72.097 40.2459V40.9016C72.097 40.9289 72.0751 40.9563 72.0423 40.9563ZM89.2977 40.7322C89.2649 40.7322 89.243 40.7104 89.243 40.6776V40.0218C89.243 39.989 89.2649 39.9672 89.2977 39.9672C89.3305 39.9672 89.3523 39.989 89.3523 40.0218V40.6776C89.3523 40.7104 89.3305 40.7322 89.2977 40.7322ZM72.0423 39.6448C72.0095 39.6448 71.9877 39.6229 71.9877 39.5901V38.9344C71.9877 38.9016 72.0095 38.8798 72.0423 38.8798C72.0751 38.8798 72.097 38.9016 72.097 38.9344V39.5901C72.097 39.6175 72.0751 39.6448 72.0423 39.6448ZM89.2977 39.4207C89.2649 39.4207 89.243 39.3989 89.243 39.3661V38.7104C89.243 38.6776 89.2649 38.6557 89.2977 38.6557C89.3305 38.6557 89.3523 38.6776 89.3523 38.7104V39.3661C89.3523 39.3989 89.3305 39.4207 89.2977 39.4207ZM72.0423 38.3333C72.0095 38.3333 71.9877 38.3115 71.9877 38.2787V37.6229C71.9877 37.5901 72.0095 37.5683 72.0423 37.5683C72.0751 37.5683 72.097 37.5901 72.097 37.6229V38.2787C72.097 38.306 72.0751 38.3333 72.0423 38.3333ZM89.2977 38.1093C89.2649 38.1093 89.243 38.0874 89.243 38.0546V37.3989C89.243 37.3661 89.2649 37.3442 89.2977 37.3442C89.3305 37.3442 89.3523 37.3661 89.3523 37.3989V38.0546C89.3523 38.0874 89.3305 38.1093 89.2977 38.1093ZM57.7285 37.6065C57.6957 37.6065 57.6738 37.5847 57.6738 37.5519C57.6738 37.5191 57.6957 37.4972 57.7285 37.4972H58.3846C58.4174 37.4972 58.4393 37.5191 58.4393 37.5519C58.4393 37.5847 58.4174 37.6065 58.3846 37.6065H57.7285ZM59.0407 37.6065C59.0079 37.6065 58.986 37.5847 58.986 37.5519C58.986 37.5191 59.0079 37.4972 59.0407 37.4972H59.6968C59.7296 37.4972 59.7515 37.5191 59.7515 37.5519C59.7515 37.5847 59.7296 37.6065 59.6968 37.6065H59.0407ZM60.3529 37.6011C60.3201 37.6011 60.2982 37.5792 60.2982 37.5464C60.2982 37.5136 60.3201 37.4918 60.3529 37.4918H61.009C61.0418 37.4918 61.0637 37.5136 61.0637 37.5464C61.0637 37.5792 61.0418 37.6011 61.009 37.6011H60.3529ZM61.6651 37.5956C61.6323 37.5956 61.6104 37.5737 61.6104 37.541C61.6104 37.5082 61.6323 37.4863 61.6651 37.4863H62.3212C62.354 37.4863 62.3759 37.5082 62.3759 37.541C62.3759 37.5737 62.354 37.5956 62.3212 37.5956H61.6651ZM62.9773 37.5901C62.9445 37.5901 62.9226 37.5683 62.9226 37.5355C62.9226 37.5027 62.9445 37.4809 62.9773 37.4809H63.6334C63.6662 37.4809 63.688 37.5027 63.688 37.5355C63.688 37.5683 63.6662 37.5901 63.6334 37.5901H62.9773ZM64.2895 37.5847C64.2567 37.5847 64.2348 37.5628 64.2348 37.53C64.2348 37.4972 64.2567 37.4754 64.2895 37.4754H64.9456C64.9784 37.4754 65.0002 37.4972 65.0002 37.53C65.0002 37.5628 64.9784 37.5847 64.9456 37.5847H64.2895ZM65.6017 37.5792C65.5689 37.5792 65.547 37.5574 65.547 37.5246C65.547 37.4918 65.5689 37.4699 65.6017 37.4699H66.2578C66.2906 37.4699 66.3124 37.4918 66.3124 37.5246C66.3124 37.5574 66.2906 37.5792 66.2578 37.5792H65.6017ZM66.9138 37.5737C66.881 37.5737 66.8592 37.5519 66.8592 37.5191C66.8592 37.4863 66.881 37.4645 66.9138 37.4645H67.5699C67.6027 37.4645 67.6246 37.4863 67.6246 37.5191C67.6246 37.5519 67.6027 37.5737 67.5699 37.5737H66.9138ZM68.226 37.5683C68.1932 37.5683 68.1714 37.5464 68.1714 37.5136C68.1714 37.4809 68.1932 37.459 68.226 37.459H68.8821C68.9149 37.459 68.9368 37.4809 68.9368 37.5136C68.9368 37.5464 68.9149 37.5683 68.8821 37.5683H68.226ZM69.5382 37.5683C69.5054 37.5683 69.4836 37.5464 69.4836 37.5136C69.4836 37.4809 69.5054 37.459 69.5382 37.459H70.1943C70.2271 37.459 70.249 37.4809 70.249 37.5136C70.249 37.5464 70.2271 37.5683 70.1943 37.5683H69.5382ZM70.8504 37.5628C70.8176 37.5628 70.7958 37.541 70.7958 37.5082C70.7958 37.4754 70.8176 37.4535 70.8504 37.4535H71.5065C71.5393 37.4535 71.5612 37.4754 71.5612 37.5082C71.5612 37.541 71.5393 37.5628 71.5065 37.5628H70.8504Z" fill="#8B865C"/>
<path d="M89.3084 28.8142C87.9798 28.8142 86.9082 29.8907 86.9082 31.2131C86.9082 32.541 89.3084 35.4645 89.3084 35.4645C89.3084 35.4645 91.7086 32.541 91.7086 31.2131C91.7032 29.8907 90.6316 28.8142 89.3084 28.8142ZM89.3084 32.8579C88.4008 32.8579 87.6627 32.1257 87.6627 31.2186C87.6627 30.3115 88.4008 29.5792 89.3084 29.5792C90.216 29.5792 90.9487 30.3169 90.9487 31.2186C90.9487 32.1202 90.2106 32.8579 89.3084 32.8579Z" fill="#D87355"/>
<path d="M90.2714 37.3443C90.2714 37.8799 89.8395 38.3116 89.3037 38.3116C88.7679 38.3116 88.3359 37.8799 88.3359 37.3443C88.3359 36.8088 88.7679 36.3771 89.3037 36.3771C89.834 36.3717 90.2714 36.8088 90.2714 37.3443Z" fill="#D87355"/>
<path d="M81.2834 30.7541H63.9297C63.8969 30.7541 63.875 30.7322 63.875 30.6994C63.875 30.6666 63.8969 30.6448 63.9297 30.6448H81.2834C81.3162 30.6448 81.3381 30.6666 81.3381 30.6994C81.3381 30.7322 81.3108 30.7541 81.2834 30.7541Z" fill="#363E44"/>
<path d="M81.2846 32.2787H68.8242C68.7914 32.2787 68.7695 32.2569 68.7695 32.2241C68.7695 32.1913 68.7914 32.1694 68.8242 32.1694H81.2846C81.3174 32.1694 81.3392 32.1913 81.3392 32.2241C81.3392 32.2514 81.3119 32.2787 81.2846 32.2787Z" fill="#363E44"/>
<path d="M67.0296 32.2787H63.3281C63.2953 32.2787 63.2734 32.2569 63.2734 32.2241C63.2734 32.1913 63.2953 32.1694 63.3281 32.1694H67.0296C67.0624 32.1694 67.0843 32.1913 67.0843 32.2241C67.0843 32.2514 67.0624 32.2787 67.0296 32.2787Z" fill="#363E44"/>
<path d="M81.2879 33.8033H76.2305C76.1977 33.8033 76.1758 33.7814 76.1758 33.7486C76.1758 33.7158 76.1977 33.694 76.2305 33.694H81.2879C81.3207 33.694 81.3425 33.7158 81.3425 33.7486C81.3425 33.7759 81.3152 33.8033 81.2879 33.8033Z" fill="#363E44"/>
<path d="M72.862 33.8033H62.5996C62.5668 33.8033 62.5449 33.7814 62.5449 33.7486C62.5449 33.7158 62.5668 33.694 62.5996 33.694H72.862C72.8948 33.694 72.9167 33.7158 72.9167 33.7486C72.9167 33.7759 72.8894 33.8033 72.862 33.8033Z" fill="#363E44"/>
</g>
<defs>
<clipPath id="clip0_2562_5112">
<rect width="100" height="100" fill="white" transform="translate(23 23)"/>
</clipPath>
</defs>
</svg>
