<svg width="387" height="277" viewBox="0 0 387 277" fill="none" xmlns="http://www.w3.org/2000/svg">
<path d="M139.835 276.732H352.207C356.78 276.728 361.308 275.822 365.531 274.066C369.755 272.309 373.591 269.737 376.822 266.496C380.053 263.254 382.615 259.407 384.361 255.174C386.107 250.941 387.004 246.405 387 241.825V71.3964C386.944 62.1887 383.254 53.3768 376.736 46.8829C370.218 40.3891 361.401 36.7403 352.207 36.7324H306.111C305.619 36.7324 305.148 36.928 304.8 37.2762C304.453 37.6243 304.257 38.0965 304.257 38.5889C304.257 39.0812 304.453 39.5534 304.8 39.9016C305.148 40.2497 305.619 40.4453 306.111 40.4453H352.207C360.449 40.4534 368.351 43.7361 374.179 49.5731C380.007 55.41 383.285 63.3243 383.293 71.579V242.008C383.285 250.262 380.007 258.177 374.179 264.013C368.351 269.85 360.449 273.133 352.207 273.141H139.835C135.739 273.137 131.683 272.323 127.902 270.746C124.12 269.168 120.687 266.859 117.799 263.949C114.911 261.039 112.625 257.587 111.072 253.791C109.519 249.994 108.73 245.928 108.75 241.825V159.471C108.754 159.225 108.709 158.98 108.617 158.752C108.526 158.523 108.39 158.315 108.218 158.139C108.045 157.963 107.839 157.824 107.613 157.729C107.386 157.634 107.142 157.585 106.896 157.585H4.64517C4.19055 157.643 3.77271 157.865 3.46988 158.209C3.16702 158.554 3 158.997 3 159.456C3 159.915 3.16702 160.359 3.46988 160.703C3.77271 161.048 4.19055 161.27 4.64517 161.328H105.073V241.825C105.073 251.067 108.732 259.932 115.249 266.476C121.766 273.02 130.607 276.708 139.835 276.732Z" fill="#21A371"/>
<path d="M16.4605 174.732L19 172.035L5.47664 159.747L19 147.43L16.4605 144.732L0 159.747L16.4605 174.732Z" fill="#21A371"/>
<path style="mix-blend-mode:multiply" opacity="0.5" d="M273.832 50.1436C269.392 31.3305 281.043 12.4799 299.856 8.03964C318.669 3.59936 337.52 15.2508 341.96 34.0639C346.4 52.8769 334.749 71.7275 315.936 76.1678C297.123 80.6081 278.272 68.9566 273.832 50.1436Z" fill="url(#paint0_radial_2883_4748)"/>
<path d="M308.001 65.585C292.066 65.585 279.148 52.6673 279.148 36.7324C279.148 20.7976 292.066 7.87988 308.001 7.87988C323.936 7.87988 336.854 20.7976 336.854 36.7324C336.854 52.6673 323.936 65.585 308.001 65.585Z" fill="#21A371"/>
<path d="M307.977 66.7324C313.912 66.7369 319.714 64.9812 324.651 61.6875C329.587 58.3938 333.436 53.71 335.71 48.2287C337.984 42.7473 338.581 36.7146 337.426 30.8937C336.271 25.0727 333.416 19.7251 329.221 15.5273C325.027 11.3294 319.681 8.46994 313.861 7.31054C308.041 6.15114 302.008 6.74391 296.525 9.01387C291.042 11.2838 286.355 15.129 283.057 20.0629C279.76 24.9969 278 30.798 278 36.7324C278.006 44.6831 281.166 52.3068 286.785 57.931C292.405 63.5551 300.027 66.7204 307.977 66.7324ZM307.977 9.52576C313.367 9.52576 318.636 11.1241 323.118 14.1186C327.599 17.1131 331.092 21.3693 333.155 26.3489C335.218 31.3286 335.757 36.8081 334.706 42.0945C333.654 47.3808 331.059 52.2367 327.247 56.048C323.436 59.8592 318.58 62.4547 313.294 63.5063C308.008 64.5578 302.528 64.0181 297.548 61.9555C292.569 59.8928 288.313 56.3999 285.318 51.9183C282.324 47.4367 280.725 42.1678 280.725 36.7778C280.725 33.199 281.43 29.6553 282.8 26.3489C284.169 23.0425 286.177 20.0383 288.707 17.5077C291.238 14.9771 294.242 12.9697 297.548 11.6002C300.855 10.2307 304.398 9.52576 307.977 9.52576Z" fill="white"/>
<path d="M297.324 39.252V34.0723C297.324 33.2168 297.441 32.4082 297.688 31.6465C297.922 30.8848 298.273 30.2051 298.73 29.6074C299.188 29.0098 299.785 28.541 300.535 28.1895C301.273 27.8379 302.105 27.6621 303.031 27.6621C304.203 27.6621 305.234 27.9551 306.113 28.5176C306.98 29.0918 307.637 29.8535 308.082 30.8145C308.516 31.7754 308.738 32.8652 308.738 34.0723V39.252C308.738 40.1777 308.621 41.0332 308.41 41.8184C308.199 42.6152 307.871 43.3301 307.426 43.9746C306.98 44.6191 306.395 45.123 305.645 45.498C304.895 45.873 304.016 46.0488 303.031 46.0488C302.07 46.0488 301.215 45.873 300.477 45.5215C299.727 45.1699 299.129 44.6895 298.684 44.0566C298.227 43.4355 297.887 42.7207 297.664 41.9121C297.43 41.1035 297.324 40.2129 297.324 39.252ZM300.371 39.1816C300.371 39.7793 300.406 40.3066 300.488 40.752C300.559 41.1973 300.699 41.6191 300.887 41.9941C301.074 42.3691 301.344 42.6621 301.707 42.8613C302.059 43.0723 302.504 43.166 303.031 43.166C304.004 43.166 304.695 42.8262 305.094 42.1465C305.492 41.4668 305.691 40.4824 305.691 39.1816V34.3301C305.691 33.2051 305.469 32.291 305.047 31.5879C304.625 30.8965 303.945 30.5449 303.031 30.5449C302.129 30.5449 301.461 30.8848 301.027 31.5645C300.582 32.2441 300.371 33.1699 300.371 34.3301V39.1816ZM310.66 31.002V27.9668H316.66V45.7324H313.52V31.002H310.66Z" fill="white"/>
<defs>
<radialGradient id="paint0_radial_2883_4748" cx="0" cy="0" r="1" gradientUnits="userSpaceOnUse" gradientTransform="translate(307.917 42.0893) rotate(180) scale(35)">
<stop offset="0.11"/>
<stop offset="0.12" stop-color="#040404"/>
<stop offset="0.26" stop-color="#454545"/>
<stop offset="0.41" stop-color="#7E7E7E"/>
<stop offset="0.55" stop-color="#ACACAC"/>
<stop offset="0.68" stop-color="#D0D0D0"/>
<stop offset="0.8" stop-color="#EAEAEA"/>
<stop offset="0.91" stop-color="#FAFAFA"/>
<stop offset="1" stop-color="white"/>
</radialGradient>
</defs>
</svg>
