<svg width="283" height="242" viewBox="0 0 283 242" fill="none" xmlns="http://www.w3.org/2000/svg">
<path d="M34.9062 241.732H248.002C252.597 241.736 257.147 240.833 261.393 239.075C265.639 237.317 269.497 234.737 272.748 231.484C275.998 228.231 278.576 224.369 280.335 220.117C282.095 215.866 283 211.308 283 206.706V125.935V124.62C283 124.27 282.854 123.931 282.603 123.687C281.749 122.859 280.374 122.855 279.533 123.698C279.293 123.938 279.159 124.263 279.159 124.602V206.706C279.159 214.986 275.877 222.927 270.035 228.785C264.193 234.643 256.268 237.938 248.002 237.946H34.9062C26.6402 237.938 18.7155 234.643 12.8734 228.785C7.03129 222.927 3.74969 214.986 3.7497 206.706V35.6976C3.74969 27.4176 7.03129 19.4763 12.8734 13.6186C18.7155 7.76092 26.6402 4.46604 34.9062 4.45795H81.1837C81.6769 4.45795 82.1499 4.26169 82.4987 3.91235C82.8474 3.56301 83.0434 3.08923 83.0434 2.5952C83.0434 2.10116 82.8474 1.62735 82.4987 1.27802C82.1499 0.928679 81.6769 0.732422 81.1837 0.732422H34.9062C25.6535 0.748569 16.7843 4.43757 10.2416 10.9913C3.69891 17.545 0.0161198 26.4292 0 35.6976V206.706C-1.40822e-05 215.985 3.67558 224.885 10.22 231.452C16.7645 238.019 25.6429 241.716 34.9062 241.732Z" fill="#428DC6"/>
</svg>
