<svg width="283" height="277" viewBox="0 0 283 277" fill="none" xmlns="http://www.w3.org/2000/svg">
<path d="M248.094 276.732H34.9978C30.4032 276.736 25.8529 275.833 21.607 274.075C17.3611 272.317 13.5026 269.737 10.2524 266.484C7.00217 263.231 4.4238 259.369 2.66461 255.117C0.905426 250.866 0 246.308 0 241.706V160.935V159.62C0 159.27 0.145508 158.931 0.396851 158.687C1.25079 157.859 2.62631 157.855 3.46701 158.698C3.70663 158.938 3.84125 159.263 3.84125 159.602V241.706C3.84122 249.986 7.12274 257.927 12.9648 263.785C18.8069 269.643 26.7318 272.938 34.9978 272.946H248.094C256.36 272.938 264.284 269.643 270.127 263.785C275.969 257.927 279.25 249.986 279.25 241.706V70.6976C279.25 62.4176 275.969 54.4763 270.127 48.6186C264.284 42.7609 256.36 39.466 248.094 39.4579H201.816C201.323 39.4579 200.85 39.2617 200.501 38.9124C200.153 38.563 199.957 38.0892 199.957 37.5952C199.957 37.1012 200.153 36.6274 200.501 36.278C200.85 35.9287 201.323 35.7324 201.816 35.7324H248.094C257.347 35.7486 266.216 39.4376 272.758 45.9913C279.301 52.545 282.984 61.4292 283 70.6976V241.706C283 250.985 279.324 259.885 272.78 266.452C266.236 273.019 257.357 276.716 248.094 276.732Z" fill="#2A4687"/>
<path d="M248.094 276.732H34.9978C30.4032 276.736 25.8529 275.833 21.607 274.075C17.3611 272.317 13.5027 269.737 10.2524 266.484C7.00217 263.231 4.4238 259.369 2.66461 255.117C0.905426 250.866 0 246.308 0 241.706V160.935V159.62C0 159.27 0.145508 158.931 0.396881 158.687C1.25082 157.859 2.62631 157.855 3.46704 158.698C3.70667 158.938 3.84125 159.263 3.84125 159.602V241.706C3.84125 249.986 7.12274 257.927 12.9648 263.785C18.8069 269.643 26.7318 272.938 34.9978 272.946H248.094C256.36 272.938 264.284 269.643 270.127 263.785C275.969 257.927 279.25 249.986 279.25 241.706V70.6976C279.25 62.4176 275.969 54.4763 270.127 48.6186C264.284 42.7609 256.36 39.466 248.094 39.4579H201.816C201.323 39.4579 200.85 39.2617 200.501 38.9124C200.153 38.563 199.957 38.0892 199.957 37.5952C199.957 37.1012 200.153 36.6274 200.501 36.278C200.85 35.9287 201.323 35.7324 201.816 35.7324H248.094C257.347 35.7486 266.216 39.4376 272.758 45.9913C279.301 52.5451 282.984 61.4292 283 70.6976V241.706C283 250.985 279.324 259.885 272.78 266.452C266.236 273.019 257.357 276.716 248.094 276.732Z" fill="#428DC6"/>
<path style="mix-blend-mode:multiply" opacity="0.5" d="M169.832 50.1436C165.392 31.3305 177.043 12.4799 195.856 8.03964C214.669 3.59936 233.52 15.2508 237.96 34.0639C242.4 52.8769 230.749 71.7275 211.936 76.1678C193.123 80.6081 174.272 68.9566 169.832 50.1436Z" fill="url(#paint0_radial_2883_4771)"/>
<path d="M204.001 65.585C188.066 65.585 175.148 52.6673 175.148 36.7324C175.148 20.7976 188.066 7.87988 204.001 7.87988C219.936 7.87988 232.854 20.7976 232.854 36.7324C232.854 52.6673 219.936 65.585 204.001 65.585Z" fill="#428DC6"/>
<path d="M203.977 66.7324C209.912 66.7369 215.714 64.9812 220.651 61.6875C225.587 58.3938 229.436 53.71 231.71 48.2287C233.984 42.7473 234.581 36.7146 233.426 30.8937C232.271 25.0727 229.416 19.7251 225.221 15.5273C221.027 11.3294 215.681 8.46994 209.861 7.31054C204.041 6.15114 198.008 6.74391 192.525 9.01387C187.042 11.2838 182.355 15.129 179.057 20.0629C175.76 24.9969 174 30.798 174 36.7324C174.006 44.6831 177.166 52.3068 182.785 57.931C188.405 63.5551 196.027 66.7204 203.977 66.7324ZM203.977 9.52576C209.367 9.52576 214.636 11.1241 219.118 14.1186C223.599 17.1131 227.092 21.3693 229.155 26.3489C231.218 31.3286 231.757 36.8081 230.706 42.0945C229.654 47.3808 227.059 52.2367 223.247 56.048C219.436 59.8592 214.58 62.4547 209.294 63.5063C204.008 64.5578 198.528 64.0181 193.548 61.9555C188.569 59.8928 184.313 56.3999 181.318 51.9183C178.324 47.4367 176.725 42.1678 176.725 36.7778C176.725 33.199 177.43 29.6553 178.8 26.3489C180.169 23.0425 182.177 20.0383 184.707 17.5077C187.238 14.9771 190.242 12.9697 193.548 11.6002C196.855 10.2307 200.398 9.52576 203.977 9.52576Z" fill="white"/>
<path d="M188.324 39.252V34.0723C188.324 33.2168 188.441 32.4082 188.688 31.6465C188.922 30.8848 189.273 30.2051 189.73 29.6074C190.188 29.0098 190.785 28.541 191.535 28.1895C192.273 27.8379 193.105 27.6621 194.031 27.6621C195.203 27.6621 196.234 27.9551 197.113 28.5176C197.98 29.0918 198.637 29.8535 199.082 30.8145C199.516 31.7754 199.738 32.8652 199.738 34.0723V39.252C199.738 40.1777 199.621 41.0332 199.41 41.8184C199.199 42.6152 198.871 43.3301 198.426 43.9746C197.98 44.6191 197.395 45.123 196.645 45.498C195.895 45.873 195.016 46.0488 194.031 46.0488C193.07 46.0488 192.215 45.873 191.477 45.5215C190.727 45.1699 190.129 44.6895 189.684 44.0566C189.227 43.4355 188.887 42.7207 188.664 41.9121C188.43 41.1035 188.324 40.2129 188.324 39.252ZM191.371 39.1816C191.371 39.7793 191.406 40.3066 191.488 40.752C191.559 41.1973 191.699 41.6191 191.887 41.9941C192.074 42.3691 192.344 42.6621 192.707 42.8613C193.059 43.0723 193.504 43.166 194.031 43.166C195.004 43.166 195.695 42.8262 196.094 42.1465C196.492 41.4668 196.691 40.4824 196.691 39.1816V34.3301C196.691 33.2051 196.469 32.291 196.047 31.5879C195.625 30.8965 194.945 30.5449 194.031 30.5449C193.129 30.5449 192.461 30.8848 192.027 31.5645C191.582 32.2441 191.371 33.1699 191.371 34.3301V39.1816ZM202.352 40.5996H205.422C205.668 42.3105 206.559 43.166 208.082 43.166C208.949 43.166 209.629 42.9082 210.098 42.3809C210.566 41.8535 210.812 41.2207 210.812 40.4707C210.812 39.7207 210.566 39.0527 210.086 38.4785C209.594 37.916 208.949 37.623 208.129 37.623H207.121V34.6934H208.082C208.809 34.6934 209.371 34.4824 209.781 34.0488C210.18 33.6152 210.391 33.0996 210.391 32.5137C210.391 31.9746 210.203 31.4941 209.828 31.0723C209.453 30.6504 208.949 30.4395 208.293 30.4395C207.59 30.4395 207.051 30.6855 206.688 31.1543C206.324 31.6348 206.125 32.1973 206.09 32.8418H203.043C203.066 31.8574 203.277 30.9785 203.676 30.2051C204.062 29.4434 204.66 28.834 205.457 28.3652C206.254 27.8965 207.227 27.6621 208.352 27.6621C209.172 27.6621 209.922 27.791 210.578 28.0488C211.234 28.3066 211.773 28.6582 212.172 29.1035C212.57 29.5488 212.887 30.041 213.098 30.6035C213.309 31.166 213.414 31.7754 213.414 32.4082C213.414 34.166 212.629 35.4199 211.059 36.1816C212.02 36.5918 212.723 37.1426 213.168 37.834C213.613 38.5254 213.848 39.3809 213.848 40.4004C213.848 42.0879 213.309 43.459 212.23 44.4902C211.152 45.5332 209.77 46.0488 208.059 46.0488C207.191 46.0488 206.395 45.9082 205.691 45.627C204.988 45.3457 204.402 44.9473 203.934 44.4434C203.465 43.9395 203.102 43.3652 202.832 42.709C202.562 42.0645 202.398 41.3613 202.352 40.5996Z" fill="white"/>
<defs>
<radialGradient id="paint0_radial_2883_4771" cx="0" cy="0" r="1" gradientUnits="userSpaceOnUse" gradientTransform="translate(203.917 42.0893) rotate(180) scale(35)">
<stop offset="0.11"/>
<stop offset="0.12" stop-color="#040404"/>
<stop offset="0.26" stop-color="#454545"/>
<stop offset="0.41" stop-color="#7E7E7E"/>
<stop offset="0.55" stop-color="#ACACAC"/>
<stop offset="0.68" stop-color="#D0D0D0"/>
<stop offset="0.8" stop-color="#EAEAEA"/>
<stop offset="0.91" stop-color="#FAFAFA"/>
<stop offset="1" stop-color="white"/>
</radialGradient>
</defs>
</svg>
