<svg width="384" height="242" viewBox="0 0 384 242" fill="none" xmlns="http://www.w3.org/2000/svg">
<path d="M247.223 241.732H34.8009C25.5656 241.716 16.7139 238.019 10.1892 231.452C3.66453 224.885 -1.40397e-05 215.985 0 206.706V35.6976C0.0160712 26.4292 3.68775 17.5451 10.2107 10.9913C16.7337 4.43757 25.5761 0.748569 34.8009 0.732422H80.9388C81.4305 0.732422 81.902 0.928679 82.2497 1.27802C82.5974 1.62735 82.7928 2.10116 82.7928 2.5952C82.7928 3.08923 82.5974 3.56302 82.2497 3.91235C81.902 4.26169 81.4305 4.45795 80.9388 4.45795H34.8009C26.5571 4.46603 18.6531 7.75994 12.8238 13.6167C6.99448 19.4736 3.71605 27.4148 3.70801 35.6976V206.706C3.71605 214.989 6.99448 222.93 12.8238 228.787C18.6531 234.644 26.5571 237.938 34.8009 237.946H247.223C255.451 237.914 263.332 234.609 269.142 228.755C274.951 222.901 278.217 214.973 278.225 206.706V124.072C278.221 123.825 278.266 123.58 278.357 123.35C278.449 123.121 278.585 122.912 278.757 122.735C278.93 122.559 279.136 122.419 279.363 122.324C279.59 122.228 279.833 122.179 280.079 122.179H382.354C382.809 122.237 383.227 122.46 383.53 122.806C383.833 123.152 384 123.597 384 124.057C384 124.518 383.833 124.962 383.53 125.308C383.227 125.654 382.809 125.877 382.354 125.935H282.055V206.706C282.059 211.304 281.161 215.858 279.412 220.108C277.663 224.357 275.098 228.219 271.864 231.472C268.629 234.725 264.788 237.305 260.56 239.066C256.332 240.826 251.8 241.732 247.223 241.732Z" fill="#F37767"/>
</svg>
