<svg width="384" height="241" viewBox="0 0 384 241" fill="none" xmlns="http://www.w3.org/2000/svg">
<path d="M247.165 240.732H34.7927C30.2197 240.728 25.6922 239.822 21.4688 238.066C17.2454 236.309 13.4088 233.737 10.178 230.496C6.94717 227.254 4.38547 223.407 2.63913 219.174C0.892795 214.941 -0.0039789 210.405 1.32704e-05 205.825V35.3964C0.0561666 26.1887 3.74563 17.3768 10.2636 10.8829C16.7815 4.3891 25.599 0.740285 34.7927 0.732422H80.8892C81.3808 0.732422 81.8523 0.928013 82.1999 1.27617C82.5475 1.62432 82.7428 2.09652 82.7428 2.58888C82.7428 3.08124 82.5475 3.55344 82.1999 3.90159C81.8523 4.24974 81.3808 4.44533 80.8892 4.44533H34.7927C26.5508 4.45339 18.6487 7.73612 12.8208 13.5731C6.99288 19.41 3.71523 27.3243 3.70718 35.579V206.008C3.71523 214.262 6.99288 222.177 12.8208 228.013C18.6487 233.85 26.5508 237.133 34.7927 237.141H247.165C251.261 237.137 255.317 236.323 259.098 234.746C262.88 233.168 266.313 230.859 269.201 227.949C272.089 225.039 274.375 221.587 275.928 217.791C277.481 213.994 278.27 209.928 278.25 205.825V123.471C278.246 123.225 278.291 122.98 278.383 122.752C278.474 122.523 278.61 122.315 278.782 122.139C278.955 121.963 279.161 121.824 279.387 121.729C279.614 121.634 279.858 121.585 280.104 121.585H382.355C382.809 121.643 383.227 121.865 383.53 122.209C383.833 122.554 384 122.997 384 123.456C384 123.915 383.833 124.359 383.53 124.703C383.227 125.048 382.809 125.27 382.355 125.328H281.927V205.825C281.927 215.067 278.268 223.932 271.751 230.476C265.234 237.02 256.393 240.708 247.165 240.732Z" fill="#21A371"/>
</svg>
