<svg width="388" height="277" viewBox="0 0 388 277" fill="none" xmlns="http://www.w3.org/2000/svg">
<path d="M140.777 276.732H353.199C362.434 276.716 371.286 273.019 377.811 266.452C384.335 259.885 388 250.985 388 241.706V70.6976C387.984 61.4292 384.312 52.5451 377.789 45.9913C371.266 39.4376 362.424 35.7486 353.199 35.7324H307.061C306.57 35.7324 306.098 35.9287 305.75 36.278C305.403 36.6274 305.207 37.1012 305.207 37.5952C305.207 38.0892 305.403 38.563 305.75 38.9124C306.098 39.2617 306.57 39.4579 307.061 39.4579H353.199C361.443 39.466 369.347 42.7599 375.176 48.6167C381.006 54.4736 384.284 62.4148 384.292 70.6976V241.706C384.284 249.989 381.006 257.93 375.176 263.787C369.347 269.644 361.443 272.938 353.199 272.946H140.777C132.549 272.914 124.668 269.609 118.858 263.755C113.049 257.901 109.783 249.973 109.775 241.706V159.072C109.779 158.825 109.734 158.58 109.643 158.35C109.551 158.121 109.415 157.912 109.243 157.735C109.07 157.559 108.864 157.419 108.637 157.324C108.41 157.228 108.167 157.179 107.921 157.179H5.6456C5.19089 157.237 4.77295 157.46 4.47003 157.806C4.16711 158.152 4 158.597 4 159.057C4 159.518 4.16711 159.962 4.47003 160.308C4.77295 160.654 5.19089 160.877 5.6456 160.935H105.945V241.706C105.941 246.304 106.839 250.858 108.588 255.108C110.337 259.357 112.902 263.219 116.136 266.472C119.371 269.725 123.212 272.305 127.44 274.066C131.668 275.826 136.2 276.732 140.777 276.732Z" fill="#F37767"/>
<path d="M16.434 174.732L19 172.035L5.49835 159.747L19 147.43L16.434 144.732L0 159.747L16.434 174.732Z" fill="#FE7865"/>
<path style="mix-blend-mode:multiply" opacity="0.5" d="M274.832 50.1436C270.392 31.3305 282.043 12.4799 300.856 8.03964C319.669 3.59936 338.52 15.2508 342.96 34.0639C347.4 52.8769 335.749 71.7275 316.936 76.1678C298.123 80.6081 279.272 68.9566 274.832 50.1436Z" fill="url(#paint0_radial_2883_4760)"/>
<path d="M309.001 65.585C293.066 65.585 280.148 52.6673 280.148 36.7324C280.148 20.7976 293.066 7.87988 309.001 7.87988C324.936 7.87988 337.854 20.7976 337.854 36.7324C337.854 52.6673 324.936 65.585 309.001 65.585Z" fill="#FE7865"/>
<path d="M308.977 66.7324C314.912 66.7369 320.714 64.9812 325.651 61.6875C330.587 58.3938 334.436 53.71 336.71 48.2287C338.984 42.7473 339.581 36.7146 338.426 30.8937C337.271 25.0727 334.416 19.7251 330.221 15.5273C326.027 11.3294 320.681 8.46994 314.861 7.31054C309.041 6.15114 303.008 6.74391 297.525 9.01387C292.042 11.2838 287.355 15.129 284.057 20.0629C280.76 24.9969 279 30.798 279 36.7324C279.006 44.6831 282.166 52.3068 287.785 57.931C293.405 63.5551 301.027 66.7204 308.977 66.7324ZM308.977 9.52576C314.367 9.52576 319.636 11.1241 324.118 14.1186C328.599 17.1131 332.092 21.3693 334.155 26.3489C336.218 31.3286 336.757 36.8081 335.706 42.0945C334.654 47.3808 332.059 52.2367 328.247 56.048C324.436 59.8592 319.58 62.4547 314.294 63.5063C309.008 64.5578 303.528 64.0181 298.548 61.9555C293.569 59.8928 289.313 56.3999 286.318 51.9183C283.324 47.4367 281.725 42.1678 281.725 36.7778C281.725 33.199 282.43 29.6553 283.8 26.3489C285.169 23.0425 287.177 20.0383 289.707 17.5077C292.238 14.9771 295.242 12.9697 298.548 11.6002C301.855 10.2307 305.398 9.52576 308.977 9.52576Z" fill="white"/>
<path d="M294.324 39.252V34.0723C294.324 33.2168 294.441 32.4082 294.688 31.6465C294.922 30.8848 295.273 30.2051 295.73 29.6074C296.188 29.0098 296.785 28.541 297.535 28.1895C298.273 27.8379 299.105 27.6621 300.031 27.6621C301.203 27.6621 302.234 27.9551 303.113 28.5176C303.98 29.0918 304.637 29.8535 305.082 30.8145C305.516 31.7754 305.738 32.8652 305.738 34.0723V39.252C305.738 40.1777 305.621 41.0332 305.41 41.8184C305.199 42.6152 304.871 43.3301 304.426 43.9746C303.98 44.6191 303.395 45.123 302.645 45.498C301.895 45.873 301.016 46.0488 300.031 46.0488C299.07 46.0488 298.215 45.873 297.477 45.5215C296.727 45.1699 296.129 44.6895 295.684 44.0566C295.227 43.4355 294.887 42.7207 294.664 41.9121C294.43 41.1035 294.324 40.2129 294.324 39.252ZM297.371 39.1816C297.371 39.7793 297.406 40.3066 297.488 40.752C297.559 41.1973 297.699 41.6191 297.887 41.9941C298.074 42.3691 298.344 42.6621 298.707 42.8613C299.059 43.0723 299.504 43.166 300.031 43.166C301.004 43.166 301.695 42.8262 302.094 42.1465C302.492 41.4668 302.691 40.4824 302.691 39.1816V34.3301C302.691 33.2051 302.469 32.291 302.047 31.5879C301.625 30.8965 300.945 30.5449 300.031 30.5449C299.129 30.5449 298.461 30.8848 298.027 31.5645C297.582 32.2441 297.371 33.1699 297.371 34.3301V39.1816ZM307.531 32.8418C308.047 29.373 309.922 27.6387 313.168 27.6387C313.953 27.6387 314.68 27.7441 315.336 27.9434C315.992 28.1543 316.578 28.4473 317.094 28.8457C317.598 29.2441 317.996 29.7715 318.277 30.416C318.559 31.0605 318.711 31.7988 318.711 32.6309C318.711 34.916 317.68 37.0254 315.641 38.959L311.656 42.709H318.617V45.7324H307.602V42.6621L312.184 38.3613C313.379 37.2363 314.234 36.252 314.762 35.3848C315.277 34.5293 315.547 33.6855 315.547 32.8652C315.547 32.0918 315.336 31.4473 314.926 30.9551C314.504 30.4629 313.918 30.2051 313.168 30.2051C312.488 30.2051 311.914 30.4277 311.469 30.8613C311.023 31.3066 310.707 31.9629 310.531 32.8418H307.531Z" fill="white"/>
<defs>
<radialGradient id="paint0_radial_2883_4760" cx="0" cy="0" r="1" gradientUnits="userSpaceOnUse" gradientTransform="translate(308.917 42.0893) rotate(180) scale(35)">
<stop offset="0.11"/>
<stop offset="0.12" stop-color="#040404"/>
<stop offset="0.26" stop-color="#454545"/>
<stop offset="0.41" stop-color="#7E7E7E"/>
<stop offset="0.55" stop-color="#ACACAC"/>
<stop offset="0.68" stop-color="#D0D0D0"/>
<stop offset="0.8" stop-color="#EAEAEA"/>
<stop offset="0.91" stop-color="#FAFAFA"/>
<stop offset="1" stop-color="white"/>
</radialGradient>
</defs>
</svg>
