<svg width="130" height="130" viewBox="0 0 130 130" fill="none" xmlns="http://www.w3.org/2000/svg">
<g filter="url(#filter0_d_1953_6402)">
<rect x="25" y="20" width="80" height="80" rx="40" fill="#00756A" shape-rendering="crispEdges"/>
<rect x="25" y="20" width="80" height="80" rx="40" stroke="#85A4A9" stroke-opacity="0.25" stroke-width="1.5" shape-rendering="crispEdges"/>
</g>
<path d="M75.4772 49.7015L66.9588 40.762C66.0238 39.7773 64.4915 39.7514 63.5306 40.6583L55.0901 48.6391C53.9473 49.7015 52.9085 50.8935 52.0255 52.1631C49.5842 55.6094 48.2337 58.3819 48.026 62.0614C48.026 62.1132 48.026 62.191 48.026 62.2428C48.026 62.4242 48.026 62.6056 48 62.7869C48 62.8647 48 62.9683 48 63.0461C48 63.072 48 63.1238 48 63.1497C48 63.2793 48 63.4088 48 63.5125C48 63.6938 48 63.8752 48.026 64.0307C48.026 64.0825 48.026 64.1603 48.0519 64.2121C48.5454 71.3637 53.4799 77.2975 60.1284 79.2927C61.7646 79.8368 63.3488 80.0441 64.8291 79.9923C64.8811 79.9923 64.959 79.9923 65.0109 79.9923C72.049 79.9923 78.1003 75.7169 80.6714 69.6276C81.6063 67.6065 82.0478 65.4299 81.9959 63.2274C81.9959 63.1497 81.9959 63.072 81.9959 62.9942C81.9959 57.6305 79.3209 53.9251 75.4772 49.7015ZM54.3888 69.1094C52.9864 69.1094 51.8437 67.4251 51.8437 65.3781C51.8437 63.3052 54.3888 56.594 54.3888 56.594C54.3888 56.594 54.1291 63.3052 54.1291 65.3781C54.1291 67.4251 55.7913 69.1094 54.3888 69.1094Z" fill="white"/>
<defs>
<filter id="filter0_d_1953_6402" x="0.25" y="0.25" width="129.5" height="129.5" filterUnits="userSpaceOnUse" color-interpolation-filters="sRGB">
<feFlood flood-opacity="0" result="BackgroundImageFix"/>
<feColorMatrix in="SourceAlpha" type="matrix" values="0 0 0 0 0 0 0 0 0 0 0 0 0 0 0 0 0 0 127 0" result="hardAlpha"/>
<feOffset dy="5"/>
<feGaussianBlur stdDeviation="12"/>
<feComposite in2="hardAlpha" operator="out"/>
<feColorMatrix type="matrix" values="0 0 0 0 0 0 0 0 0 0.478431 0 0 0 0 1 0 0 0 0.15 0"/>
<feBlend mode="normal" in2="BackgroundImageFix" result="effect1_dropShadow_1953_6402"/>
<feBlend mode="normal" in="SourceGraphic" in2="effect1_dropShadow_1953_6402" result="shape"/>
</filter>
</defs>
</svg>
