<svg width="100" height="100" viewBox="0 0 100 100" fill="none" xmlns="http://www.w3.org/2000/svg">
<circle cx="50" cy="50" r="50" fill="#428DC6"/>
<path d="M58.2842 39.0458C56.5743 39.1138 56.5748 41.5562 58.2842 41.6239C58.3348 41.6239 58.3759 41.665 58.3759 41.7156C58.3759 42.4275 58.953 43.0047 59.6649 43.0047C60.3768 43.0047 60.954 42.4275 60.954 41.7156C60.9541 40.2435 59.7564 39.0458 58.2842 39.0458ZM58.2842 33.5229C56.5754 33.5907 56.5737 36.0328 58.2842 36.1011C61.3801 36.1011 63.8988 38.6198 63.8988 41.7156C63.8988 42.4275 64.476 43.0047 65.1879 43.0047C65.8998 43.0047 66.4769 42.4275 66.4769 41.7156C66.4769 37.1982 62.8017 33.5229 58.2842 33.5229Z" fill="white"/>
<path d="M58.2842 28C56.5765 28.0675 56.5725 30.5091 58.2842 30.5781C64.4255 30.5781 69.4217 35.5744 69.4217 41.7156C69.4217 42.4275 69.9989 43.0047 70.7108 43.0047C71.4227 43.0047 71.9999 42.4275 71.9999 41.7156C71.9999 34.1528 65.8471 28 58.2842 28Z" fill="white"/>
<path d="M55.8609 44.7314L47.8435 36.6858C46.9636 35.7996 45.5214 35.7763 44.617 36.5925L36.673 43.7752C35.5975 44.7314 34.6198 45.8041 33.7887 46.9468C31.491 50.0485 30.22 52.5438 30.0244 55.8553C30.0244 55.9019 30.0244 55.9719 30.0244 56.0185C30.0244 56.1818 30.0244 56.345 30 56.5082C30 56.5782 30 56.6715 30 56.7414C30 56.7648 30 56.8114 30 56.8347C30 56.9513 30 57.0679 30 57.1612C30 57.3245 30 57.4877 30.0244 57.6276C30.0244 57.6743 30.0244 57.7442 30.0489 57.7909C30.5133 64.2273 35.1575 69.5677 41.415 71.3634C42.9549 71.8531 44.4459 72.0397 45.8392 71.9931C45.8881 71.9931 45.9614 71.9931 46.0103 71.9931C52.6344 71.9931 58.3297 68.1452 60.7495 62.6649C61.6295 60.8459 62.045 58.8869 61.9961 56.9047C61.9961 56.8347 61.9961 56.7648 61.9961 56.6948C61.9961 51.8675 59.4785 48.5326 55.8609 44.7314ZM36.013 62.1985C34.6931 62.1985 33.6176 60.6826 33.6176 58.8403C33.6176 56.9747 36.013 50.9346 36.013 50.9346C36.013 50.9346 35.7686 56.9747 35.7686 58.8403C35.7686 60.6826 37.333 62.1985 36.013 62.1985Z" fill="white"/>
</svg>
